<svg width="221" height="221" viewBox="0 0 221 221" fill="none" xmlns="http://www.w3.org/2000/svg">
<path d="M150.083 48.8245C151.22 49.5544 151.902 50.6826 152.359 51.7861C152.815 52.8897 153.113 54.1423 153.371 55.2772C153.64 56.4619 153.867 57.522 154.183 58.446C154.501 59.3769 154.845 59.9637 155.22 60.2965C155.618 60.6509 156.262 60.9339 157.227 61.1481C158.187 61.3612 159.271 61.4688 160.474 61.5989C161.626 61.7236 162.898 61.8705 164.035 62.1855C165.17 62.5 166.367 63.0324 167.214 64.0667C168.067 65.1087 168.362 66.3911 168.451 67.5768C168.54 68.7633 168.435 70.0435 168.328 71.2015C168.218 72.4101 168.107 73.4903 168.122 74.4692C168.137 75.4549 168.283 76.1276 168.541 76.5696L168.652 76.7397C168.94 77.139 169.43 77.5501 170.174 77.9889C171.02 78.4872 172.016 78.9243 173.12 79.422C174.178 79.8988 175.343 80.4341 176.329 81.0903C177.313 81.7454 178.285 82.6265 178.771 83.8756C179.257 85.1271 179.137 86.4355 178.855 87.5867C178.572 88.7393 178.076 89.9225 177.618 90.99C177.139 92.1043 176.7 93.0992 176.414 94.0363C176.125 94.9793 176.056 95.6684 176.166 96.1743C176.277 96.6803 176.626 97.2785 177.282 98.0162C177.932 98.7488 178.745 99.4705 179.643 100.285C180.504 101.065 181.447 101.934 182.184 102.865C182.92 103.794 183.573 104.934 183.652 106.274L183.651 106.275C183.729 107.613 183.212 108.819 182.59 109.824C181.966 110.831 181.13 111.802 180.366 112.676C179.569 113.588 178.845 114.4 178.284 115.205C177.719 116.014 177.441 116.653 177.389 117.174C177.339 117.683 177.486 118.356 177.882 119.258C178.276 120.155 178.826 121.091 179.43 122.144C180.008 123.153 180.637 124.273 181.049 125.389C181.461 126.504 181.727 127.793 181.385 129.096C181.045 130.388 180.179 131.37 179.277 132.129C178.374 132.889 177.279 133.551 176.283 134.144C175.243 134.763 174.302 135.312 173.518 135.905C172.73 136.501 172.262 137.026 172.047 137.515C171.845 137.973 171.775 138.651 171.874 139.629C171.971 140.601 172.206 141.659 172.454 142.849C172.691 143.988 172.941 145.25 172.985 146.443C173.03 147.636 172.88 148.946 172.15 150.083C171.42 151.22 170.291 151.902 169.188 152.359C168.084 152.815 166.832 153.113 165.697 153.371C164.512 153.64 163.452 153.867 162.528 154.183C161.597 154.501 161.01 154.845 160.678 155.219C160.323 155.618 160.04 156.262 159.826 157.227C159.613 158.187 159.505 159.271 159.375 160.474C159.25 161.626 159.104 162.898 158.789 164.035C158.474 165.17 157.942 166.367 156.907 167.214C155.874 168.06 154.594 168.347 153.416 168.434C152.235 168.521 150.955 168.417 149.795 168.314C148.585 168.206 147.498 168.098 146.516 168.116C145.649 168.132 145.022 168.247 144.582 168.449L144.404 168.541C143.952 168.805 143.487 169.324 142.985 170.174C142.487 171.02 142.05 172.016 141.552 173.12C141.075 174.178 140.54 175.343 139.884 176.329C139.229 177.313 138.348 178.285 137.098 178.771C135.847 179.257 134.539 179.137 133.387 178.855C132.235 178.572 131.052 178.076 129.984 177.618C128.87 177.139 127.876 176.701 126.939 176.414C125.995 176.125 125.306 176.056 124.8 176.166C124.294 176.277 123.696 176.626 122.958 177.281C122.226 177.931 121.504 178.745 120.689 179.643C119.909 180.504 119.04 181.447 118.109 182.184C117.18 182.92 116.04 183.573 114.7 183.652L114.699 183.651C113.361 183.729 112.156 183.212 111.15 182.59C110.143 181.966 109.172 181.13 108.298 180.366C107.386 179.569 106.574 178.845 105.769 178.284C104.96 177.719 104.321 177.441 103.8 177.389C103.291 177.339 102.618 177.486 101.716 177.882C100.819 178.276 99.883 178.826 98.8301 179.43C97.8213 180.008 96.7011 180.637 95.585 181.049C94.4697 181.461 93.1809 181.727 91.8785 181.385C90.5754 181.043 89.5867 180.179 88.8215 179.272C88.0567 178.366 87.3951 177.269 86.8053 176.273C86.1895 175.232 85.6472 174.295 85.0588 173.512C84.4679 172.727 83.9462 172.261 83.4595 172.047C82.9737 171.833 82.281 171.763 81.3054 171.859C80.3337 171.954 79.2795 172.189 78.0975 172.439C76.9658 172.679 75.7107 172.933 74.5235 172.981C73.3342 173.029 72.0284 172.88 70.8907 172.15C69.754 171.42 69.0717 170.291 68.6155 169.188C68.1594 168.084 67.8614 166.832 67.6032 165.697C67.3336 164.512 67.1066 163.452 66.7911 162.528C66.4731 161.597 66.1288 161.01 65.7546 160.678C65.3558 160.323 64.7118 160.04 63.747 159.826C62.7873 159.613 61.7033 159.505 60.5002 159.375C59.3477 159.25 58.0765 159.104 56.9391 158.789C55.8036 158.474 54.6069 157.942 53.7601 156.907C52.9072 155.865 52.6125 154.583 52.5231 153.397C52.4337 152.211 52.5395 150.93 52.6456 149.773C52.7564 148.564 52.8674 147.484 52.8523 146.505C52.839 145.642 52.725 145.019 52.5242 144.581L52.4334 144.404C52.1692 143.952 51.65 143.486 50.7997 142.985C49.9545 142.487 48.9584 142.05 47.8541 141.552C46.7959 141.075 45.6309 140.54 44.6452 139.884C43.6611 139.229 42.6891 138.348 42.2035 137.098L42.2041 137.098C41.7176 135.846 41.8369 134.538 42.1192 133.387C42.402 132.235 42.8983 131.052 43.3565 129.984C43.8348 128.87 44.2737 127.875 44.5606 126.938C44.8492 125.995 44.918 125.306 44.8077 124.8C44.6975 124.294 44.3482 123.696 43.6934 122.958C43.0426 122.226 42.2295 121.504 41.331 120.689C40.4702 119.909 39.5266 119.04 38.7899 118.109C38.0541 117.18 37.4006 116.04 37.3225 114.7C37.2444 113.359 37.7606 112.151 38.3837 111.144C39.0074 110.136 39.8439 109.164 40.608 108.291C41.4057 107.379 42.1292 106.569 42.6903 105.766C43.2547 104.958 43.5334 104.32 43.5849 103.8C43.6364 103.279 43.4883 102.601 43.0932 101.699C42.7003 100.802 42.1501 99.8676 41.5465 98.8176C40.9684 97.8118 40.3389 96.6946 39.926 95.5812C39.5132 94.4678 39.247 93.1812 39.5891 91.8785C39.9288 90.5856 40.7955 89.6035 41.6971 88.8451C42.6004 88.0854 43.6952 87.4229 44.6913 86.8301C45.7312 86.2112 46.6722 85.6623 47.4562 85.0692C48.2443 84.473 48.7122 83.9477 48.9273 83.4595C49.1294 83.0007 49.1986 82.3235 49.1004 81.3447C49.003 80.3731 48.7684 79.3148 48.5204 78.1254C48.283 76.9861 48.0332 75.7242 47.9887 74.5309C47.9443 73.3376 48.0944 72.0276 48.8245 70.8906C49.5544 69.7539 50.6826 69.0717 51.7861 68.6155C52.8898 68.1593 54.1424 67.8613 55.2773 67.6031C56.4619 67.3336 57.522 67.1066 58.446 66.791C59.377 66.4731 59.9637 66.1288 60.2965 65.7545C60.651 65.3557 60.9339 64.7117 61.1481 63.747C61.3612 62.7873 61.4688 61.7033 61.599 60.5002C61.7236 59.3477 61.8705 58.0765 62.1855 56.9391C62.5 55.8036 63.0324 54.6069 64.0667 53.7601C65.1087 52.9072 66.3911 52.6125 67.5768 52.5231C68.7633 52.4337 70.0436 52.5395 71.2015 52.6456C72.4101 52.7564 73.4903 52.8673 74.4693 52.8523C75.4549 52.837 76.1276 52.6909 76.5696 52.4334L76.7397 52.3221C77.139 52.0341 77.5502 51.5438 77.9889 50.7997C78.4872 49.9545 78.9243 48.9584 79.422 47.8541C79.8989 46.7959 80.4341 45.6309 81.0903 44.6452C81.7454 43.661 82.6265 42.6891 83.8756 42.2035C85.1244 41.7181 86.4314 41.8397 87.5803 42.122C88.7314 42.405 89.9151 42.9003 90.9833 43.3579C92.0981 43.8355 93.0939 44.275 94.0322 44.5614C94.9771 44.8498 95.6678 44.9181 96.1743 44.8077C96.6803 44.6975 97.2782 44.3482 98.0157 43.6934C98.7484 43.0426 99.4704 42.2295 100.285 41.331C101.065 40.4702 101.934 39.5266 102.865 38.7899C103.794 38.0541 104.934 37.4011 106.275 37.323C107.613 37.2452 108.819 37.7619 109.824 38.3843C110.831 39.0077 111.802 39.8443 112.676 40.6081C113.588 41.4053 114.4 42.1292 115.205 42.6904C116.014 43.2549 116.653 43.5333 117.174 43.5849C117.683 43.6352 118.356 43.4881 119.259 43.0919C120.155 42.6983 121.091 42.1479 122.144 41.5443C123.153 40.966 124.273 40.3371 125.389 39.9247C126.504 39.5127 127.793 39.2471 129.096 39.5891C130.388 39.9287 131.371 40.7955 132.129 41.6971C132.889 42.6003 133.551 43.6952 134.144 44.6913C134.763 45.7312 135.312 46.6721 135.905 47.4561C136.501 48.2443 137.026 48.7121 137.515 48.9273C138 49.1413 138.693 49.2111 139.669 49.1152C140.64 49.0196 141.695 48.7848 142.877 48.5348C144.008 48.2955 145.263 48.0414 146.451 47.9935C147.64 47.9455 148.946 48.0939 150.083 48.8245Z" fill="#05202E" stroke="#F0EEE7" stroke-width="3"/>
<path d="M145.456 138.769C145.553 138.464 145.61 138.147 145.707 137.842L148.009 130.631C148.009 130.631 148.068 130.448 148.08 130.34C148.093 130.299 148.112 130.238 148.125 130.198C148.202 129.886 148.207 129.306 147.41 129.052C147.165 128.973 146.94 128.901 146.695 128.823C146.531 128.771 146.368 128.719 146.204 128.667C146.163 128.654 146.143 128.647 146.143 128.647C146.143 128.647 146.156 128.606 146.169 128.566L146.253 128.302C146.484 126.943 146.769 125.557 146.816 124.139C146.843 123.633 146.876 123.106 146.909 122.579C146.982 121.573 147.069 120.526 147.006 119.454C146.971 118.928 146.95 118.429 146.936 117.91C146.912 117.208 146.901 116.466 146.816 115.745C146.525 112.989 146.054 110.443 145.306 107.988C144.536 105.392 143.566 103.001 142.353 100.733C141.321 98.8148 140.149 96.9854 138.822 95.286C136.811 92.6966 134.438 90.3945 131.792 88.4531C127.391 85.1677 122.544 82.9263 117.386 81.7274C115.189 81.2047 112.973 80.878 110.862 80.7188C107.448 80.4793 103.945 80.7265 100.471 81.4526C97.3811 82.1002 94.2985 83.2201 91.0269 84.8616C89.4922 85.6476 87.9531 86.5887 86.3361 87.7736C84.3367 89.2394 82.3951 90.9474 80.5985 92.836C79.2028 94.3154 77.8769 95.929 76.7015 97.6354C75.0344 100.035 73.8241 102.134 72.858 104.243C72.5996 104.817 72.1639 105.006 71.5507 104.81C70.4675 104.464 70.1175 104.643 69.7533 105.714C68.6878 108.91 67.6158 112.127 66.5911 115.336C66.4938 115.641 66.4309 115.979 66.369 116.384C66.2896 116.986 66.6011 117.421 67.1928 117.543C67.5533 117.613 67.9137 117.683 68.2611 117.794C69.3035 118.127 70.3662 118.466 71.4021 118.82L72.4035 119.139C76.5534 120.531 80.8045 121.889 84.9191 123.18C89.3337 124.589 93.9118 126.051 98.3747 127.52C98.7222 127.631 99.0696 127.742 99.3966 127.847C100.296 128.134 101.195 128.421 102.06 128.675C103.395 129.078 104.791 129.502 106.127 129.973C108.035 130.627 110.004 131.233 111.911 131.82L113.485 132.322C119.834 134.304 126.626 136.45 133.418 138.664C134.604 139.042 135.796 139.4 136.953 139.725C139.03 140.344 141.196 140.968 143.256 141.782C143.672 141.96 144.228 141.981 144.604 141.228C144.999 140.414 145.224 139.568 145.449 138.722L145.456 138.769ZM133.451 136.727C133.419 136.829 133.38 136.95 133.368 137.058C133.355 137.099 133.348 137.119 133.342 137.14C133.342 137.14 133.281 137.12 133.26 137.114C131.072 136.348 128.872 135.623 126.664 134.918C125.438 134.527 124.232 134.142 123.026 133.757C121.453 133.254 119.879 132.752 118.305 132.249C118.06 132.171 118.012 132.111 118.018 132.091C118.018 132.091 117.997 132.017 118.061 131.814C118.473 130.736 118.835 129.531 119.207 128.083C119.207 128.083 119.228 128.09 119.248 128.096C119.289 128.109 119.33 128.122 119.371 128.135C121.394 128.781 123.397 129.421 125.421 130.067L128.731 131.124C130.632 131.731 132.512 132.331 134.393 132.931C134.577 132.99 134.605 133.044 134.605 133.044C134.605 133.044 134.633 133.097 134.554 133.274C134.24 134.114 133.914 134.995 133.622 135.909C133.538 136.173 133.474 136.443 133.41 136.714L133.451 136.727ZM114.589 120.117L114.621 120.016C114.662 120.029 114.805 120.075 114.846 120.088C116.788 120.708 118.729 121.327 120.65 121.941L124.268 123.096C126.067 123.67 127.865 124.244 129.664 124.818C129.929 124.903 129.937 124.95 129.937 124.95C129.937 124.95 129.958 125.024 129.833 125.275C129.316 126.543 128.907 127.822 128.62 129.074C128.562 129.257 128.538 129.473 128.525 129.513C128.457 129.514 128.212 129.436 128.13 129.41L125.085 128.438C121.222 127.204 117.359 125.971 113.517 124.744C113.21 124.646 113.21 124.646 113.308 124.342C113.444 123.915 113.58 123.489 113.716 123.062C114.021 122.107 114.373 121.145 114.562 120.131L114.589 120.117ZM116.88 130.295C116.757 130.681 116.633 131.067 116.51 131.453C116.458 131.615 116.431 131.629 116.431 131.629C116.431 131.629 116.384 131.636 116.241 131.59C113.788 130.807 111.336 130.024 108.883 129.241C106.431 128.458 103.978 127.675 101.526 126.892C101.362 126.84 101.348 126.813 101.348 126.813C101.348 126.813 101.341 126.766 101.386 126.624C101.509 126.238 101.632 125.852 101.756 125.466C102.022 124.633 102.335 123.793 102.491 122.881C102.511 122.82 102.517 122.799 102.523 122.779C102.523 122.779 102.585 122.799 102.707 122.838C104.71 123.477 106.693 124.11 108.696 124.75L111.68 125.702C113.662 126.335 115.645 126.968 117.627 127.601C117.791 127.653 117.832 127.666 117.811 127.66C117.811 127.66 117.805 127.68 117.779 127.761C117.384 128.575 117.132 129.435 116.886 130.274L116.88 130.295ZM82.8896 120.719C82.8377 120.881 82.8043 120.915 82.8043 120.915C82.8043 120.915 82.757 120.923 82.6139 120.877C77.8314 119.35 73.0564 117.87 68.2609 116.384C68.0157 116.306 68.0082 116.259 67.9878 116.252C67.9878 116.252 67.9599 116.198 68.0591 116.029C68.3743 115.324 68.5734 114.559 68.766 113.815C68.9281 113.307 69.0494 112.786 69.2319 112.285C69.2773 112.142 69.3108 112.108 69.3108 112.108C69.3108 112.108 69.3377 112.094 69.4807 112.14C71.2997 112.721 73.0983 113.295 74.9786 113.895L76.8793 114.502C78.6454 115.178 80.5526 115.765 82.4125 116.358L83.9453 116.848C84.0475 116.88 84.0884 116.893 84.1088 116.9C84.1088 116.9 84.0829 116.981 84.044 117.103C83.639 118.16 83.3157 119.243 82.9989 120.306L82.8757 120.692L82.8896 120.719ZM97.6133 114.81C97.6587 114.667 97.6716 114.627 97.6716 114.627C97.6716 114.627 97.7255 114.599 97.889 114.651C99.7693 115.252 101.67 115.859 103.571 116.465L107.331 117.666C109.212 118.266 111.092 118.867 112.972 119.467C113.074 119.5 113.115 119.513 113.115 119.513C113.115 119.513 113.102 119.553 113.07 119.655C112.549 121.145 112.022 122.655 111.607 123.955C111.581 124.037 111.568 124.077 111.568 124.077C111.568 124.077 111.507 124.058 111.445 124.038C109.074 123.281 106.704 122.524 104.333 121.767C101.696 120.926 99.0394 120.077 96.4029 119.236C96.3211 119.21 96.2803 119.197 96.2803 119.197C96.2803 119.197 96.2932 119.156 96.3127 119.095L96.5332 118.404C96.9093 117.226 97.292 116.028 97.5928 114.803L97.6133 114.81ZM95.4488 116.581C95.18 117.211 94.8842 117.855 94.7315 118.545C94.6991 118.647 94.6861 118.688 94.6861 118.688C94.6861 118.688 94.6387 118.695 94.5161 118.656C92.0022 117.853 89.5088 117.057 86.9949 116.254C84.7059 115.524 82.4168 114.793 80.1278 114.062C80.0051 114.023 79.9643 114.01 79.9643 114.01C79.9643 114.01 79.9707 113.99 79.9967 113.908L80.2756 113.035C80.6258 111.938 81.0159 110.787 81.2703 109.637C81.3222 109.474 81.3352 109.434 81.3352 109.434C81.3352 109.434 81.389 109.406 81.573 109.465C83.392 110.045 85.211 110.626 87.0299 111.207L88.5832 111.703L90.7227 112.408C92.5008 112.976 94.2585 113.537 96.0366 114.105C96.3023 114.19 96.3506 114.25 96.3506 114.25C96.3506 114.25 96.3516 114.317 96.2319 114.481C96.1586 114.569 96.1262 114.671 96.1068 114.732C95.967 115.381 95.7047 115.991 95.4154 116.615L95.4488 116.581ZM109.287 95.0339C111.899 95.1067 114.544 95.6379 117.183 96.6146C120.04 97.6833 122.613 99.2882 124.847 101.389C126.758 103.163 128.369 105.312 129.625 107.727C130.078 108.566 130.458 109.493 130.839 110.555C131.765 113.156 132.251 115.796 132.36 118.628C132.407 119.964 132.318 121.301 132.242 122.597L132.203 122.719C132.201 123.077 132.193 123.455 132.192 123.812C132.2 123.927 132.187 123.968 132.181 123.988C132.181 123.988 132.113 123.989 131.97 123.943C130.09 123.343 128.216 122.722 126.356 122.128L105.039 115.323C98.9486 113.378 92.8581 111.434 86.7815 109.516C86.5772 109.451 86.5223 109.411 86.5019 109.404C86.5019 109.404 86.5214 109.343 86.6271 109.153C86.9258 108.711 87.2106 108.243 87.4888 107.794C87.9192 107.081 88.3765 106.354 88.8617 105.681C90.5901 103.301 92.5473 101.262 94.7212 99.6727C96.2778 98.5357 97.7771 97.6489 99.3201 96.9776C102.555 95.5929 105.916 94.9424 109.294 95.0136L109.287 95.0339ZM144.636 128.076C143.757 127.796 142.878 127.515 141.999 127.235C141.529 127.085 141.039 126.928 140.569 126.778L137.83 125.904C136.44 125.46 135.051 125.016 133.661 124.572C133.436 124.501 133.436 124.501 133.461 124.352C133.761 123.06 133.979 121.742 134.109 120.418C134.129 120.424 134.15 120.431 134.191 120.444C137.409 120.733 140.68 120.927 143.822 121.102L145.126 121.182C145.126 121.182 145.207 121.208 145.234 121.194C145.234 121.194 145.221 121.235 145.229 121.282L145.212 121.97C145.159 123.968 145.088 126.027 144.785 128.034C144.759 128.116 144.746 128.156 144.739 128.176C144.719 128.17 144.678 128.157 144.596 128.131L144.636 128.076ZM143.397 119.332C140.364 119.236 137.243 119.135 134.152 119.156C134.122 118.967 134.119 118.765 134.136 118.569C134.221 116.962 133.988 115.365 133.714 113.756C133.699 113.661 133.691 113.614 133.691 113.614C133.691 113.614 133.745 113.587 133.84 113.572C136.411 113.207 138.983 112.841 141.534 112.469C142.433 112.331 143.327 112.214 144.213 112.049C144.26 112.042 144.287 112.028 144.307 112.034C144.307 112.034 144.315 112.082 144.343 112.135C144.725 114.182 145.16 116.559 145.161 118.955C145.169 119.069 145.178 119.184 145.22 119.265C145.227 119.312 145.241 119.339 145.249 119.386L143.397 119.332ZM143.646 110.368C139.567 111.081 136.45 111.675 133.502 112.3C133.408 112.315 133.387 112.308 133.38 112.261C133.014 110.443 132.312 108.764 131.575 107.052C132.55 106.467 133.601 105.997 134.625 105.541C135.103 105.313 135.595 105.112 136.053 104.877C136.638 104.594 137.231 104.291 137.823 103.988C138.146 103.822 138.476 103.636 138.799 103.471C139.176 103.278 139.553 103.085 139.929 102.892C140.246 102.747 140.549 102.575 140.892 102.416C141.534 103.65 142.116 104.933 142.596 106.25C143.112 107.668 143.516 108.872 143.824 110.022C143.874 110.217 143.861 110.258 143.861 110.258C143.861 110.258 143.848 110.299 143.632 110.341L143.646 110.368ZM140.024 100.975L139.674 101.154C138.489 101.761 137.277 102.381 136.086 103.008C135.359 103.38 134.646 103.779 133.933 104.178L130.906 105.831L130.878 105.777C130.76 105.583 130.622 105.382 130.503 105.187C129.502 103.457 128.272 101.878 126.862 100.511C126.71 100.35 126.703 100.303 126.703 100.303C126.703 100.303 126.716 100.262 126.849 100.126C128.806 98.5124 130.728 96.8653 132.562 95.2124L132.816 94.9803C133.291 94.55 133.773 94.0994 134.269 93.6757C134.389 93.5799 134.41 93.5864 134.41 93.5864C134.41 93.5864 134.471 93.606 134.533 93.693C136.13 95.3221 137.622 97.1411 139.056 99.278C139.257 99.5659 139.431 99.8677 139.605 100.169C139.737 100.391 139.869 100.612 140.022 100.84C140.07 100.9 140.077 100.947 140.077 100.947C140.077 100.947 140.064 100.988 139.99 101.009L140.024 100.975ZM133.151 92.3788C132.556 92.9049 131.98 93.4374 131.384 93.9635C130.909 94.3937 130.427 94.8443 129.952 95.2746C128.346 96.709 126.981 98.0194 125.806 99.2333C125.732 99.3218 125.705 99.3356 125.651 99.2957C124.243 98.0627 122.694 96.9864 120.918 96.0611C121.11 95.7419 121.302 95.4227 121.467 95.1172C122.003 94.214 122.499 93.3652 123.05 92.5562C123.548 91.8423 124.012 91.095 124.449 90.3615C124.787 89.7978 125.124 89.2341 125.476 88.6972C125.609 88.4934 125.768 88.2757 125.901 88.0718C126.027 87.8883 126.147 87.725 126.286 87.5009C126.286 87.5009 126.306 87.5074 126.388 87.5335C129.02 89.023 131.22 90.5982 133.097 92.3389C133.097 92.3389 133.117 92.3455 133.137 92.352L133.151 92.3788ZM119.654 95.4339C119.368 95.3425 119.115 95.2171 118.829 95.1257C118.045 94.8306 117.247 94.5087 116.43 94.2477L116.389 94.2346C115.632 93.9932 114.836 93.8062 114.088 93.6119L113.359 93.4241L113.278 93.398C113.278 93.398 113.291 93.3574 113.283 93.3103C113.594 90.4324 113.891 87.5278 114.16 84.6369C114.183 84.3533 114.206 84.0696 114.202 83.7998L114.217 83.4015C114.217 83.4015 114.243 83.3202 114.222 83.3137C114.222 83.3137 114.263 83.3268 114.331 83.326C115.575 83.5217 116.779 83.7717 117.963 84.0827C120.489 84.7772 122.725 85.6031 124.768 86.6807L119.695 95.4469L119.654 95.4339ZM111.884 93.177C110.084 92.9605 108.571 92.9027 107.121 92.9994L107.006 93.0074C107.006 93.0074 106.871 93.0089 106.823 93.0162C106.085 93.0714 106.085 93.0714 105.993 92.3707C105.663 90.1611 105.17 87.9668 104.698 85.8465C104.524 85.0522 104.35 84.2578 104.175 83.4635C104.103 83.1269 104.142 83.0725 104.142 83.0725C104.155 83.0319 104.291 83.0304 104.507 82.9876C107.046 82.7238 109.698 82.7422 112.401 83.0232C112.442 83.0362 112.462 83.0427 112.462 83.0427C112.456 83.063 112.471 83.1573 112.472 83.2248C112.47 84.075 112.422 84.9325 112.359 85.7631C112.315 86.4653 112.244 87.1813 112.241 87.8966C112.23 88.9898 112.144 90.0366 112.058 91.1509C112.007 91.806 111.949 92.4813 111.911 93.1632L111.884 93.177ZM104.738 93.2683C102.533 93.6162 100.359 94.2876 98.0687 95.3246L97.6212 94.3983C97.2082 93.5054 96.809 92.6393 96.383 91.787C95.9569 90.9347 95.5309 90.0824 95.0779 89.2439C94.8686 88.8414 94.6528 88.4591 94.464 88.063C94.2268 87.6068 94.01 87.1571 93.7728 86.7008L93.4863 86.1169C93.4863 86.1169 93.4509 86.0161 93.4305 86.0096C93.4305 86.0096 93.4435 85.9689 93.5382 85.9544C95.8231 85.0051 98.5343 83.9905 101.395 83.4938C102.322 83.342 102.302 83.3355 102.539 84.2843L102.785 85.3477C103.133 86.8689 103.481 88.39 103.855 89.8974C104.064 90.7251 104.273 91.5527 104.522 92.3935L104.765 93.2545L104.738 93.2683ZM93.6667 98.0378C93.2304 98.3462 92.822 98.7082 92.4136 99.0703C92.3199 99.1523 92.293 99.1661 92.293 99.1661C92.293 99.1661 92.2521 99.153 92.1694 99.0595C89.8129 96.4941 87.3488 93.9838 85.2425 91.834C85.091 91.6737 84.919 91.5069 84.9051 91.4801C84.9245 91.4192 85.1324 91.2617 85.2596 91.1456C87.4241 89.3745 89.5665 87.9544 91.8959 86.7955L96.8572 95.9451C95.6067 96.6874 94.5856 97.3463 93.6731 98.0175L93.6667 98.0378ZM91.1856 99.9541L91.2683 100.048C91.2683 100.048 91.2554 100.088 91.1885 100.156C90.0925 101.262 88.837 102.584 87.8695 104.133C87.7767 104.283 87.7294 104.29 87.7229 104.31C87.7229 104.31 87.6551 104.311 87.4702 104.185C84.7631 102.224 81.915 100.352 79.183 98.5395L78.5325 98.108C79.7507 96.5496 81.0831 94.9157 82.6628 93.495C82.944 93.249 83.2113 92.9762 83.4312 92.7107C83.4711 92.6563 83.498 92.6425 83.5045 92.6222C83.5045 92.6222 83.5453 92.6352 83.5937 92.6954C84.8113 93.89 86.0559 95.0707 87.28 96.245L88.4009 97.3191C89.3155 98.1931 90.2506 99.0736 91.1652 99.9476L91.1856 99.9541ZM86.1788 104.914C86.7035 105.246 86.8184 105.685 86.5235 106.233C86.1211 107 85.6657 107.862 85.347 108.789C85.2626 109.053 85.1754 109.115 84.8893 109.024L84.8688 109.017C83.5608 108.6 82.2528 108.182 80.9447 107.764L78.063 106.844C76.6936 106.407 75.3447 105.977 73.9958 105.546L73.8732 105.507C73.8797 105.486 73.8926 105.446 73.9186 105.365C74.2098 104.876 74.4806 104.38 74.7514 103.885C75.115 103.24 75.4786 102.595 75.8626 101.956C76.1538 101.467 76.4859 100.991 76.8116 100.536C77.024 100.223 77.2569 99.9167 77.4693 99.604C77.4823 99.5634 77.4888 99.5431 77.5157 99.5293C77.5157 99.5293 77.577 99.5489 77.6114 99.5823C80.2597 101.234 82.9145 102.865 85.5628 104.516L86.1993 104.921L86.1788 104.914ZM79.923 108.848L80.0252 108.881C80.0252 108.881 80.0122 108.922 79.9798 109.023C79.458 110.446 78.9363 111.869 78.4414 113.277C78.396 113.42 78.3626 113.454 78.3626 113.454C78.3626 113.454 78.3088 113.481 78.1926 113.422C78.1518 113.409 73.4436 111.861 72.3967 111.683L71.6739 111.408C71.4491 111.336 71.2243 111.264 71.0199 111.199C70.652 111.082 70.2637 110.958 69.8549 110.827L69.7527 110.794C69.7527 110.794 69.7657 110.754 69.7916 110.673C70.2715 109.169 70.7171 107.633 71.1561 106.117C71.195 105.995 71.208 105.954 71.208 105.954C71.208 105.954 71.2553 105.947 71.3715 106.006C73.3829 106.76 75.4471 107.419 77.4769 108.045C78.2945 108.306 79.1324 108.574 79.9499 108.835L79.923 108.848ZM84.3511 121.432C84.3511 121.432 84.3641 121.391 84.3836 121.33C84.9556 120.102 85.2889 118.776 85.5704 117.613C85.6093 117.491 85.6222 117.45 85.6222 117.45C85.6222 117.45 85.6696 117.443 85.8331 117.495C87.7747 118.115 89.7163 118.735 91.6784 119.361L95.439 120.562C97.2579 121.143 99.0769 121.723 100.896 122.304C101.039 122.35 101.059 122.356 101.059 122.356C101.059 122.356 101.04 122.417 101.001 122.539C100.531 123.799 100.096 125.093 99.7325 126.23C99.7066 126.312 99.7001 126.332 99.7001 126.332C99.7001 126.332 99.6592 126.319 99.5774 126.293C94.5497 124.688 89.5015 123.076 84.4738 121.471C84.3716 121.438 84.3307 121.425 84.3307 121.425L84.3511 121.432ZM130.242 130.062C130.058 130.003 130.03 129.949 130.03 129.949C130.03 129.949 130.002 129.896 130.067 129.692C130.627 128.08 130.988 126.808 131.282 125.604C131.34 125.421 131.353 125.38 131.353 125.38C131.353 125.38 131.407 125.353 131.612 125.418C135.658 126.71 139.698 127.955 143.757 129.206C144.616 129.48 145.446 129.7 146.461 129.98C146.563 130.012 146.624 130.032 146.624 130.032C146.624 130.032 146.632 130.079 146.572 130.194C146.052 131.684 145.545 133.201 145.044 134.698C145.018 134.779 145.012 134.8 145.012 134.8C144.971 134.787 144.848 134.747 144.808 134.734C144.194 134.539 143.581 134.343 142.968 134.147C141.129 133.56 139.391 133.005 137.741 132.389L135.759 131.756C135.125 131.554 134.512 131.358 133.899 131.162C132.673 130.771 131.447 130.379 130.241 129.994L130.242 130.062ZM134.889 137.656C134.766 137.617 134.746 137.61 134.725 137.604C134.725 137.604 134.732 137.583 134.764 137.482C134.874 137.137 134.978 136.812 135.088 136.466C135.387 135.532 135.692 134.577 135.915 133.596C135.954 133.474 135.96 133.454 135.96 133.454C135.96 133.454 136.007 133.447 136.11 133.479C138.91 134.373 141.73 135.274 144.537 136.147L144.598 136.167C144.598 136.167 144.585 136.208 144.565 136.269C144.144 137.589 143.722 138.909 143.301 140.23C143.275 140.311 143.268 140.331 143.268 140.331C143.268 140.331 143.227 140.318 143.105 140.279C142.083 139.953 141.061 139.627 140.019 139.294L137.975 138.641C136.953 138.315 135.911 137.982 134.889 137.656Z" fill="#F0EEE7"/>
</svg>
