<svg width="16" height="16" viewBox="0 0 16 16" fill="none" xmlns="http://www.w3.org/2000/svg">
<path d="M9.52053 4.56753C9.53206 4.69681 9.505 4.82661 9.44277 4.94051C9.38054 5.05441 9.28592 5.1473 9.1709 5.20743C9.05587 5.26756 8.9256 5.29223 8.79655 5.27832C8.66751 5.26441 8.54548 5.21255 8.44591 5.12929C8.34634 5.04603 8.27369 4.93512 8.23716 4.81057C8.20063 4.68602 8.20184 4.55344 8.24066 4.42959C8.27948 4.30573 8.35415 4.19617 8.45523 4.11476C8.55632 4.03334 8.67927 3.98373 8.80855 3.97219C8.98191 3.95673 9.15432 4.01076 9.28784 4.12241C9.42136 4.23405 9.50506 4.39417 9.52053 4.56753ZM12.1926 8.67098C11.4725 9.87945 10.3179 10.7533 8.76228 11.2688C7.69144 11.6235 6.41977 11.8072 4.96187 11.8236C5.10676 12.463 5.28959 13.1337 5.51036 13.8358C5.54506 13.9464 5.53442 14.0663 5.4808 14.1691C5.42717 14.2719 5.33494 14.3492 5.22436 14.384C5.19422 14.3937 5.16311 14.4 5.13159 14.4027C5.03224 14.4115 4.93287 14.3861 4.84993 14.3307C4.767 14.2753 4.70549 14.1932 4.6756 14.0981C4.42558 13.3019 4.22199 12.5401 4.06483 11.8125C3.32243 11.7869 2.5373 11.7213 1.70944 11.6158C1.65244 11.6086 1.59744 11.5901 1.54757 11.5616C1.49769 11.533 1.45393 11.495 1.41877 11.4495C1.34777 11.3577 1.31615 11.2415 1.33085 11.1264C1.34555 11.0113 1.40538 10.9067 1.49717 10.8357C1.58897 10.7647 1.7052 10.7331 1.82031 10.7478C2.5497 10.8408 3.24149 10.9023 3.89569 10.9321C3.65276 9.49552 3.6102 8.21235 3.76926 7.09677C4.00117 5.47451 4.65738 4.18335 5.71863 3.2596C6.43799 2.63319 7.74849 1.85082 9.8817 1.68026C11.037 1.58871 12.1268 1.71768 12.2976 1.79852C12.3646 1.83034 12.4224 1.87865 12.4655 1.93892C12.5754 2.09383 12.8951 3.1409 13.0095 4.29412C13.1265 5.47071 13.0796 7.18409 12.1926 8.67098ZM11.783 2.58455C11.0675 2.50369 10.3452 2.5035 9.6296 2.58397C8.30689 2.73712 7.22574 3.15478 6.40446 3.82652C6.63066 5.01931 7.26327 6.09683 8.19458 6.87566C9.12589 7.65449 10.2983 8.08647 11.5123 8.09808C12.0288 7.17352 12.2483 6.03279 12.1648 4.70385C12.1175 3.98535 11.9896 3.27445 11.7836 2.5845L11.783 2.58455Z" fill="#115C83"/>
</svg>
