<svg width="16" height="16" viewBox="0 0 16 16" fill="none" xmlns="http://www.w3.org/2000/svg">
<path d="M9.30784 2.63303C9.16702 2.14492 8.86095 1.72093 8.442 1.4336C8.02305 1.14627 7.51726 1.01347 7.0112 1.05793C6.89562 1.06824 6.78888 1.12404 6.71445 1.21306C6.64002 1.30207 6.604 1.41701 6.61431 1.53258C6.62462 1.64815 6.68042 1.75489 6.76944 1.82933C6.85845 1.90376 6.97339 1.93978 7.08896 1.92947C7.36578 1.90477 7.6433 1.96858 7.88153 2.11171C8.11977 2.25484 8.30642 2.4699 8.41459 2.7259C7.59614 2.92059 6.87504 3.40321 6.38301 4.08561C5.89098 4.76801 5.66086 5.60464 5.73469 6.44268C5.9619 8.9892 4.71114 10.8166 2.018 11.8804C1.83372 11.9525 1.67929 12.0848 1.57991 12.2559C1.48054 12.427 1.44208 12.6267 1.47083 12.8225C1.49957 13.0183 1.59381 13.1985 1.73817 13.3338C1.88254 13.4691 2.0685 13.5515 2.26571 13.5675C3.09705 13.636 3.93275 13.6325 4.76349 13.5571C6.98483 13.3589 9.41226 12.64 10.9931 11.0544C12.3216 9.72247 12.898 7.96131 12.707 5.82059C12.6297 4.96495 12.2408 4.16751 11.6141 3.57984C10.9874 2.99216 10.1667 2.65521 9.30784 2.63303ZM10.9202 5.48587L9.30324 4.85214C9.23999 4.82725 9.17182 4.81743 9.10412 4.82347C9.03642 4.82951 8.97106 4.85124 8.91323 4.88694L7.43402 5.79692L6.67328 5.49803C6.80498 4.96805 7.0987 4.49235 7.51351 4.13717C7.92832 3.782 8.44358 3.56503 8.98751 3.5165C9.53144 3.46797 10.077 3.59029 10.5481 3.86642C11.0192 4.14255 11.3925 4.55874 11.616 5.05703L10.9202 5.48587Z" fill="#D8502A"/>
</svg>
