<svg width="218" height="72" viewBox="0 0 218 72" fill="none" xmlns="http://www.w3.org/2000/svg">
<path d="M21.5874 34.8645C21.0873 34.7512 20.615 34.6719 20.1704 34.6266C19.7444 34.604 19.1887 34.5926 18.5034 34.5926H8.64001V34.5247C9.04751 34.1849 9.39945 33.5845 9.69581 32.7237C9.99217 31.8628 10.1404 30.7868 10.1404 29.4955V15.937C10.1404 14.691 9.99217 13.6489 9.69581 12.8107C9.39945 11.9499 9.04751 11.3609 8.64001 11.0437V10.9757H15.4471V11.0437C15.0396 11.3835 14.6877 11.9838 14.3913 12.8447C14.095 13.7056 13.9468 14.7816 13.9468 16.0729V31.1945H16.6974C17.9199 31.1945 19.0035 30.9453 19.9481 30.4469C20.8928 29.9259 21.6615 29.1557 22.2542 28.1362L22.3098 28.1702L21.5874 34.8645Z" fill="white"/>
<path d="M37.9998 28.1022L37.2218 34.8645C36.7032 34.7512 36.203 34.6719 35.7215 34.6266C35.2584 34.604 34.6286 34.5926 33.8321 34.5926H24.0244V34.5247C24.4319 34.1849 24.7838 33.5845 25.0802 32.7237C25.3765 31.8628 25.5247 30.7868 25.5247 29.4955V16.0729C25.5247 14.759 25.3765 13.6829 25.0802 12.8447C24.7838 11.9838 24.4319 11.3835 24.0244 11.0437V10.9757H33.9988C35.314 10.9757 36.2957 10.8851 36.944 10.7039L37.4163 16.7865L37.3607 16.8205C37.0273 15.9823 36.4902 15.3593 35.7492 14.9515C35.0083 14.5211 34.0915 14.3059 32.9986 14.3059H29.3311V20.2866H31.4427C32.6096 20.2866 33.4709 20.2752 34.0266 20.2526C34.5823 20.2073 35.1658 20.1393 35.777 20.0487L34.9713 25.7575H34.9157C34.6934 25.01 34.3323 24.4663 33.8321 24.1264C33.332 23.7866 32.6837 23.6167 31.8873 23.6167H29.3311V31.2625H32.3596C33.5821 31.2625 34.6657 30.9906 35.6103 30.4469C36.5735 29.9032 37.3515 29.1104 37.9442 28.0683L37.9998 28.1022Z" fill="white"/>
<path d="M64.8005 21.9517V22.0196C64.4856 22.2688 64.2541 22.7899 64.1059 23.5827C63.9577 24.3756 63.8837 25.531 63.8837 27.0488V32.6557C62.9575 33.3807 61.8554 33.9697 60.5774 34.4227C59.2993 34.8758 58.1046 35.1024 56.9932 35.1024C55.0854 35.1024 53.3905 34.5926 51.9087 33.5732C50.4269 32.5538 49.2692 31.1379 48.4357 29.3256C47.6207 27.5132 47.2132 25.4404 47.2132 23.107C47.2132 20.5244 47.6392 18.2817 48.4913 16.3787C49.3618 14.4758 50.5751 13.0259 52.131 12.0292C53.6869 11.0097 55.4929 10.5 57.5489 10.5C59.4753 10.5 61.2349 10.8058 62.8279 11.4175L63.2446 16.9564L63.1891 16.9904C61.7628 15.0422 59.855 14.068 57.4655 14.068C55.5392 14.068 54.0296 14.8496 52.9367 16.4127C51.8624 17.9532 51.3253 20.0714 51.3253 22.7672C51.3253 25.463 51.8532 27.5925 52.9089 29.1557C53.9647 30.7188 55.4188 31.5004 57.271 31.5004C58.438 31.5004 59.4567 31.2512 60.3273 30.7528V25.2138C58.4565 25.2592 57.0766 25.8482 56.1875 26.9809L56.1319 26.9469L56.5764 21.7478C57.1877 21.8837 58.3176 21.9517 59.9661 21.9517H64.8005Z" fill="white"/>
<path d="M80.8639 30.0052C81.9382 32.112 83.1422 33.4373 84.4758 33.981V34.0489L78.7801 35.3063C78.4281 34.015 77.9558 32.7577 77.3631 31.5343L73.0565 22.5293H74.3902C75.6127 22.5293 76.5388 22.2008 77.1686 21.5439C77.7983 20.8643 78.1132 19.7882 78.1132 18.3157C78.1132 17.0697 77.7891 16.0842 77.1408 15.3593C76.4925 14.6344 75.5756 14.2832 74.3902 14.3059L72.4453 14.3399V29.6314C72.4453 30.8547 72.5842 31.8968 72.862 32.7577C73.1399 33.5959 73.464 34.1849 73.8345 34.5247V34.5926H67.1385V34.5247C67.546 34.2075 67.898 33.6185 68.1943 32.7577C68.4907 31.8742 68.6389 30.7868 68.6389 29.4955V15.937C68.6389 14.691 68.4907 13.6489 68.1943 12.8107C67.898 11.9499 67.546 11.3609 67.1385 11.0437V10.9757H75.0292C77.2334 10.9757 78.956 11.6214 80.197 12.9127C81.4381 14.1813 82.0586 15.9257 82.0586 18.1458C82.0586 19.9128 81.7252 21.3626 81.0583 22.4954C80.4101 23.6054 79.4839 24.3983 78.2799 24.874L80.8639 30.0052Z" fill="white"/>
<path d="M101.73 29.0197C102.082 30.2431 102.517 31.3644 103.036 32.3839C103.554 33.3806 104.027 34.0943 104.453 34.5247V34.5926H98.1735V34.5247C98.4699 34.2528 98.6181 33.7318 98.6181 32.9615C98.6181 32.2366 98.4699 31.3644 98.1735 30.345L97.9235 29.5295H90.7552L90.5051 30.345C90.2088 31.2738 90.0606 32.1347 90.0606 32.9276C90.0606 33.7205 90.1903 34.2528 90.4496 34.5247V34.5926H84.6149V34.5247C85.0409 34.0716 85.504 33.3467 86.0041 32.3499C86.5228 31.3531 86.958 30.2431 87.31 29.0197L91.2831 15.0195C91.4498 14.4078 91.5331 13.8528 91.5331 13.3544C91.5331 12.8334 91.4591 12.369 91.3109 11.9612C91.1627 11.5534 90.9867 11.2476 90.783 11.0437V10.9757H98.1458V11.0437C97.942 11.2702 97.7661 11.5874 97.6179 11.9952C97.4697 12.3803 97.3956 12.8334 97.3956 13.3544C97.3956 13.8528 97.479 14.4078 97.6457 15.0195L101.73 29.0197ZM94.256 15.4952C94.1449 16.6506 93.9689 17.7493 93.7281 18.7914C93.4873 19.8108 93.1446 21.0795 92.7001 22.5973L91.6721 26.1993H97.0066L95.9786 22.5973C95.5155 20.9662 95.1636 19.6636 94.9228 18.6895C94.682 17.7153 94.4968 16.6506 94.3671 15.4952H94.256Z" fill="white"/>
<path d="M105.586 34.5247C105.993 34.1849 106.345 33.5845 106.642 32.7237C106.938 31.8628 107.086 30.7868 107.086 29.4955V15.903C107.086 14.9062 106.957 13.9548 106.697 13.0486C106.438 12.1198 106.067 11.4515 105.586 11.0437V10.9757H111.893C111.93 11.3609 112.022 11.7913 112.171 12.267C112.319 12.7201 112.606 13.3771 113.032 14.2379L117.033 22.4614C117.811 24.0698 118.663 26.3126 119.589 29.1896H119.7C119.404 27.1281 119.256 24.7947 119.256 22.1895V16.0729C119.256 14.759 119.117 13.6716 118.839 12.8107C118.58 11.9499 118.246 11.3609 117.839 11.0437V10.9757H124.257V11.0437C123.849 11.3609 123.497 11.9612 123.201 12.8447C122.905 13.7056 122.756 14.7816 122.756 16.0729V29.4955C122.756 30.7868 122.905 31.8742 123.201 32.7577C123.497 33.6185 123.849 34.2075 124.257 34.5247V34.5926H118.394C118.061 33.6185 117.598 32.5424 117.005 31.3644L113.088 23.5827C112.439 22.2915 111.902 21.0795 111.476 19.9468C111.05 18.7914 110.624 17.4208 110.198 15.835H110.087C110.291 17.3076 110.42 18.6328 110.476 19.8108C110.55 20.9889 110.587 22.2915 110.587 23.7187V29.4955C110.587 30.8094 110.717 31.8968 110.976 32.7577C111.254 33.6185 111.596 34.2075 112.004 34.5247V34.5926H105.586V34.5247Z" fill="white"/>
<path d="M127.536 34.5247C127.944 34.1849 128.296 33.5845 128.592 32.7237C128.888 31.8628 129.037 30.7868 129.037 29.4955V16.0729C129.037 14.8949 128.879 13.8415 128.564 12.9127C128.268 11.9838 127.925 11.3609 127.536 11.0437V10.9757H135.594C137.539 10.9757 139.233 11.4515 140.678 12.4029C142.141 13.3318 143.271 14.6797 144.068 16.4467C144.864 18.2137 145.263 20.3206 145.263 22.7672C145.263 26.5504 144.42 29.4728 142.734 31.5343C141.049 33.5732 138.52 34.5926 135.149 34.5926H127.536V34.5247ZM135.427 31.2285C137.279 31.2285 138.696 30.5036 139.678 29.0537C140.66 27.6039 141.151 25.5083 141.151 22.7672C141.151 19.8901 140.669 17.772 139.706 16.4127C138.743 15.0308 137.27 14.3399 135.288 14.3399H132.843V31.2285H135.427Z" fill="white"/>
<path d="M162.661 10.9757C164.884 10.9757 166.607 11.644 167.829 12.9806C169.052 14.3172 169.663 16.2088 169.663 18.6555C169.663 21.374 169.061 23.4128 167.857 24.7721C166.653 26.1313 164.921 26.811 162.661 26.811H160.383V29.6314C160.383 30.8774 160.531 31.9308 160.828 32.7916C161.124 33.6298 161.476 34.2075 161.883 34.5247V34.5926H155.076V34.5247C155.484 34.1849 155.836 33.5845 156.132 32.7237C156.428 31.8628 156.577 30.7868 156.577 29.4955V15.937C156.577 14.691 156.428 13.6489 156.132 12.8107C155.836 11.9499 155.484 11.3609 155.076 11.0437V10.9757H162.661ZM162.022 23.4468C164.486 23.4695 165.717 21.9517 165.717 18.8933C165.717 17.3302 165.412 16.1862 164.801 15.4613C164.208 14.7137 163.282 14.3399 162.022 14.3399H160.383V23.4128L162.022 23.4468Z" fill="white"/>
<path d="M186.113 29.0197C186.465 30.2431 186.9 31.3644 187.419 32.3839C187.938 33.3806 188.41 34.0943 188.836 34.5247V34.5926H182.557V34.5247C182.853 34.2528 183.001 33.7318 183.001 32.9615C183.001 32.2366 182.853 31.3644 182.557 30.345L182.307 29.5295H175.138L174.888 30.345C174.592 31.2738 174.444 32.1347 174.444 32.9276C174.444 33.7205 174.574 34.2528 174.833 34.5247V34.5926H168.998V34.5247C169.424 34.0716 169.887 33.3467 170.387 32.3499C170.906 31.3531 171.341 30.2431 171.693 29.0197L175.666 15.0195C175.833 14.4078 175.916 13.8528 175.916 13.3544C175.916 12.8334 175.842 12.369 175.694 11.9612C175.546 11.5534 175.37 11.2476 175.166 11.0437V10.9757H182.529V11.0437C182.325 11.2702 182.149 11.5874 182.001 11.9952C181.853 12.3803 181.779 12.8334 181.779 13.3544C181.779 13.8528 181.862 14.4078 182.029 15.0195L186.113 29.0197ZM178.639 15.4952C178.528 16.6506 178.352 17.7493 178.111 18.7914C177.871 19.8108 177.528 21.0795 177.083 22.5973L176.055 26.1993H181.39L180.362 22.5973C179.899 20.9662 179.547 19.6636 179.306 18.6895C179.065 17.7153 178.88 16.6506 178.75 15.4952H178.639Z" fill="white"/>
<path d="M189.969 34.5247C190.377 34.1849 190.729 33.5845 191.025 32.7237C191.321 31.8628 191.469 30.7868 191.469 29.4955V15.903C191.469 14.9062 191.34 13.9548 191.08 13.0486C190.821 12.1198 190.451 11.4515 189.969 11.0437V10.9757H196.276C196.313 11.3609 196.406 11.7913 196.554 12.267C196.702 12.7201 196.989 13.3771 197.415 14.2379L201.416 22.4614C202.194 24.0698 203.046 26.3126 203.972 29.1896H204.083C203.787 27.1281 203.639 24.7947 203.639 22.1895V16.0729C203.639 14.759 203.5 13.6716 203.222 12.8107C202.963 11.9499 202.629 11.3609 202.222 11.0437V10.9757H208.64V11.0437C208.233 11.3609 207.881 11.9612 207.584 12.8447C207.288 13.7056 207.14 14.7816 207.14 16.0729V29.4955C207.14 30.7868 207.288 31.8742 207.584 32.7577C207.881 33.6185 208.233 34.2075 208.64 34.5247V34.5926H202.778C202.444 33.6185 201.981 32.5424 201.388 31.3644L197.471 23.5827C196.822 22.2915 196.285 21.0795 195.859 19.9468C195.433 18.7914 195.007 17.4208 194.581 15.835H194.47C194.674 17.3076 194.804 18.6328 194.859 19.8108C194.933 20.9889 194.97 22.2915 194.97 23.7187V29.4955C194.97 30.8094 195.1 31.8968 195.359 32.7577C195.637 33.6185 195.98 34.2075 196.387 34.5247V34.5926H189.969V34.5247Z" fill="white"/>
<path d="M76.1613 58.6502C76.1682 59.2807 75.9797 59.7673 75.5959 60.11C75.2121 60.4527 74.7049 60.624 74.0744 60.624H71.9361C71.8676 60.624 71.8333 60.5898 71.8333 60.5212V53.5306C71.8333 53.4621 71.8676 53.4278 71.9361 53.4278H73.9613C74.6261 53.4278 75.147 53.5923 75.5239 53.9213C75.9009 54.2434 76.0894 54.7163 76.0894 55.34C76.0894 56.0733 75.7878 56.5839 75.1847 56.8717C75.1504 56.8923 75.1504 56.9094 75.1847 56.9231C75.5 57.0876 75.7398 57.3138 75.9043 57.6016C76.0757 57.8895 76.1613 58.239 76.1613 58.6502ZM72.8613 54.2811C72.8339 54.2811 72.8202 54.2948 72.8202 54.3222V56.4913C72.8202 56.5188 72.8339 56.5325 72.8613 56.5325H73.9716C74.328 56.5325 74.6056 56.4365 74.8043 56.2446C75.0099 56.0459 75.1127 55.7752 75.1127 55.4325C75.1127 55.0692 75.0099 54.7882 74.8043 54.5895C74.6056 54.3839 74.328 54.2811 73.9716 54.2811H72.8613ZM74.0333 59.7605C74.3897 59.7605 74.6673 59.6542 74.866 59.4418C75.0716 59.2225 75.1744 58.9243 75.1744 58.5474C75.1744 58.1705 75.0716 57.8723 74.866 57.653C74.6604 57.4269 74.3794 57.3138 74.023 57.3138H72.8613C72.8339 57.3138 72.8202 57.3275 72.8202 57.3549V59.7194C72.8202 59.7468 72.8339 59.7605 72.8613 59.7605H74.0333ZM78.5159 60.624C78.4474 60.624 78.4131 60.5898 78.4131 60.5212V53.5306C78.4131 53.4621 78.4474 53.4278 78.5159 53.4278H79.2972C79.3657 53.4278 79.4 53.4621 79.4 53.5306V60.5212C79.4 60.5898 79.3657 60.624 79.2972 60.624H78.5159ZM83.8024 60.7063C83.3638 60.7063 82.9765 60.6275 82.6407 60.4698C82.3117 60.3053 82.0547 60.0792 81.8697 59.7913C81.6915 59.5035 81.6024 59.1676 81.6024 58.7839V58.5063C81.6024 58.4377 81.6367 58.4035 81.7052 58.4035H82.4659C82.5345 58.4035 82.5687 58.4377 82.5687 58.5063V58.7325C82.5687 59.0683 82.6818 59.339 82.908 59.5446C83.141 59.7502 83.4529 59.853 83.8435 59.853C84.193 59.853 84.4672 59.7605 84.6659 59.5754C84.8715 59.3835 84.9743 59.1334 84.9743 58.825C84.9743 58.6194 84.9229 58.4412 84.8201 58.2904C84.7173 58.1396 84.5666 57.9991 84.3678 57.8689C84.1759 57.7387 83.8949 57.5742 83.5248 57.3755C83.1067 57.1561 82.7709 56.9608 82.5173 56.7895C82.2706 56.6181 82.065 56.4023 81.9005 56.1418C81.736 55.8814 81.6538 55.5661 81.6538 55.196C81.6538 54.6203 81.8423 54.168 82.2192 53.839C82.5962 53.5101 83.0965 53.3456 83.7201 53.3456C84.1519 53.3456 84.5323 53.4278 84.8613 53.5923C85.1902 53.7568 85.4438 53.9898 85.622 54.2914C85.807 54.5861 85.8996 54.9287 85.8996 55.3194V55.5558C85.8996 55.6244 85.8653 55.6586 85.7968 55.6586H85.0257C84.9572 55.6586 84.9229 55.6244 84.9229 55.5558V55.34C84.9229 55.0041 84.8133 54.73 84.594 54.5175C84.3747 54.3051 84.0765 54.1988 83.6996 54.1988C83.3638 54.1988 83.0999 54.2845 82.908 54.4559C82.723 54.6272 82.6304 54.8705 82.6304 55.1858C82.6304 55.3914 82.675 55.5661 82.7641 55.71C82.86 55.854 83.0039 55.991 83.1958 56.1213C83.3877 56.2446 83.6722 56.4023 84.0491 56.5942C84.522 56.8614 84.8784 57.0808 85.1183 57.2521C85.365 57.4234 85.5637 57.6325 85.7145 57.8792C85.8721 58.1259 85.951 58.424 85.951 58.7736C85.951 59.363 85.7556 59.8324 85.365 60.182C84.9812 60.5315 84.4603 60.7063 83.8024 60.7063ZM92.0283 53.4278C92.0968 53.4278 92.1311 53.4621 92.1311 53.5306V54.1886C92.1311 54.2571 92.0968 54.2914 92.0283 54.2914H90.3732C90.3458 54.2914 90.3321 54.3051 90.3321 54.3325V60.5212C90.3321 60.5898 90.2978 60.624 90.2292 60.624H89.4479C89.3794 60.624 89.3451 60.5898 89.3451 60.5212V54.3325C89.3451 54.3051 89.3314 54.2914 89.304 54.2914H87.7209C87.6523 54.2914 87.6181 54.2571 87.6181 54.1886V53.5306C87.6181 53.4621 87.6523 53.4278 87.7209 53.4278H92.0283ZM97.7219 60.624C97.6671 60.624 97.6294 60.5966 97.6088 60.5418L96.4163 57.4783C96.4094 57.4577 96.3957 57.4474 96.3752 57.4474H95.2752C95.2478 57.4474 95.2341 57.4611 95.2341 57.4885V60.5212C95.2341 60.5898 95.1998 60.624 95.1313 60.624H94.35C94.2814 60.624 94.2472 60.5898 94.2472 60.5212V53.5306C94.2472 53.4621 94.2814 53.4278 94.35 53.4278H96.6527C97.2284 53.4278 97.691 53.6163 98.0406 53.9932C98.3901 54.3702 98.5649 54.8636 98.5649 55.4736C98.5649 55.9328 98.4586 56.3269 98.2462 56.6558C98.0337 56.9848 97.7424 57.211 97.3724 57.3343C97.3518 57.3412 97.3449 57.3583 97.3518 57.3857L98.606 60.5007L98.6163 60.5418C98.6163 60.5966 98.5854 60.624 98.5238 60.624H97.7219ZM95.2752 54.2811C95.2478 54.2811 95.2341 54.2948 95.2341 54.3222V56.625C95.2341 56.6524 95.2478 56.6661 95.2752 56.6661H96.5191C96.8344 56.6661 97.0879 56.5599 97.2798 56.3474C97.4786 56.1281 97.578 55.8403 97.578 55.4839C97.578 55.1206 97.482 54.8294 97.2901 54.6101C97.0982 54.3907 96.8412 54.2811 96.5191 54.2811H95.2752ZM102.792 60.7165C102.354 60.7165 101.966 60.6275 101.63 60.4493C101.302 60.2642 101.045 60.0072 100.859 59.6782C100.674 59.3493 100.582 58.9689 100.582 58.5371V55.5147C100.582 55.0898 100.674 54.7129 100.859 54.3839C101.045 54.0549 101.302 53.8013 101.63 53.6231C101.966 53.4381 102.354 53.3456 102.792 53.3456C103.231 53.3456 103.618 53.4381 103.954 53.6231C104.29 53.8013 104.55 54.0549 104.735 54.3839C104.92 54.7129 105.013 55.0898 105.013 55.5147V58.5371C105.013 58.9689 104.92 59.3493 104.735 59.6782C104.55 60.0072 104.29 60.2642 103.954 60.4493C103.618 60.6275 103.231 60.7165 102.792 60.7165ZM102.792 59.853C103.162 59.853 103.46 59.7365 103.687 59.5035C103.913 59.2705 104.026 58.962 104.026 58.5782V55.4942C104.026 55.1104 103.913 54.7985 103.687 54.5587C103.46 54.3188 103.162 54.1988 102.792 54.1988C102.429 54.1988 102.134 54.3188 101.908 54.5587C101.682 54.7985 101.569 55.1104 101.569 55.4942V58.5782C101.569 58.9552 101.682 59.2636 101.908 59.5035C102.134 59.7365 102.429 59.853 102.792 59.853ZM111.336 53.4278C111.404 53.4278 111.439 53.4621 111.439 53.5306V54.1886C111.439 54.2571 111.404 54.2914 111.336 54.2914H109.681C109.653 54.2914 109.64 54.3051 109.64 54.3325V60.5212C109.64 60.5898 109.605 60.624 109.537 60.624H108.756C108.687 60.624 108.653 60.5898 108.653 60.5212V54.3325C108.653 54.3051 108.639 54.2914 108.612 54.2914H107.029C106.96 54.2914 106.926 54.2571 106.926 54.1886V53.5306C106.926 53.4621 106.96 53.4278 107.029 53.4278H111.336Z" fill="white"/>
<ellipse cx="121.826" cy="56.6241" rx="1.16569" ry="1.20172" fill="white"/>
<path d="M134.673 53.4175C135.256 53.4175 135.722 53.6094 136.071 53.9932C136.428 54.3702 136.606 54.8705 136.606 55.4942C136.606 56.1041 136.428 56.5976 136.071 56.9745C135.722 57.3446 135.256 57.5297 134.673 57.5297H133.296C133.268 57.5297 133.255 57.5434 133.255 57.5708V60.5212C133.255 60.5898 133.22 60.624 133.152 60.624H132.37C132.302 60.624 132.268 60.5898 132.268 60.5212V53.5203C132.268 53.4518 132.302 53.4175 132.37 53.4175H134.673ZM134.529 56.7381C134.858 56.7381 135.122 56.6284 135.321 56.4091C135.527 56.1829 135.629 55.8848 135.629 55.5147C135.629 55.1378 135.527 54.8362 135.321 54.6101C135.122 54.3839 134.858 54.2708 134.529 54.2708H133.296C133.268 54.2708 133.255 54.2845 133.255 54.3119V56.697C133.255 56.7244 133.268 56.7381 133.296 56.7381H134.529ZM141.964 60.624C141.903 60.624 141.865 60.5932 141.851 60.5315L141.543 59.339C141.536 59.3184 141.519 59.3081 141.492 59.3081H139.22C139.185 59.3081 139.168 59.3184 139.168 59.339L138.87 60.5315C138.863 60.5932 138.825 60.624 138.757 60.624H137.955C137.921 60.624 137.893 60.6137 137.873 60.5932C137.859 60.5726 137.856 60.5452 137.863 60.5109L139.764 53.5203C139.778 53.4587 139.816 53.4278 139.878 53.4278H140.844C140.906 53.4278 140.943 53.4587 140.957 53.5203L142.869 60.5109L142.879 60.5418C142.879 60.5966 142.845 60.624 142.777 60.624H141.964ZM139.384 58.4857C139.377 58.4926 139.377 58.5029 139.384 58.5166C139.398 58.5234 139.411 58.5268 139.425 58.5268H141.286C141.3 58.5268 141.31 58.5234 141.317 58.5166C141.33 58.5029 141.334 58.4926 141.327 58.4857L140.371 54.7643C140.364 54.7506 140.357 54.7437 140.35 54.7437C140.344 54.7437 140.337 54.7506 140.33 54.7643L139.384 58.4857ZM148.351 60.624C148.296 60.624 148.258 60.5966 148.237 60.5418L147.045 57.4783C147.038 57.4577 147.024 57.4474 147.004 57.4474H145.904C145.876 57.4474 145.863 57.4611 145.863 57.4885V60.5212C145.863 60.5898 145.828 60.624 145.76 60.624H144.979C144.91 60.624 144.876 60.5898 144.876 60.5212V53.5306C144.876 53.4621 144.91 53.4278 144.979 53.4278H147.281C147.857 53.4278 148.32 53.6163 148.669 53.9932C149.019 54.3702 149.194 54.8636 149.194 55.4736C149.194 55.9328 149.087 56.3269 148.875 56.6558C148.662 56.9848 148.371 57.211 148.001 57.3343C147.98 57.3412 147.974 57.3583 147.98 57.3857L149.235 60.5007L149.245 60.5418C149.245 60.5966 149.214 60.624 149.152 60.624H148.351ZM145.904 54.2811C145.876 54.2811 145.863 54.2948 145.863 54.3222V56.625C145.863 56.6524 145.876 56.6661 145.904 56.6661H147.148C147.463 56.6661 147.717 56.5599 147.909 56.3474C148.107 56.1281 148.207 55.8403 148.207 55.4839C148.207 55.1206 148.111 54.8294 147.919 54.6101C147.727 54.3907 147.47 54.2811 147.148 54.2811H145.904ZM151.488 60.624C151.42 60.624 151.385 60.5898 151.385 60.5212V53.5306C151.385 53.4621 151.42 53.4278 151.488 53.4278H152.269C152.338 53.4278 152.372 53.4621 152.372 53.5306V60.5212C152.372 60.5898 152.338 60.624 152.269 60.624H151.488ZM156.775 60.7063C156.336 60.7063 155.949 60.6275 155.613 60.4698C155.284 60.3053 155.027 60.0792 154.842 59.7913C154.664 59.5035 154.575 59.1676 154.575 58.7839V58.5063C154.575 58.4377 154.609 58.4035 154.677 58.4035H155.438C155.507 58.4035 155.541 58.4377 155.541 58.5063V58.7325C155.541 59.0683 155.654 59.339 155.88 59.5446C156.113 59.7502 156.425 59.853 156.816 59.853C157.165 59.853 157.439 59.7605 157.638 59.5754C157.844 59.3835 157.947 59.1334 157.947 58.825C157.947 58.6194 157.895 58.4412 157.792 58.2904C157.69 58.1396 157.539 57.9991 157.34 57.8689C157.148 57.7387 156.867 57.5742 156.497 57.3755C156.079 57.1561 155.743 56.9608 155.49 56.7895C155.243 56.6181 155.037 56.4023 154.873 56.1418C154.708 55.8814 154.626 55.5661 154.626 55.196C154.626 54.6203 154.814 54.168 155.191 53.839C155.568 53.5101 156.069 53.3456 156.692 53.3456C157.124 53.3456 157.505 53.4278 157.833 53.5923C158.162 53.7568 158.416 53.9898 158.594 54.2914C158.779 54.5861 158.872 54.9287 158.872 55.3194V55.5558C158.872 55.6244 158.838 55.6586 158.769 55.6586H157.998C157.929 55.6586 157.895 55.6244 157.895 55.5558V55.34C157.895 55.0041 157.785 54.73 157.566 54.5175C157.347 54.3051 157.049 54.1988 156.672 54.1988C156.336 54.1988 156.072 54.2845 155.88 54.4559C155.695 54.6272 155.603 54.8705 155.603 55.1858C155.603 55.3914 155.647 55.5661 155.736 55.71C155.832 55.854 155.976 55.991 156.168 56.1213C156.36 56.2446 156.644 56.4023 157.021 56.5942C157.494 56.8614 157.851 57.0808 158.09 57.2521C158.337 57.4234 158.536 57.6325 158.687 57.8792C158.844 58.1259 158.923 58.424 158.923 58.7736C158.923 59.363 158.728 59.8324 158.337 60.182C157.953 60.5315 157.433 60.7063 156.775 60.7063Z" fill="white"/>
</svg>
