<svg width="72" height="72" viewBox="0 0 72 72" fill="none" xmlns="http://www.w3.org/2000/svg">
<path d="M15.6915 26.5862C15.713 26.1163 15.7094 25.6463 15.6735 25.1727C15.6376 24.7027 15.5982 24.2328 15.5515 23.7592C15.5264 23.6399 15.4977 23.4519 15.4654 23.1952C15.4295 22.9349 15.4115 22.7831 15.4115 22.7361C15.4115 22.7144 15.3864 22.6602 15.3397 22.577C15.2931 22.4939 15.2679 22.4433 15.2679 22.418L15.3397 22.3457C15.4115 22.2734 15.433 22.2408 15.4115 22.2408V15.4263H15.2715C14.9916 15.7553 14.6649 16.1096 14.2916 16.4855C13.9183 16.8615 13.4733 17.0495 12.96 17.0495C12.5867 17.0495 12.2278 16.9193 11.8904 16.6627C11.553 16.4024 11.3807 16.0626 11.3807 15.6396V15.5673C11.3807 15.5456 11.3914 15.5094 11.4166 15.4624C11.4381 15.4155 11.4632 15.3685 11.4884 15.3215C11.5099 15.2492 11.535 15.1913 11.5601 15.1443L15.4869 11.6846V9.7433C15.4869 9.50832 15.6269 9.32394 15.9068 9.19741C16.1868 9.06727 16.4201 9.0022 16.6068 9.0022C16.9119 9.0022 17.1918 9.07811 17.4467 9.22995C17.7051 9.38179 17.9599 9.4577 18.2184 9.4577C18.4517 9.4577 18.6635 9.3854 18.8501 9.24441C19.0367 9.10342 19.2234 8.97328 19.41 8.85759C20.2966 8.31532 21.1581 7.90319 21.9872 7.62121C22.8163 7.33923 23.746 7.19824 24.7725 7.19824C25.2176 7.19824 25.7488 7.23801 26.3662 7.32116C26.9836 7.40431 27.5794 7.54891 28.1537 7.7622C28.7244 7.9755 29.2125 8.26832 29.6074 8.6443C30.0058 9.02027 30.2032 9.5047 30.2032 10.0904C30.2032 11.1496 29.9914 12.1618 29.5715 13.1271C29.1515 14.0923 28.5665 14.9527 27.8199 15.7047C26.84 16.6446 25.9211 17.4869 25.0668 18.228C24.2126 18.9691 23.2614 19.7175 22.2097 20.4694C22.1846 20.4947 22.1631 20.5236 22.1379 20.5562C22.1128 20.5923 22.0913 20.6213 22.0662 20.6429L18.667 23.0072C18.5486 23.1012 18.4912 23.2711 18.4912 23.5206V23.9978C18.4912 24.6811 18.5307 25.3571 18.6132 26.0295C18.6958 26.7019 18.7819 27.3779 18.8752 28.0612C18.9686 28.7445 19.0547 29.4277 19.1373 30.1074C19.2198 30.7906 19.2593 31.4739 19.2593 32.1535C19.2593 32.5295 19.1731 32.8657 18.9973 33.1586C18.8214 33.4514 18.5127 33.5996 18.0676 33.5996C17.741 33.5996 17.3964 33.4658 17.0339 33.1947C16.6714 32.9236 16.4668 32.6127 16.4201 32.2584L15.6843 26.5754L15.6915 26.5862ZM18.4948 19.7717L24.873 14.866C25.153 14.6527 25.4401 14.3779 25.7309 14.0381C26.0216 13.6983 26.2908 13.3331 26.5385 12.9427C26.7861 12.5523 26.9871 12.1474 27.1523 11.7244C27.3174 11.3014 27.3963 10.9001 27.3963 10.5242C27.3963 10.2892 27.2958 10.1048 27.0984 9.97828C26.901 9.84814 26.6713 9.75415 26.4164 9.6963C26.158 9.63846 25.896 9.60954 25.6268 9.60954H24.9771C23.9254 9.60954 22.9599 9.85175 22.0841 10.3326C21.2083 10.8134 20.372 11.3267 19.5787 11.869C19.5321 11.916 19.4388 11.9811 19.2988 12.0642C19.1588 12.1474 19.0188 12.2414 18.8788 12.3462C18.7388 12.451 18.6168 12.5523 18.5091 12.6463C18.405 12.7402 18.3512 12.8234 18.3512 12.8921V19.5982L18.4912 19.7753L18.4948 19.7717Z" fill="#EED5BA"/>
<path d="M26.9225 19.5762C27.1092 19.3159 27.2779 19.146 27.4322 19.0629C27.583 18.9797 27.8019 18.9399 28.0819 18.9399C28.4552 18.9399 28.8105 19.0448 29.1515 19.2581C29.4889 19.4714 29.6828 19.775 29.7294 20.1763C29.8227 20.8343 29.8766 21.4995 29.8873 22.1719C29.8981 22.8443 29.8981 23.5131 29.8873 24.1855C29.8766 24.8579 29.8622 25.5267 29.8515 26.1991C29.8407 26.8716 29.8586 27.5367 29.9053 28.1947C29.9986 29.7962 30.1458 31.4556 30.3432 33.1727C30.5406 34.8899 30.6411 36.5493 30.6411 38.1508C30.6411 38.6208 30.5478 38.975 30.3611 39.21C30.1745 39.445 29.812 39.5643 29.2736 39.5643C28.8285 39.5643 28.4911 39.4125 28.2578 39.1052C28.0245 38.7979 27.8558 38.4328 27.7481 38.0098C27.6404 37.5868 27.5794 37.1566 27.5543 36.7228C27.5291 36.289 27.5184 35.9419 27.5184 35.6816C27.5184 35.4937 27.5004 35.0996 27.4645 34.4995C27.4286 33.8994 27.3928 33.1944 27.3604 32.381C27.3281 31.5676 27.2851 30.7108 27.2384 29.8034C27.1917 28.896 27.1451 28.0392 27.0984 27.2258C27.0518 26.4124 27.0123 25.7075 26.9764 25.1074C26.9405 24.5073 26.9225 24.1132 26.9225 23.9252V19.5834V19.5762Z" fill="#EED5BA"/>
<path d="M34.5894 33.8778C34.3561 32.9378 34.1802 32.0485 34.0654 31.2134C33.9469 30.3783 33.868 29.489 33.8213 28.5491C33.7962 28.0068 33.7962 27.5441 33.8213 27.1536C33.8428 26.7668 33.7962 26.3366 33.6813 25.8666C33.6562 25.7726 33.6059 25.704 33.5234 25.6533C33.4408 25.6063 33.3583 25.5485 33.2793 25.4762C33.1967 25.4039 33.1214 25.3171 33.0532 25.2123C32.985 25.1075 32.9491 24.9375 32.9491 24.6989C32.9491 24.511 32.9886 24.3447 33.0711 24.2037C33.1537 24.0627 33.2362 23.9289 33.3152 23.7988C33.3978 23.6686 33.4803 23.5276 33.5593 23.3758C33.6418 23.224 33.6813 23.0396 33.6813 22.8299V22.3021C33.6813 22.0671 33.6562 21.6658 33.6095 21.1019C33.5629 20.5379 33.5162 19.9378 33.4695 19.3015C33.4229 18.6653 33.3834 18.0652 33.3475 17.5012C33.3116 16.9372 33.2829 16.5468 33.2614 16.3371C33.2362 15.9359 33.1321 15.5852 32.9455 15.2779C32.7589 14.9706 32.6655 14.6199 32.6655 14.2187C32.6655 13.4667 32.8163 12.9353 33.1214 12.6316C33.4265 12.3243 33.9613 12.1725 34.733 12.1725C34.8981 12.1725 35.0309 12.2448 35.135 12.3858C35.2391 12.5268 35.3611 12.5991 35.5047 12.5991H35.6447C35.7165 12.5774 35.8206 12.5449 35.9605 12.5123C36.1005 12.4798 36.1939 12.4581 36.2405 12.4581C38.2039 11.6121 39.7329 10.9506 40.8313 10.4806C41.9296 10.0106 42.7588 9.6672 43.3187 9.45752C43.8786 9.24784 44.2591 9.12855 44.4565 9.10324C44.6539 9.08155 44.8262 9.10324 44.9662 9.17554C45.2462 9.22254 45.44 9.31292 45.5441 9.43945C45.6482 9.56959 45.702 9.76481 45.702 10.0215C45.702 10.2565 45.6661 10.4915 45.5979 10.7264C45.5261 10.9614 45.3646 11.1386 45.1062 11.2542L40.5154 13.4776L40.3754 13.6185L36.5205 15.2779C36.3805 15.3249 36.2979 15.4442 36.2764 15.6322C36.2513 15.8202 36.2405 15.972 36.2405 16.0913C36.2405 16.2793 36.2621 16.6191 36.3123 17.1144C36.359 17.6097 36.4056 18.1194 36.4523 18.6508C36.4989 19.1786 36.5528 19.6522 36.6102 20.0643C36.6676 20.4765 36.7107 20.6825 36.7323 20.6825H36.7681L36.804 20.6464C37.0625 20.4584 37.4717 20.133 38.0316 19.6739C38.5915 19.2148 39.1658 18.752 39.7509 18.2785C40.336 17.8085 40.8492 17.3891 41.2943 17.024C41.7394 16.6589 41.9727 16.4781 41.9942 16.4781C42.2527 16.4781 42.486 16.6083 42.6942 16.8649C42.9059 17.1252 43.01 17.3928 43.01 17.6783C43.01 17.9639 42.9526 18.2785 42.8341 18.6327C42.7157 18.987 42.529 19.2582 42.2742 19.4462L36.8076 24.3519C36.8076 24.5869 36.8005 24.7749 36.7897 24.9159C36.7789 25.0568 36.7717 25.2051 36.7717 25.3569V25.7293C36.7717 26.5752 36.8292 27.4175 36.9476 28.2526C37.0661 29.0877 37.1235 29.93 37.1235 30.776H37.2635C37.285 30.776 37.3927 30.682 37.5793 30.494C37.766 30.306 37.906 30.1542 37.9993 30.0349C38.046 29.9626 38.1572 29.8108 38.3331 29.5758C38.509 29.3408 38.8069 28.954 39.2268 28.4117C39.6468 27.8694 40.2067 27.1536 40.9103 26.2571C41.6102 25.3641 42.5111 24.2326 43.6094 22.8661C43.7028 22.7721 43.8356 22.6311 44.0114 22.4431C44.1873 22.2551 44.2986 22.1611 44.3453 22.1611C44.417 22.0888 44.5606 22.0599 44.7832 22.0744C45.0057 22.0852 45.1636 22.1141 45.2569 22.1611C45.3754 22.2081 45.5261 22.3383 45.7128 22.5479C45.8994 22.7612 45.9928 22.9601 45.9928 23.1481C45.9928 23.43 45.8456 23.8024 45.5549 24.2615C45.2641 24.7206 44.9195 25.1978 44.5211 25.6931C44.1227 26.1884 43.7279 26.6656 43.3295 27.1247C42.9311 27.5838 42.6295 27.9526 42.4178 28.2382C42.0911 28.7551 41.6999 29.3842 41.2441 30.1253C40.7882 30.8664 40.2929 31.5713 39.7545 32.2437C39.2161 32.9162 38.6274 33.491 37.9849 33.9754C37.3424 34.4562 36.6569 34.6984 35.9354 34.6984C35.5837 34.6984 35.3324 34.6406 35.1817 34.5213C35.0309 34.402 34.8371 34.1923 34.6038 33.885L34.5894 33.8778Z" fill="#EED5BA"/>
<path d="M46.5707 30.8267C46.5707 29.3915 46.5994 27.949 46.6568 26.503C46.7142 25.0569 46.7788 23.6072 46.8506 22.1612C46.9224 20.7151 46.9727 19.2655 47.0086 17.8194C47.0445 16.3733 47.0373 14.9309 46.9906 13.4957C47.0624 13.2354 47.188 13.0438 47.3747 12.9137C47.5613 12.7835 47.7839 12.7184 48.0423 12.7184C48.534 12.7184 48.9073 12.8052 49.1622 12.9823C49.4206 13.1595 49.6072 13.4017 49.7221 13.7054C49.8405 14.0127 49.9087 14.3525 49.9339 14.7285C49.9554 15.1044 49.9805 15.4804 50.0057 15.8564C50.2856 16.3733 50.6194 16.8758 51.0035 17.3567C51.3876 17.8375 51.7321 18.3291 52.0372 18.8208C52.0372 18.8461 52.0552 18.8967 52.0911 18.9799C52.127 19.063 52.1557 19.1028 52.1772 19.1028C52.3172 19.3161 52.4967 19.5908 52.7192 19.9306C52.9417 20.2705 53.1571 20.6031 53.3689 20.9176C53.5806 21.2321 53.8355 21.6298 54.1406 22.0997L54.2806 22.2769L56.3121 25.2413C56.4055 25.3353 56.488 25.3823 56.5562 25.3823H56.628C56.3229 22.8878 56.0788 20.3392 55.8922 17.7399C55.7055 15.1406 55.6122 12.5666 55.6122 10.0252V8.2682C55.7989 7.96092 56.1147 7.80908 56.5598 7.80908C57.0049 7.80908 57.3315 7.91392 57.5397 8.12721C57.7479 8.34051 57.8914 8.60441 57.9596 8.92254C58.0278 9.24068 58.0637 9.5805 58.0637 9.94563C58.0637 10.3108 58.0745 10.647 58.0996 10.9506C58.0996 10.9759 58.1104 11.0157 58.1355 11.0736C58.1571 11.1314 58.1894 11.2615 58.2217 11.4604C58.2576 11.6592 58.2935 11.9665 58.3258 12.3786C58.3617 12.7907 58.4083 13.3619 58.4657 14.0922C58.5232 14.8224 58.5842 15.7407 58.6416 16.8469C58.699 17.9532 58.7744 19.3052 58.8678 20.9067V21.543L60.0594 29.4168C60.0809 29.6047 60.1814 29.894 60.3573 30.2808C60.5332 30.6676 60.6193 30.9677 60.6193 31.181C60.6193 31.6762 60.4794 32.0775 60.1994 32.3812C59.9194 32.6885 59.521 32.8403 59.0077 32.8403C58.9359 32.8403 58.8426 32.8114 58.7278 32.7535C58.6093 32.6957 58.4945 32.6306 58.376 32.5583C58.2576 32.486 58.1499 32.4101 58.0422 32.3306C57.9381 32.2474 57.8627 32.1823 57.8161 32.1353L52.1736 24.0519C52.1485 24.0519 52.127 24.0121 52.1018 23.929C52.0767 23.8458 52.0552 23.7808 52.03 23.7338C51.8901 23.5205 51.7034 23.2566 51.4701 22.9384C51.2368 22.6203 51.0143 22.3022 50.8025 21.984C50.5907 21.6659 50.4041 21.3912 50.2426 21.1562C50.0774 20.9212 49.9985 20.791 49.9985 20.7694L49.8226 20.6284C49.7042 22.8661 49.6108 25.1184 49.5426 27.3887C49.4708 29.659 49.4708 31.9257 49.5426 34.1851C49.496 34.4671 49.3488 34.7129 49.1047 34.9262C48.8607 35.1395 48.6094 35.2444 48.351 35.2444C47.8844 35.2444 47.5147 35.1215 47.2455 34.872C46.9763 34.6262 46.7501 34.3008 46.5635 33.8995V30.8267H46.5707Z" fill="#EED5BA"/>
<path d="M12.9169 53.3705C12.9169 51.9353 12.9456 50.4929 13.0031 49.0468C13.0605 47.6008 13.1251 46.1511 13.1969 44.705C13.2687 43.259 13.3189 41.8093 13.3548 40.3632C13.3907 38.9172 13.3835 37.4748 13.3369 36.0395C13.4086 35.7793 13.5343 35.5877 13.7209 35.4575C13.9076 35.3274 14.1301 35.2623 14.3885 35.2623C14.8803 35.2623 15.2536 35.3491 15.5084 35.5262C15.7668 35.7033 15.9535 35.9455 16.0684 36.2492C16.1868 36.5565 16.255 36.8963 16.2801 37.2723C16.3017 37.6483 16.3268 38.0243 16.3519 38.4002C16.6319 38.9172 16.9657 39.4197 17.3497 39.9005C17.7338 40.3813 18.0784 40.873 18.3835 41.3646C18.3835 41.3899 18.4014 41.4406 18.4373 41.5237C18.4732 41.6069 18.5019 41.6466 18.5235 41.6466C18.6634 41.8599 18.8429 42.1347 19.0655 42.4745C19.288 42.8143 19.5034 43.1469 19.7151 43.4614C19.9269 43.7759 20.1817 44.1736 20.4868 44.6436L20.6268 44.8207L22.6584 47.7851C22.7517 47.8791 22.8343 47.9261 22.9025 47.9261H22.9742C22.6692 45.4317 22.4251 42.883 22.2384 40.2837C22.0518 37.6844 21.9585 35.1105 21.9585 32.569V30.8048C22.1451 30.4975 22.461 30.3457 22.9061 30.3457C23.3511 30.3457 23.6778 30.4505 23.8859 30.6638C24.0941 30.8771 24.2377 31.141 24.3059 31.4592C24.3741 31.7773 24.41 32.1171 24.41 32.4822C24.41 32.8474 24.4208 33.1836 24.4459 33.4873C24.4459 33.5126 24.4566 33.5523 24.4818 33.6102C24.5033 33.668 24.5356 33.7982 24.5679 33.997C24.6038 34.1958 24.6397 34.5031 24.672 34.9152C24.7079 35.3274 24.7546 35.8986 24.812 36.6288C24.8694 37.3591 24.9304 38.2773 24.9879 39.3835C25.0453 40.4898 25.1207 41.8418 25.214 43.4433V44.0796L26.4057 51.9534C26.4272 52.1414 26.5277 52.4306 26.7036 52.8174C26.8795 53.2042 26.9656 53.5043 26.9656 53.7176C26.9656 54.2128 26.8256 54.6141 26.5456 54.9178C26.2657 55.2251 25.8673 55.3769 25.354 55.3769C25.2822 55.3769 25.1889 55.348 25.074 55.2902C24.9556 55.2323 24.8407 55.1672 24.7223 55.0949C24.6038 55.0226 24.4961 54.9467 24.3885 54.8672C24.2844 54.784 24.209 54.719 24.1623 54.672L18.5199 46.5885C18.4947 46.5885 18.4732 46.5487 18.4481 46.4656C18.423 46.3825 18.4014 46.3174 18.3763 46.2704C18.2363 46.0571 18.0497 45.7932 17.8164 45.4751C17.5831 45.1569 17.3605 44.8388 17.1487 44.5207C16.937 44.2025 16.7503 43.9278 16.5888 43.6928C16.4237 43.4578 16.3447 43.3277 16.3447 43.306L16.1689 43.165C16.0504 45.4028 15.9571 47.655 15.8889 49.9253C15.8171 52.1956 15.8171 54.4623 15.8889 56.7217C15.8422 57.0037 15.6951 57.2496 15.451 57.4629C15.2069 57.6761 14.9557 57.781 14.6972 57.781C14.2306 57.781 13.8609 57.6581 13.5917 57.4086C13.3225 57.1628 13.0964 56.8374 12.9097 56.4361V53.3633L12.9169 53.3705Z" fill="#EED5BA"/>
<path d="M30.5915 54.6923C30.613 54.5513 30.613 54.1753 30.5915 53.5644C30.5664 52.9534 30.5628 52.1942 30.5735 51.2868C30.5843 50.3794 30.6094 49.3853 30.6453 48.3043C30.6812 47.2234 30.7638 46.128 30.8894 45.0218C31.0186 43.9156 31.2053 42.8491 31.4493 41.826C31.6934 40.8029 32.0165 39.9136 32.4149 39.1617C32.5549 38.5254 32.8922 38.0843 33.4307 37.8385C33.9691 37.5927 34.7264 37.4445 35.7099 37.3975C36.3416 37.3975 36.8764 37.5638 37.3215 37.8927C37.7666 38.2217 38.1435 38.6302 38.4593 39.111C38.7752 39.5919 39.048 40.116 39.2813 40.6836C39.5146 41.2476 39.7264 41.7537 39.913 42.202V42.3791C40.0781 42.8491 40.2002 43.5504 40.2827 44.4795C40.3653 45.4086 40.4227 46.3847 40.4586 47.4114C40.4945 48.4381 40.5124 49.4178 40.5124 50.3577V52.5124C40.5124 53.2173 40.4191 54.0596 40.2325 55.0357C40.0458 56.0118 39.7479 56.9373 39.3387 57.8085C38.9295 58.6798 38.3983 59.4209 37.745 60.0318C37.0918 60.6428 36.3093 60.9501 35.3976 60.9501C34.6259 60.9501 33.9439 60.7513 33.3481 60.35C32.7523 59.9487 32.2498 59.439 31.8406 58.8135C31.4314 58.1917 31.1227 57.5121 30.9109 56.7818C30.6992 56.0516 30.5951 55.3575 30.5951 54.6995L30.5915 54.6923ZM33.9906 57.0566C34.0373 57.3169 34.1701 57.5808 34.3926 57.8519C34.6151 58.1231 34.8772 58.2568 35.1823 58.2568H35.4622C36.4421 57.3639 37.0846 56.3336 37.3897 55.1695C37.6948 54.0054 37.8455 52.7763 37.8455 51.4784C37.8455 51.1711 37.8348 50.7012 37.8097 50.0649C37.7845 49.4286 37.745 48.7165 37.6876 47.9284C37.6302 47.1403 37.5512 46.3088 37.4615 45.4411C37.3682 44.5699 37.2497 43.7529 37.1097 42.9865C36.9697 42.2237 36.8046 41.5549 36.618 40.9909C36.4313 40.4269 36.2088 40.0365 35.9504 39.8268C35.9252 39.8521 35.8965 39.8991 35.8642 39.9678C35.8319 40.0365 35.8104 40.0871 35.8104 40.1088C35.3186 40.7198 34.8772 41.5549 34.4787 42.6141C34.0803 43.6733 33.7824 44.9278 33.585 46.3738C33.3876 47.8199 33.305 49.4467 33.3409 51.2471C33.3768 53.0474 33.5922 54.9851 33.9906 57.053V57.0566Z" fill="#EED5BA"/>
<path d="M43.0531 59.3323C43.0531 57.5211 43.0818 55.7208 43.1392 53.9313C43.1966 52.1418 43.2253 50.3306 43.2253 48.4941C43.2253 47.4349 43.1715 46.3756 43.0674 45.3164C42.9633 44.2572 42.9095 43.1979 42.9095 42.1387C42.9095 41.8097 43.01 41.5277 43.2074 41.2928C43.4048 41.0578 43.6704 40.9385 43.9971 40.9385C44.557 40.9385 44.9769 41.0578 45.2605 41.2928C45.5405 41.5277 45.7379 41.8206 45.8563 42.1749C45.9748 42.5291 46.0322 42.9268 46.0322 43.3751V44.6801C46.0322 44.7741 46.0394 45.0091 46.0502 45.3851C46.0609 45.7611 46.0789 46.1696 46.104 46.6034C46.1255 47.0408 46.1435 47.4457 46.1578 47.8217C46.1686 48.1977 46.1758 48.4327 46.1758 48.5267V49.6907C46.1758 51.2199 46.1507 52.7383 46.104 54.2458C46.0573 55.7533 46.0322 57.2825 46.0322 58.837V60.3192C46.0322 60.4385 46.0502 60.5976 46.0861 60.7964C46.1219 60.9953 46.1507 61.0965 46.1722 61.0965H46.4522L54.7579 57.7778C54.9446 57.6151 55.1097 57.5247 55.2497 57.5139C55.3896 57.503 55.5547 57.4958 55.7414 57.4958C55.8598 57.4958 56.0106 57.503 56.1972 57.5139C56.3839 57.5247 56.5669 57.5609 56.7392 57.6187C56.9151 57.6766 57.0659 57.7597 57.1951 57.8646C57.3243 57.9694 57.3889 58.1285 57.3889 58.3418C57.3889 58.884 57.0982 59.354 56.5131 59.7553C55.7665 60.1566 54.9948 60.5253 54.198 60.8687C53.4047 61.2086 52.5971 61.4869 51.7788 61.6966L51.6029 61.8376C50.483 62.1449 49.4349 62.5895 48.4658 63.1788C47.4967 63.7681 46.4845 64.3067 45.4328 64.802H45.1169C44.4852 64.802 44.0186 64.5887 43.7135 64.1657C43.4084 63.7428 43.211 63.2439 43.1177 62.6655C43.0243 62.0907 42.9885 61.4905 43.0136 60.8651C43.0351 60.2433 43.0495 59.73 43.0495 59.3287L43.0531 59.3323Z" fill="#EED5BA"/>
<path d="M49.2806 49.6469C49.3022 49.5059 49.3022 49.1299 49.2806 48.5189C49.2555 47.908 49.2519 47.1488 49.2627 46.2414C49.2734 45.334 49.2986 44.3399 49.3345 43.2589C49.3704 42.178 49.4529 41.0826 49.5785 39.9764C49.7078 38.8701 49.8944 37.8037 50.1385 36.7806C50.3826 35.7575 50.7056 34.8682 51.104 34.1162C51.244 33.48 51.5814 33.0389 52.1198 32.7931C52.6582 32.5473 53.4156 32.399 54.399 32.3521C55.0308 32.3521 55.5656 32.5183 56.0106 32.8473C56.4557 33.1763 56.8326 33.5848 57.1485 34.0656C57.4643 34.5464 57.7371 35.0706 57.9704 35.6382C58.2037 36.2022 58.4155 36.7083 58.6022 37.1566V37.3337C58.7673 37.8037 58.8893 38.505 58.9719 39.4341C59.0544 40.3632 59.1118 41.3393 59.1477 42.366C59.1836 43.3927 59.2016 44.3724 59.2016 45.3123V47.4669C59.2016 48.1719 59.1083 49.0142 58.9216 49.9903C58.735 50.9664 58.437 51.8919 58.0279 52.7631C57.6187 53.6344 57.0875 54.3755 56.4342 54.9864C55.7809 55.5974 54.9985 55.9047 54.0868 55.9047C53.3151 55.9047 52.6331 55.7058 52.0372 55.3046C51.4414 54.9033 50.9389 54.3935 50.5297 53.7681C50.1205 53.1463 49.8119 52.4667 49.6001 51.7364C49.3883 51.0062 49.2842 50.3121 49.2842 49.6541L49.2806 49.6469ZM52.6797 52.0112C52.7264 52.2715 52.8592 52.5354 53.0817 52.8065C53.3043 53.0776 53.5663 53.2114 53.8714 53.2114H54.1514C55.1313 52.3185 55.7738 51.2881 56.0788 50.1241C56.3839 48.96 56.5347 47.7308 56.5347 46.433C56.5347 46.1257 56.5239 45.6558 56.4988 45.0195C56.4737 44.3832 56.4342 43.671 56.3768 42.8829C56.3193 42.0948 56.2404 41.2634 56.1506 40.3957C56.0573 39.5245 55.9389 38.7075 55.7989 37.9411C55.6589 37.1783 55.4938 36.5095 55.3071 35.9455C55.1205 35.3815 54.898 34.9911 54.6395 34.7814C54.6144 34.8067 54.5857 34.8537 54.5534 34.9224C54.5211 34.9911 54.4995 35.0417 54.4995 35.0634C54.0078 35.6744 53.5663 36.5095 53.1679 37.5687C52.7695 38.6279 52.4716 39.8824 52.2741 41.3284C52.0767 42.7745 51.9942 44.4013 52.0301 46.2016C52.066 48.002 52.2813 49.9397 52.6797 52.0076V52.0112Z" fill="#EED5BA"/>
</svg>
