<svg width="98" height="72" viewBox="0 0 98 72" fill="none" xmlns="http://www.w3.org/2000/svg">
<g clip-path="url(#clip0_1042_1622)">
<path d="M61.1705 39.7358C61.1705 43.9373 59.053 46.1383 55.3229 46.1383C51.5927 46.1383 49.4775 43.9373 49.4775 39.7358V29.6055H46.8902V39.7336C46.8902 45.3914 50.0478 48.6103 55.3229 48.6103C60.598 48.6103 63.7556 45.3914 63.7556 39.7336V29.6055H61.1683V39.7336L61.1705 39.7358Z" fill="#DBC7B7"/>
<path d="M30.6869 46.1878C31.7838 46.6681 32.7409 47.426 33.8729 47.8446C35.1163 48.3051 36.4405 48.5232 37.7582 48.5871C38.0488 48.6025 38.3416 48.6091 38.6345 48.6091C43.3042 48.6091 45.8587 46.4081 45.8587 43.154C45.8587 39.3601 42.8694 38.3091 39.1043 37.3618C36.753 36.7867 34.6683 36.2778 34.6683 34.2795C34.6683 32.7549 36.1127 31.7722 38.7 31.7722C40.245 31.7722 42.3296 32.0763 43.7741 32.9245L44.8492 30.7566C42.9 29.536 40.5815 29.1989 38.7 29.1989C34.4323 29.1989 31.9455 31.1972 31.9455 34.3147C31.9455 37.9742 35.1032 39.1243 38.5317 39.9373C40.7148 40.4462 43.136 41.0896 43.136 43.1562C43.136 44.8835 41.6566 46.0688 38.6345 46.0688C36.552 46.0688 34.4673 45.5951 32.7868 44.3746L32.7825 44.3834C31.231 43.469 29.4041 42.9359 27.645 43.5395C27.0397 43.7466 26.4847 44.0727 25.969 44.4495C25.3921 44.8703 24.7846 45.6744 24.0963 45.8485C23.8756 45.9036 23.6417 45.8771 23.4189 45.8265C23.0867 45.7494 22.7567 45.6061 22.5382 45.3418C22.2148 44.9474 22.1427 44.249 22.2126 43.751C22.2345 43.5924 22.2563 43.458 22.2804 43.3457L24.3978 31.3184C23.7488 31.0474 22.9206 30.7764 21.9111 30.5054C20.9255 30.2344 19.7717 30.0978 18.4497 30.0978C16.2994 30.0978 14.383 30.5715 12.7048 31.5211C11.0244 32.4464 9.70231 33.7463 8.74081 35.4163C7.79899 37.0643 7.32917 38.9855 7.32917 41.1755C7.32917 42.6891 7.63073 43.9978 8.23603 45.106C8.29066 45.2052 8.34966 45.2977 8.40648 45.3924C8.44144 45.4497 6.61024 46.2385 6.45072 46.2737C4.74188 46.6527 3.02213 45.8199 3.02213 43.9185C3.02213 43.7378 3.03305 43.5351 3.0549 43.3082C3.07676 43.0592 3.11172 42.7882 3.15542 42.4952L6.45072 23.5234H3.42639L0.135468 42.5635C0.0458741 43.1275 -1.52588e-05 43.7048 -1.52588e-05 44.2908C-1.52588e-05 45.8727 0.469804 47.0581 1.41163 47.849C2.37531 48.6179 3.52909 49.0013 4.873 49.0013C6.8222 49.0013 8.3737 48.1332 10.0541 47.2652C10.2268 47.4018 10.4038 47.5317 10.5917 47.6485C11.5554 48.2346 12.5846 48.5298 13.6838 48.5298C16.2164 48.5298 18.1831 46.6945 19.3959 44.6015C19.2123 44.9165 19.5357 45.9212 19.6559 46.2583C19.857 46.8157 20.1891 47.3246 20.683 47.6573C21.7712 48.3932 23.5609 48.6488 24.8065 48.2852C25.7985 47.9966 26.5066 47.2057 27.3063 46.5954C28.2416 45.8815 29.2402 45.6414 30.3656 46.06C30.4749 46.0997 30.582 46.1437 30.689 46.19L30.6869 46.1878ZM20.1673 38.3642C19.9203 39.8095 19.5183 41.0962 18.9567 42.2264C18.4191 43.3567 17.7701 44.2357 17.0075 44.8681C16.2448 45.5004 15.4057 45.8154 14.4879 45.8154C13.8149 45.8154 13.1659 45.6238 12.5387 45.2404C11.9116 44.8571 11.3958 44.293 10.9938 43.5461C10.6135 42.8015 10.4234 41.8871 10.4234 40.801C10.4234 39.2433 10.7381 37.8531 11.3652 36.6347C12.0143 35.3921 12.9102 34.4205 14.0531 33.7221C15.1959 33.0214 16.5398 32.6711 18.0848 32.6711C18.7338 32.6711 19.2823 32.7174 19.7302 32.8055C20.2 32.8738 20.648 32.9752 21.0741 33.1096L20.1673 38.3598V38.3642Z" fill="#DBC7B7"/>
<path d="M97.8558 38.755C97.8558 33.0289 94.6304 29.0323 88.986 29.0323C83.3416 29.0323 79.948 33.0642 79.948 38.755C79.948 40.9781 80.4375 42.9323 81.399 44.4966C80.7456 44.902 80.3086 45.7039 77.9179 45.9375C75.1755 46.2063 74.1878 44.5495 74.1878 41.7712V31.9471H78.6565V29.4399H74.1878V25.2031H72.1708L71.5655 29.4377L68.362 30.1163V29.4377H65.7747V48.0371H68.362V31.9736L71.5655 31.9471V41.7712C71.5655 46.1071 73.5825 48.5461 77.6142 48.4447C80.4309 48.3742 82.3036 47.0677 83.1537 46.4927C84.703 47.7375 86.8074 48.4447 89.4558 48.4447C92.2791 48.4447 94.8992 47.7331 97.0166 46.3781L95.9087 44.1419C93.8918 45.4638 91.6738 45.9705 89.5585 45.9705C85.3586 45.9705 83.0073 43.666 82.7385 39.839H97.7924C97.8252 39.535 97.8601 39.1604 97.8601 38.755H97.8558ZM82.8041 37.5345C83.0728 33.9102 85.258 31.5043 88.986 31.5043C92.714 31.5043 94.7987 33.9102 95.1024 37.5345H82.8041Z" fill="#DBC7B7"/>
<path d="M68.81 23H65.5518V26.4899H68.81V23Z" fill="#DBC7B7"/>
</g>
<defs>
<clipPath id="clip0_1042_1622">
<rect width="98" height="26" fill="white" transform="translate(0 23)"/>
</clipPath>
</defs>
</svg>
