<svg width="302" height="110" viewBox="0 0 302 110" fill="none" xmlns="http://www.w3.org/2000/svg">
<g clip-path="url(#clip0_612_1822)">
<path d="M12.0025 54.9291C12.0661 53.6305 12.0534 52.3319 11.9516 51.0333C11.8497 49.7347 11.7352 48.4361 11.6079 47.1375C11.5443 46.8065 11.4679 46.2972 11.3661 45.5716C11.2643 44.8586 11.2261 44.4385 11.2261 44.2984C11.2261 44.2348 11.1624 44.0947 11.0352 43.8656C10.9079 43.6364 10.8442 43.4964 10.8442 43.4327L11.0352 43.2417C11.2261 43.0508 11.2897 42.9489 11.2261 42.9489V24.1193H10.8315C10.0551 25.036 9.13868 26.0036 8.09499 27.0475C7.0513 28.0915 5.81668 28.6135 4.39115 28.6135C3.34746 28.6135 2.35467 28.257 1.4128 27.544C0.470935 26.8311 0 25.889 0 24.7177V24.5267C0 24.4631 0.0381839 24.3612 0.101824 24.2339C0.165464 24.1066 0.229104 23.9793 0.292743 23.8392C0.356383 23.6483 0.420023 23.4828 0.483663 23.3555L11.4043 13.7943V8.43438C11.4043 7.78508 11.7988 7.27583 12.5752 6.91935C13.3516 6.56288 14.0008 6.38464 14.5226 6.38464C15.3627 6.38464 16.1518 6.60107 16.8646 7.0212C17.5773 7.44134 18.2901 7.65777 19.0156 7.65777C19.6647 7.65777 20.2502 7.4668 20.7721 7.07213C21.2939 6.67746 21.8157 6.32098 22.3376 6.0027C24.8068 4.51314 27.1997 3.36732 29.5034 2.59071C31.8072 1.8141 34.391 1.41943 37.2548 1.41943C38.4894 1.41943 39.9658 1.53402 41.6968 1.76318C43.4151 1.99234 45.0825 2.39974 46.6735 2.98538C48.2645 3.57102 49.6136 4.38583 50.721 5.42979C51.8283 6.47376 52.3756 7.81054 52.3756 9.42742C52.3756 12.3556 51.7901 15.1438 50.6191 17.8173C49.4482 20.4909 47.819 22.8589 45.7443 24.9341C43.0078 27.5313 40.4622 29.8611 38.0948 31.9109C35.7274 33.9606 33.0673 36.0231 30.1526 38.0983C30.0889 38.1619 30.0253 38.2383 29.9616 38.3402C29.898 38.442 29.8344 38.5184 29.7707 38.5821L20.3138 45.1132C19.9829 45.3679 19.8302 45.8389 19.8302 46.5264V47.8377C19.8302 49.722 19.9447 51.5935 20.1738 53.4522C20.4029 55.311 20.6448 57.1698 20.8993 59.0667C21.1539 60.951 21.4084 62.8352 21.6248 64.7194C21.8539 66.6037 21.9685 68.4879 21.9685 70.3721C21.9685 71.4161 21.7267 72.3455 21.243 73.1475C20.7593 73.9623 19.8938 74.3697 18.6592 74.3697C17.7428 74.3697 16.7882 74.0005 15.7827 73.2494C14.7772 72.4982 14.2044 71.6452 14.0771 70.6649L12.0279 54.9673L12.0025 54.9291ZM19.8047 36.0995L37.5475 22.5406C38.3239 21.955 39.1258 21.1911 39.9404 20.249C40.755 19.3069 41.5059 18.3011 42.1805 17.219C42.8551 16.1368 43.4278 15.0292 43.886 13.8579C44.3443 12.6866 44.5734 11.579 44.5734 10.5478C44.5734 9.89847 44.2933 9.38922 43.746 9.03275C43.1987 8.67627 42.5623 8.40891 41.8496 8.25614C41.1368 8.09063 40.3986 8.01424 39.6604 8.01424H37.853C34.9256 8.01424 32.24 8.67627 29.8089 10.0131C27.3651 11.3498 25.0487 12.763 22.834 14.2526C22.7067 14.3799 22.4394 14.5581 22.0576 14.7873C21.663 15.0165 21.2812 15.2711 20.8866 15.5639C20.492 15.8567 20.1611 16.1368 19.8684 16.3914C19.5756 16.6461 19.4356 16.8752 19.4356 17.0789V35.6157L19.8302 36.0995H19.8047Z" fill="#6C7C59"/>
<path d="M56.3883 11.1654C56.9102 10.4524 57.3811 9.98136 57.8011 9.75219C58.2212 9.52303 58.8194 9.40845 59.6085 9.40845C60.6522 9.40845 61.645 9.70127 62.5869 10.2869C63.5287 10.8725 64.0633 11.7128 64.1906 12.8204C64.4451 14.641 64.5979 16.4743 64.6233 18.3331C64.6488 20.1919 64.6615 22.0379 64.6233 23.8967L64.5215 29.4602C64.4833 31.319 64.5342 33.1523 64.6615 34.9729C64.9161 39.3906 65.3234 43.9866 65.8834 48.7227C66.4307 53.4715 66.7107 58.0547 66.7107 62.4725C66.7107 63.7711 66.4562 64.7514 65.9343 65.4007C65.4125 66.05 64.407 66.381 62.9051 66.381C61.6704 66.381 60.7286 65.9609 60.0795 65.1079C59.4303 64.2676 58.9594 63.2491 58.6666 62.0778C58.3739 60.9065 58.1957 59.7225 58.1321 58.513C58.0684 57.3163 58.0303 56.3487 58.0303 55.6358C58.0303 55.1138 57.9793 54.0316 57.8902 52.3638C57.8011 50.696 57.6993 48.7609 57.5975 46.5074C57.4957 44.254 57.3811 41.886 57.2538 39.3906C57.1266 36.8826 56.9993 34.5146 56.8593 32.2738C56.7193 30.0331 56.6174 28.0853 56.5156 26.4175C56.4138 24.7497 56.3756 23.6675 56.3756 23.1455V11.1526L56.3883 11.1654Z" fill="#6C7C59"/>
<path d="M76.0692 71.0399C75.4201 68.4427 74.9364 65.9856 74.6055 63.6812C74.2746 61.3768 74.0582 58.9197 73.9182 56.3225C73.8546 54.833 73.8546 53.5471 73.9182 52.4649C73.9818 51.3828 73.8546 50.2115 73.5236 48.9002C73.46 48.6455 73.3073 48.4418 73.0909 48.3145C72.8618 48.1872 72.6327 48.0217 72.4036 47.8307C72.1745 47.6398 71.9708 47.3979 71.7672 47.1051C71.5635 46.8122 71.4744 46.3412 71.4744 45.6919C71.4744 45.1699 71.589 44.7116 71.8181 44.3296C72.0472 43.9477 72.2763 43.5658 72.5054 43.2093C72.7345 42.8528 72.9636 42.4581 73.1927 42.038C73.4218 41.6179 73.5364 41.1086 73.5364 40.523V39.0589C73.5364 38.4096 73.4727 37.302 73.3454 35.7487C73.2182 34.1955 73.0909 32.5277 72.9509 30.7708C72.8109 29.0139 72.709 27.3588 72.6072 25.7929C72.5054 24.2269 72.429 23.1575 72.3654 22.5719C72.3018 21.4642 72.009 20.4967 71.4872 19.6437C70.9653 18.8034 70.7108 17.8231 70.7108 16.7155C70.7108 14.6403 71.1308 13.1762 71.9836 12.3232C72.8236 11.4829 74.3255 11.05 76.4638 11.05C76.922 11.05 77.2911 11.241 77.5839 11.6357C77.8766 12.0303 78.2203 12.2213 78.6021 12.2213H78.9967C79.1876 12.1577 79.4803 12.0813 79.8749 11.9794C80.2695 11.8776 80.524 11.8394 80.6513 11.8394C86.1116 9.49681 90.3755 7.67624 93.4302 6.37765C96.4849 5.07906 98.7887 4.13694 100.354 3.5513C101.92 2.96566 102.976 2.63465 103.523 2.57099C104.071 2.50733 104.542 2.57099 104.936 2.76196C105.713 2.88927 106.247 3.13117 106.54 3.48764C106.833 3.84412 106.973 4.37883 106.973 5.09179C106.973 5.74108 106.871 6.39038 106.68 7.03967C106.489 7.68897 106.031 8.17276 105.318 8.50377L92.5392 14.653L92.1447 15.0477L81.415 19.6309C81.0204 19.7582 80.7913 20.0892 80.7277 20.6112C80.664 21.1332 80.6258 21.5533 80.6258 21.8844C80.6258 22.4063 80.6895 23.3485 80.8168 24.7107C80.944 26.073 81.0713 27.4861 81.2113 28.9502C81.3513 30.4143 81.4913 31.7129 81.6441 32.846C81.8095 33.9791 81.9241 34.552 81.9877 34.552H82.0896L82.1914 34.4501C82.9042 33.9282 84.0497 33.037 85.6025 31.7638C87.1553 30.4907 88.759 29.2176 90.3755 27.9063C92.0047 26.6077 93.4302 25.4491 94.6648 24.4434C95.8994 23.4376 96.5485 22.9283 96.6122 22.9283C97.3249 22.9283 97.9741 23.2848 98.5596 23.9978C99.145 24.7107 99.4378 25.4619 99.4378 26.2385C99.4378 27.0151 99.2723 27.8935 98.9541 28.8738C98.6359 29.8542 98.1141 30.5926 97.3886 31.1145L82.1787 44.6734C82.1787 45.3227 82.1659 45.8447 82.1277 46.2393C82.0896 46.634 82.0768 47.0414 82.0768 47.4615V48.48C82.0768 50.8226 82.2423 53.1524 82.5605 55.4568C82.8914 57.7611 83.0442 60.091 83.0442 62.4335H83.4387C83.5024 62.4335 83.7951 62.1789 84.317 61.6569C84.8388 61.1349 85.2334 60.7148 85.4879 60.3838C85.6152 60.1928 85.9207 59.76 86.4171 59.1107C86.9007 58.4614 87.7281 57.3919 88.899 55.8896C90.07 54.4001 91.6355 52.414 93.5829 49.9441C95.5303 47.4743 98.0377 44.3551 101.092 40.5866C101.347 40.332 101.729 39.9373 102.212 39.4154C102.696 38.8934 103.014 38.6387 103.142 38.6387C103.333 38.4478 103.74 38.3587 104.364 38.3969C104.987 38.435 105.42 38.5114 105.674 38.6387C106.005 38.7661 106.425 39.1225 106.947 39.7082C107.469 40.2938 107.724 40.8413 107.724 41.3632C107.724 42.1398 107.316 43.1711 106.502 44.4315C105.687 45.6919 104.733 47.0159 103.625 48.3782C102.518 49.7404 101.411 51.0645 100.316 52.3249C99.2214 53.5853 98.3686 54.6165 97.7832 55.3931C96.8667 56.819 95.7849 58.5632 94.5121 60.613C93.2393 62.6627 91.8646 64.6106 90.3627 66.4694C88.8608 68.3281 87.2317 69.9195 85.437 71.2436C83.6551 72.5804 81.7459 73.2424 79.7349 73.2424C78.7548 73.2424 78.0548 73.0769 77.6348 72.7586C77.2147 72.4276 76.6802 71.842 76.031 71.0017L76.0692 71.0399Z" fill="#6C7C59"/>
<path d="M111.724 63.5928C111.724 59.6334 111.8 55.6485 111.966 51.6381C112.131 47.6405 112.309 43.6429 112.5 39.6452C112.691 35.6476 112.844 31.65 112.933 27.6524C113.022 23.6547 113.009 19.6698 112.882 15.6977C113.073 14.9847 113.429 14.45 113.951 14.0935C114.473 13.7371 115.084 13.5588 115.809 13.5588C117.171 13.5588 118.215 13.8007 118.928 14.2845C119.64 14.7683 120.162 15.4431 120.493 16.2833C120.824 17.1236 121.015 18.0784 121.079 19.1097C121.142 20.1536 121.206 21.1976 121.27 22.2288C122.046 23.6547 122.975 25.0425 124.044 26.3792C125.114 27.716 126.081 29.0655 126.921 30.4278C126.921 30.4914 126.972 30.6442 127.061 30.8607C127.163 31.0898 127.239 31.2044 127.303 31.2044C127.697 31.79 128.194 32.5539 128.817 33.496C129.441 34.4381 130.039 35.3548 130.625 36.2333C131.21 37.1117 131.923 38.2066 132.776 39.5052L133.17 39.989L138.822 48.1879C139.076 48.4426 139.305 48.5826 139.509 48.5826H139.7C138.86 41.695 138.172 34.6546 137.651 27.4614C137.129 20.2809 136.874 13.1769 136.874 6.14921V1.27313C137.396 0.432864 138.274 0 139.509 0C140.743 0 141.66 0.29282 142.245 0.878459C142.831 1.4641 143.225 2.18978 143.416 3.06824C143.607 3.9467 143.709 4.88882 143.709 5.89459C143.709 6.90036 143.747 7.82974 143.811 8.67001C143.811 8.73367 143.849 8.84825 143.913 9.01375C143.976 9.17926 144.053 9.53574 144.155 10.0832C144.256 10.6306 144.345 11.4836 144.447 12.6167C144.549 13.7498 144.676 15.3285 144.842 17.3528C145.007 19.3643 145.173 21.9106 145.326 24.9661C145.491 28.0216 145.695 31.7646 145.962 36.1823V37.9393L149.271 59.6843C149.335 60.2063 149.615 60.9956 150.099 62.0778C150.582 63.1599 150.824 63.9747 150.824 64.5604C150.824 65.9226 150.429 67.0303 149.653 67.8705C148.877 68.7108 147.769 69.1436 146.344 69.1436C146.153 69.1436 145.886 69.0673 145.567 68.9017C145.236 68.7362 144.918 68.558 144.587 68.367C144.256 68.1761 143.951 67.9596 143.658 67.7305C143.365 67.5013 143.149 67.3231 143.022 67.1958L127.328 44.8651C127.265 44.8651 127.201 44.7505 127.137 44.5213C127.074 44.2922 127.01 44.1139 126.946 43.9866C126.552 43.401 126.03 42.6753 125.381 41.7968C124.732 40.9184 124.108 40.0399 123.523 39.1615C122.937 38.283 122.415 37.5191 121.957 36.8698C121.499 36.2205 121.27 35.8641 121.27 35.8004L120.786 35.4057C120.455 41.5804 120.201 47.806 120.01 54.0825C119.819 60.3591 119.819 66.6101 120.01 72.8612C119.882 73.6378 119.475 74.3253 118.788 74.9109C118.1 75.4966 117.4 75.7894 116.688 75.7894C115.389 75.7894 114.358 75.4456 113.62 74.7709C112.882 74.0961 112.233 73.1922 111.724 72.0846V63.5928Z" fill="#6C7C59"/>
<path d="M154.824 63.5928C154.824 59.6334 154.9 55.6485 155.066 51.6381C155.231 47.6278 155.409 43.6429 155.6 39.6452C155.791 35.6476 155.944 31.65 156.033 27.6524C156.122 23.6547 156.109 19.6698 155.982 15.6977C156.173 14.9847 156.53 14.45 157.051 14.0935C157.573 13.7371 158.184 13.5588 158.91 13.5588C160.272 13.5588 161.315 13.8007 162.028 14.2845C162.741 14.7683 163.263 15.4431 163.594 16.2833C163.924 17.1236 164.115 18.0784 164.179 19.1097C164.243 20.1536 164.306 21.1976 164.37 22.2288C165.146 23.6547 166.076 25.0425 167.145 26.3792C168.214 27.716 169.181 29.0655 170.021 30.4278C170.021 30.4914 170.072 30.6442 170.161 30.8607C170.263 31.0898 170.339 31.2044 170.403 31.2044C170.798 31.79 171.294 32.5539 171.918 33.496C172.541 34.4381 173.14 35.3548 173.725 36.2333C174.31 37.1117 175.023 38.2066 175.876 39.5052L176.271 39.989L181.922 48.1879C182.176 48.4426 182.405 48.5826 182.609 48.5826H182.8C181.96 41.695 181.273 34.6546 180.751 27.4614C180.229 20.2809 179.974 13.1769 179.974 6.14921V1.27313C180.496 0.432864 181.375 0 182.609 0C183.844 0 184.76 0.29282 185.346 0.878459C185.931 1.4641 186.326 2.18978 186.517 3.06824C186.708 3.9467 186.809 4.88882 186.809 5.89459C186.809 6.90036 186.848 7.82974 186.911 8.67001C186.911 8.73367 186.949 8.84825 187.013 9.01375C187.077 9.17926 187.153 9.53574 187.255 10.0832C187.357 10.6306 187.446 11.4836 187.548 12.6167C187.649 13.7498 187.777 15.3285 187.942 17.3528C188.108 19.3643 188.273 21.9106 188.426 24.9661C188.591 28.0216 188.795 31.7646 189.062 36.1823V37.9393L192.371 59.6843C192.435 60.2063 192.715 60.9956 193.199 62.0778C193.682 63.1599 193.924 63.9747 193.924 64.5604C193.924 65.9226 193.53 67.0303 192.753 67.8705C191.977 68.7108 190.87 69.1436 189.444 69.1436C189.253 69.1436 188.986 69.0673 188.668 68.9017C188.337 68.7362 188.019 68.558 187.688 68.367C187.357 68.1761 187.051 67.9596 186.758 67.7305C186.466 67.5013 186.249 67.3231 186.122 67.1958L170.428 44.8651C170.365 44.8651 170.301 44.7505 170.238 44.5213C170.174 44.2922 170.11 44.1139 170.047 43.9866C169.652 43.401 169.13 42.6753 168.481 41.7968C167.832 40.9184 167.208 40.0399 166.623 39.1615C166.037 38.283 165.515 37.5191 165.057 36.8698C164.599 36.2205 164.37 35.8641 164.37 35.8004L163.886 35.4057C163.555 41.5804 163.301 47.806 163.11 54.0825C162.919 60.3591 162.919 66.6101 163.11 72.8612C162.983 73.6378 162.575 74.3253 161.888 74.9109C161.201 75.4966 160.501 75.7894 159.788 75.7894C158.49 75.7894 157.459 75.4456 156.72 74.7709C155.982 74.0961 155.333 73.1922 154.824 72.0846V63.5928Z" fill="#6C7C59"/>
<path d="M197.988 53.1531C198.051 52.7584 198.051 51.7272 197.988 50.0339C197.924 48.3407 197.911 46.24 197.937 43.7447C197.975 41.2366 198.038 38.4994 198.128 35.5075C198.229 32.5157 198.458 29.4984 198.815 26.4301C199.171 23.3746 199.693 20.4337 200.38 17.6073C201.068 14.781 201.959 12.3238 203.066 10.2486C203.461 8.49173 204.402 7.26952 205.892 6.59476C207.381 5.92 209.494 5.5126 212.23 5.37256C213.987 5.37256 215.476 5.83089 216.71 6.73481C217.945 7.65146 219.001 8.77181 219.88 10.0959C220.758 11.4327 221.522 12.8713 222.171 14.4372C222.82 16.0032 223.405 17.4036 223.927 18.6258V19.1096C224.385 20.4082 224.729 22.3434 224.945 24.9151C225.174 27.4868 225.34 30.1859 225.429 33.0122C225.518 35.8385 225.569 38.563 225.569 41.1602V47.1057C225.569 49.0536 225.314 51.3835 224.793 54.0825C224.271 56.7815 223.443 59.3405 222.311 61.734C221.178 64.1402 219.689 66.19 217.869 67.8832C216.049 69.5765 213.872 70.4167 211.339 70.4167C209.188 70.4167 207.292 69.8693 205.637 68.7617C203.982 67.6541 202.582 66.2409 201.45 64.5222C200.317 62.8034 199.451 60.9319 198.866 58.9077C198.28 56.8961 197.988 54.9737 197.988 53.1531ZM207.444 59.6843C207.572 60.3972 207.954 61.1356 208.564 61.874C209.188 62.6252 209.914 62.9944 210.754 62.9944H211.53C214.267 60.5245 216.049 57.6727 216.889 54.4644C217.729 51.2561 218.161 47.8442 218.161 44.2667C218.161 43.4264 218.123 42.1151 218.06 40.3709C217.996 38.6267 217.881 36.6534 217.716 34.4636C217.55 32.2865 217.347 29.9949 217.079 27.5887C216.825 25.1825 216.494 22.929 216.099 20.8156C215.705 18.7022 215.259 16.8689 214.738 15.303C214.216 13.737 213.605 12.6676 212.879 12.082C212.816 12.1456 212.739 12.2729 212.637 12.4766C212.536 12.6803 212.497 12.8076 212.497 12.8713C211.136 14.5646 209.901 16.8689 208.794 19.7971C207.686 22.7253 206.859 26.1882 206.312 30.1859C205.764 34.1835 205.535 38.6776 205.624 43.6428C205.713 48.608 206.324 53.9679 207.432 59.6843H207.444Z" fill="#6C7C59"/>
<path d="M229.951 55.7758C229.951 50.7724 230.027 45.7944 230.193 40.8547C230.358 35.9149 230.435 30.9115 230.435 25.8317C230.435 22.9036 230.295 19.9754 230.002 17.0472C229.709 14.119 229.569 11.1908 229.569 8.26257C229.569 7.34591 229.849 6.5693 230.396 5.92001C230.944 5.27071 231.682 4.9397 232.586 4.9397C234.151 4.9397 235.322 5.27071 236.098 5.92001C236.875 6.5693 237.435 7.38411 237.753 8.36442C238.071 9.34472 238.237 10.4523 238.237 11.6746V15.2775C238.237 15.5321 238.25 16.1942 238.288 17.2254C238.326 18.2694 238.364 19.3897 238.428 20.5865C238.491 21.7959 238.542 22.9163 238.568 23.9475C238.606 24.9915 238.619 25.6408 238.619 25.8954V29.1164C238.619 33.3432 238.555 37.5445 238.428 41.6949C238.3 45.8581 238.237 50.0849 238.237 54.3753V58.4748C238.237 58.8058 238.288 59.2387 238.377 59.7861C238.479 60.3336 238.555 60.6136 238.619 60.6136H239.395L262.509 51.4471C263.031 50.9888 263.489 50.7469 263.871 50.7214C264.265 50.6832 264.711 50.6705 265.233 50.6705C265.564 50.6705 265.984 50.6832 266.506 50.7214C267.027 50.7596 267.524 50.8487 268.02 51.0142C268.504 51.1798 268.937 51.4089 269.293 51.7017C269.649 51.9946 269.828 52.4274 269.828 53.0131C269.828 54.5154 269.013 55.8139 267.384 56.9088C265.309 58.0165 263.158 59.035 260.943 59.9771C258.729 60.9192 256.489 61.6831 254.21 62.2687L253.727 62.6634C250.608 63.5036 247.694 64.7513 244.995 66.3682C242.297 67.9978 239.484 69.4874 236.557 70.8496H235.678C233.922 70.8496 232.624 70.264 231.784 69.0927C230.944 67.9214 230.384 66.5464 230.129 64.9423C229.875 63.3509 229.773 61.6958 229.836 59.9643C229.9 58.2456 229.938 56.8324 229.938 55.7248L229.951 55.7758Z" fill="#6C7C59"/>
<path d="M273.891 53.1531C273.954 52.7584 273.954 51.7272 273.891 50.0339C273.827 48.3407 273.814 46.24 273.84 43.7447C273.878 41.2366 273.942 38.4994 274.031 35.5075C274.133 32.5157 274.362 29.4984 274.718 26.4301C275.074 23.3746 275.596 20.4337 276.284 17.6073C276.971 14.781 277.862 12.3238 278.969 10.2486C279.364 8.49173 280.306 7.26952 281.795 6.59476C283.284 5.92 285.397 5.5126 288.133 5.37256C289.89 5.37256 291.379 5.83089 292.614 6.73481C293.848 7.65146 294.905 8.77181 295.783 10.0959C296.661 11.4327 297.425 12.8713 298.074 14.4372C298.723 16.0032 299.309 17.4036 299.83 18.6258V19.1096C300.289 20.4082 300.632 22.3434 300.849 24.9151C301.078 27.4868 301.243 30.1859 301.332 33.0122C301.421 35.8385 301.472 38.563 301.472 41.1602V47.1057C301.472 49.0536 301.218 51.3835 300.696 54.0825C300.174 56.7815 299.347 59.3405 298.214 61.734C297.081 64.1402 295.592 66.19 293.772 67.8832C291.952 69.5765 289.775 70.4167 287.242 70.4167C285.091 70.4167 283.195 69.8693 281.54 68.7617C279.886 67.6541 278.486 66.2409 277.353 64.5222C276.22 62.8034 275.354 60.9319 274.769 58.9077C274.184 56.8961 273.891 54.9737 273.891 53.1531ZM283.348 59.6843C283.475 60.3972 283.857 61.1356 284.468 61.874C285.091 62.6252 285.817 62.9944 286.657 62.9944H287.433C290.17 60.5245 291.952 57.6727 292.792 54.4644C293.632 51.2561 294.065 47.8442 294.065 44.2667C294.065 43.4264 294.026 42.1151 293.963 40.3709C293.899 38.6267 293.785 36.6534 293.619 34.4636C293.454 32.2865 293.25 29.9949 292.983 27.5887C292.728 25.1825 292.397 22.929 292.003 20.8156C291.608 18.7022 291.163 16.8689 290.641 15.303C290.119 13.737 289.508 12.6676 288.782 12.082C288.719 12.1456 288.643 12.2729 288.541 12.4766C288.439 12.6803 288.401 12.8076 288.401 12.8713C287.039 14.5646 285.804 16.8689 284.697 19.7971C283.589 22.7253 282.762 26.1882 282.215 30.1859C281.668 34.1835 281.438 38.6776 281.528 43.6428C281.629 48.6208 282.228 53.9679 283.335 59.6843H283.348Z" fill="#6C7C59"/>
</g>
<path d="M83.3846 96.2693C83.3846 95.9893 83.6046 95.7693 83.8846 95.7693H88.4846C90.4846 95.7693 92.1446 97.4093 92.1446 99.4093V100.849C92.1446 102.849 90.4646 104.509 88.4646 104.509H86.2246C85.9446 104.509 85.7246 104.729 85.7246 105.009V109.289C85.7246 109.569 85.5046 109.789 85.2246 109.789H83.8846C83.6046 109.789 83.3846 109.569 83.3846 109.289V96.2693ZM86.2246 98.1093C85.9446 98.1093 85.7246 98.3293 85.7246 98.6093V101.669C85.7246 101.949 85.9446 102.169 86.2246 102.169H88.4646C89.2046 102.169 89.8046 101.589 89.8046 100.849V99.4093C89.8046 98.6693 89.2246 98.1093 88.4846 98.1093H86.2246ZM93.1307 96.2693C93.1307 95.9893 93.3507 95.7693 93.6307 95.7693H94.9707C95.2507 95.7693 95.4707 95.9893 95.4707 96.2693V109.289C95.4707 109.569 95.2507 109.789 94.9707 109.789H93.6307C93.3507 109.789 93.1307 109.569 93.1307 109.289V96.2693ZM96.4705 96.2693C96.4705 95.9893 96.6905 95.7693 96.9705 95.7693H105.931C106.211 95.7693 106.431 95.9893 106.431 96.2693V97.5693C106.431 97.9093 106.311 98.2293 106.131 98.4693L99.6305 107.049C99.5905 107.089 99.5705 107.149 99.5705 107.209C99.5705 107.349 99.6705 107.449 99.8105 107.449H105.931C106.211 107.449 106.431 107.669 106.431 107.949V109.289C106.431 109.569 106.211 109.789 105.931 109.789H96.9705C96.6905 109.789 96.4705 109.569 96.4705 109.289V107.849C96.4705 107.509 96.5905 107.189 96.7705 106.949L103.171 98.5093C103.211 98.4693 103.231 98.4093 103.231 98.3493C103.231 98.2093 103.111 98.1093 102.971 98.1093H96.9705C96.6905 98.1093 96.4705 97.8893 96.4705 97.6093V96.2693ZM107.428 96.2693C107.428 95.9893 107.648 95.7693 107.928 95.7693H116.888C117.168 95.7693 117.388 95.9893 117.388 96.2693V97.5693C117.388 97.9093 117.268 98.2293 117.088 98.4693L110.588 107.049C110.548 107.089 110.528 107.149 110.528 107.209C110.528 107.349 110.628 107.449 110.768 107.449H116.888C117.168 107.449 117.388 107.669 117.388 107.949V109.289C117.388 109.569 117.168 109.789 116.888 109.789H107.928C107.648 109.789 107.428 109.569 107.428 109.289V107.849C107.428 107.509 107.548 107.189 107.728 106.949L114.128 98.5093C114.168 98.4693 114.188 98.4093 114.188 98.3493C114.188 98.2093 114.068 98.1093 113.928 98.1093H107.928C107.648 98.1093 107.428 97.8893 107.428 97.6093V96.2693ZM123.365 96.2293C123.465 95.9693 123.745 95.7693 124.045 95.7693H124.685C124.985 95.7693 125.245 95.9693 125.345 96.2293L130.165 109.329C130.165 109.349 130.185 109.389 130.185 109.449C130.185 109.629 130.025 109.789 129.825 109.789H128.345C128.025 109.789 127.765 109.589 127.665 109.329L127.045 107.629C126.945 107.369 126.685 107.169 126.365 107.169H122.345C122.045 107.169 121.785 107.369 121.685 107.629L121.065 109.329C120.965 109.589 120.705 109.789 120.385 109.789H118.885C118.705 109.789 118.545 109.629 118.545 109.449C118.545 109.389 118.545 109.349 118.565 109.329L123.365 96.2293ZM124.525 100.789C124.505 100.729 124.445 100.669 124.365 100.669C124.285 100.669 124.225 100.729 124.185 100.789L122.885 104.369C122.865 104.389 122.865 104.429 122.865 104.489C122.865 104.669 123.025 104.829 123.205 104.829H125.525C125.705 104.829 125.865 104.669 125.865 104.489C125.865 104.429 125.865 104.389 125.845 104.369L124.525 100.789ZM142.57 95.7893C144.35 95.7893 145.81 97.2293 145.81 98.9693V99.6493C145.81 99.9293 145.59 100.149 145.31 100.149H143.97C143.69 100.149 143.47 99.9293 143.47 99.6493V98.9693C143.47 98.4893 143.13 98.1293 142.57 98.1293C142.07 98.1293 141.59 98.5693 141.59 99.1493C141.59 99.8093 141.91 100.469 142.49 101.169L144.25 103.289C144.35 103.409 144.55 103.329 144.55 103.169L144.51 102.169C144.51 101.889 144.71 101.649 144.99 101.649L146.33 101.609H146.35C146.61 101.609 146.85 101.809 146.85 102.089L146.95 106.009V106.089C146.95 106.349 147.05 106.689 147.21 106.889L149.31 109.429C149.43 109.589 149.33 109.809 149.13 109.809H147.09C146.77 109.809 146.47 109.669 146.27 109.429L145.99 109.089C145.89 108.969 145.75 108.909 145.61 108.909C145.49 108.909 145.39 108.929 145.29 109.009C144.59 109.509 143.73 109.809 142.83 109.809H141.47C139.19 109.809 137.31 107.949 137.31 105.669C137.31 104.409 138.05 103.169 139.07 102.589C139.27 102.449 139.47 102.329 139.69 102.209C139.87 102.109 139.97 101.969 139.97 101.789C139.97 101.709 139.95 101.609 139.91 101.529C139.53 100.829 139.25 100.049 139.25 99.1493C139.25 97.3093 140.75 95.7893 142.57 95.7893ZM141.97 104.209C141.87 104.089 141.67 104.009 141.51 104.049C141.07 104.129 140.71 104.289 140.43 104.489C140.01 104.789 139.67 105.189 139.67 105.749C139.71 106.729 140.49 107.469 141.47 107.469H142.83C143.15 107.469 143.45 107.389 143.71 107.249C143.87 107.169 143.95 107.009 143.95 106.829C143.95 106.689 143.89 106.549 143.79 106.429L141.97 104.209ZM163.627 95.7693C165.547 95.7693 167.347 96.5493 168.627 97.8493C168.707 97.9493 168.767 98.0493 168.767 98.1693C168.767 98.3093 168.707 98.4293 168.587 98.5293L167.567 99.4093C167.467 99.4893 167.367 99.5293 167.247 99.5293C167.107 99.5293 166.947 99.4693 166.847 99.3693C166.007 98.5693 164.847 98.1093 163.627 98.1093C161.027 98.1093 158.947 100.189 158.947 102.789C158.947 105.389 161.027 107.449 163.627 107.449C164.867 107.449 166.007 106.969 166.847 106.189C166.947 106.089 167.107 106.029 167.247 106.029C167.367 106.029 167.467 106.069 167.567 106.149L168.587 107.029C168.707 107.129 168.767 107.249 168.767 107.389C168.767 107.509 168.707 107.609 168.627 107.709C167.347 108.989 165.567 109.789 163.627 109.789C159.767 109.789 156.607 106.649 156.607 102.789C156.607 98.9293 159.767 95.7693 163.627 95.7693ZM169.967 96.2693C169.967 95.9893 170.187 95.7693 170.467 95.7693H171.807C172.087 95.7693 172.307 95.9893 172.307 96.2693V105.429C172.307 106.569 173.207 107.449 174.347 107.449C175.487 107.449 176.387 106.569 176.387 105.429V96.2693C176.387 95.9893 176.607 95.7693 176.887 95.7693H178.227C178.507 95.7693 178.727 95.9893 178.727 96.2693V105.429C178.727 107.829 176.747 109.789 174.347 109.789C171.947 109.789 169.967 107.829 169.967 105.429V96.2693ZM186.733 95.7693C188.653 95.7693 190.453 96.5493 191.733 97.8493C191.813 97.9493 191.873 98.0493 191.873 98.1693C191.873 98.3093 191.813 98.4293 191.693 98.5293L190.673 99.4093C190.573 99.4893 190.473 99.5293 190.353 99.5293C190.213 99.5293 190.053 99.4693 189.953 99.3693C189.113 98.5693 187.953 98.1093 186.733 98.1093C184.133 98.1093 182.053 100.189 182.053 102.789C182.053 105.389 184.133 107.449 186.733 107.449C187.973 107.449 189.113 106.969 189.953 106.189C190.053 106.089 190.213 106.029 190.353 106.029C190.473 106.029 190.573 106.069 190.673 106.149L191.693 107.029C191.813 107.129 191.873 107.249 191.873 107.389C191.873 107.509 191.813 107.609 191.733 107.709C190.453 108.989 188.673 109.789 186.733 109.789C182.873 109.789 179.713 106.649 179.713 102.789C179.713 98.9293 182.873 95.7693 186.733 95.7693ZM193.072 96.2693C193.072 95.9893 193.292 95.7693 193.572 95.7693H194.912C195.192 95.7693 195.412 95.9893 195.412 96.2693V109.289C195.412 109.569 195.192 109.789 194.912 109.789H193.572C193.292 109.789 193.072 109.569 193.072 109.289V96.2693ZM196.412 96.2693C196.412 95.9893 196.632 95.7693 196.912 95.7693H198.852C199.172 95.7693 199.432 95.9493 199.532 96.2293L202.632 103.969C202.652 104.009 202.692 104.029 202.732 104.029C202.792 104.029 202.832 103.989 202.832 103.929V96.2693C202.832 95.9893 203.052 95.7693 203.332 95.7693H204.672C204.952 95.7693 205.172 95.9893 205.172 96.2693V109.289C205.172 109.569 204.952 109.789 204.672 109.789H202.952C202.632 109.789 202.352 109.609 202.252 109.329L198.932 101.029C198.912 100.989 198.892 100.969 198.852 100.969C198.792 100.969 198.752 101.009 198.752 101.069V109.289C198.752 109.569 198.532 109.789 198.252 109.789H196.912C196.632 109.789 196.412 109.569 196.412 109.289V96.2693ZM211.138 96.2293C211.238 95.9693 211.518 95.7693 211.818 95.7693H212.458C212.758 95.7693 213.018 95.9693 213.118 96.2293L217.938 109.329C217.938 109.349 217.958 109.389 217.958 109.449C217.958 109.629 217.798 109.789 217.598 109.789H216.118C215.798 109.789 215.538 109.589 215.438 109.329L214.818 107.629C214.718 107.369 214.458 107.169 214.138 107.169H210.118C209.818 107.169 209.558 107.369 209.458 107.629L208.838 109.329C208.738 109.589 208.478 109.789 208.158 109.789H206.658C206.478 109.789 206.318 109.629 206.318 109.449C206.318 109.389 206.318 109.349 206.338 109.329L211.138 96.2293ZM212.298 100.789C212.278 100.729 212.218 100.669 212.138 100.669C212.058 100.669 211.998 100.729 211.958 100.789L210.658 104.369C210.638 104.389 210.638 104.429 210.638 104.489C210.638 104.669 210.798 104.829 210.978 104.829H213.298C213.478 104.829 213.638 104.669 213.638 104.489C213.638 104.429 213.638 104.389 213.618 104.369L212.298 100.789Z" fill="#6C7C59"/>
<defs>
<clipPath id="clip0_612_1822">
<rect width="301.472" height="75.7894" fill="white"/>
</clipPath>
</defs>
</svg>
