<svg width="72" height="72" viewBox="0 0 72 72" fill="none" xmlns="http://www.w3.org/2000/svg">
<path d="M25.4639 47.9551C26.2644 47.9552 27.016 48.1386 27.7354 48.4746H27.7363C28.3593 48.7559 28.8916 49.1422 29.3613 49.626L29.5586 49.8389L29.5615 49.8428C30.4439 50.8608 30.9453 52.1546 30.9453 53.5186C30.9452 54.8606 30.4446 56.1746 29.5615 57.1934L29.5518 57.2051C29.0374 57.764 28.4499 58.2171 27.748 58.5566L27.7305 58.5645C27.041 58.866 26.3013 59.0444 25.5332 59.0576C25.5216 59.0611 25.509 59.0663 25.4951 59.0693C25.4637 59.0762 25.4249 59.082 25.3809 59.082C24.2338 59.082 23.1387 58.6142 22.3252 57.8037V62.7314H22.7803V64H19.3828V62.7314H19.8369V49.2236H19.3828V47.9551H25.4639ZM36.2764 48.3076L40.7158 62.7314H41.5566V49.2236H41.1025V47.9551H43.7783L43.9209 48.2139L50.8994 60.8926V50.9346C50.8992 50.0194 50.195 49.2707 49.2861 49.2227L49.2373 49.2207L48.7295 49.0938V47.9551H52.623V49.2236H52.1689V63.9795H49.9463L49.8047 63.7207L42.8252 51.04V61C42.8256 61.9105 43.5262 62.6628 44.4395 62.7314H44.9961V63.9795H38.5498L38.4414 63.626L37.041 59.0605H34.0088L33.1973 62.7314H34.1074V63.9795H30.71V62.7314H31.293C31.6428 62.7312 31.9426 62.4929 32.0293 62.1719L34.5176 50.9326L33.8115 48.5996L33.6162 47.9551H36.168L36.2764 48.3076ZM43.2354 62.7998C43.346 62.8813 43.4645 62.9532 43.5898 63.0137V63.0127C43.4643 62.9521 43.3453 62.8806 43.2344 62.7988L43.2354 62.7998ZM32.0078 63.0078C32.0176 63.001 32.0275 62.9944 32.0371 62.9873C32.0275 62.9944 32.0176 63.001 32.0078 63.0078ZM25.1914 58.5771C25.2543 58.5803 25.3176 58.582 25.3809 58.582V58.5811C25.29 58.5811 25.1995 58.5767 25.1094 58.5703C25.1367 58.5723 25.164 58.5758 25.1914 58.5771ZM24.8164 58.5391C24.904 58.5525 24.9923 58.5612 25.0811 58.5684C24.9923 58.5614 24.904 58.5525 24.8164 58.5391ZM26.1348 58.2285C26.1688 58.221 26.2026 58.2126 26.2363 58.2041C26.2026 58.2125 26.1688 58.2211 26.1348 58.2285ZM27.5303 58.1055C27.4608 58.1359 27.3907 58.1648 27.3203 58.1924C27.3906 58.1648 27.4609 58.1368 27.5303 58.1064C27.6104 58.0677 27.6886 58.0264 27.7656 57.9844C27.6887 58.0263 27.6103 58.0667 27.5303 58.1055ZM26.3242 58.1816C26.3586 58.1721 26.3927 58.162 26.4268 58.1514C26.3927 58.1619 26.3586 58.1721 26.3242 58.1816ZM26.5088 58.125C26.5375 58.1153 26.5663 58.1061 26.5947 58.0957C26.5663 58.1061 26.5375 58.1154 26.5088 58.125ZM22.3252 54.7676C22.3432 55.5931 22.6659 56.3583 23.2334 56.9258C23.8256 57.4973 24.5889 57.8125 25.3809 57.8125H25.4424C26.2389 57.7921 26.9805 57.4735 27.5488 56.9053C28.1197 56.3345 28.4392 55.5884 28.457 54.7881V52.2275L28.4365 51.9297C28.3557 51.2431 28.0482 50.6097 27.5488 50.1104C27.049 49.6107 26.4181 49.3065 25.7373 49.2383L25.4424 49.2236H22.3252V54.7676ZM34.293 57.792H36.6504L35.2783 53.3574L34.293 57.792ZM22.6729 57.4453C22.7179 57.4904 22.7646 57.5335 22.8115 57.5762C22.7645 57.5335 22.718 57.4895 22.6729 57.4443C22.6265 57.3979 22.5809 57.351 22.5371 57.3027C22.581 57.3511 22.6264 57.3988 22.6729 57.4453ZM21.8252 56.1641L21.8994 56.3398C21.9523 56.456 22.0119 56.5693 22.0771 56.6797L21.9844 56.5117C21.9252 56.3983 21.8717 56.282 21.8252 56.1631V56.1641ZM14.7891 27.9775C16.3583 27.9982 17.8519 28.4647 19.1396 29.3213L19.3945 29.498L19.3984 29.5C20.0591 29.9844 20.6308 30.5565 21.1133 31.1924C21.6029 31.8377 21.9757 32.565 22.2578 33.3242L22.3193 33.4893L22.5732 34.165H20.0957L19.957 33.8887L19.916 33.8057L19.8965 33.7656L19.8838 33.7236C19.494 32.3985 18.8182 31.3076 17.8887 30.5107L17.8799 30.5029C17.0303 29.742 16.0239 29.3191 14.9658 29.2539L14.7539 29.2461H14.623L14.3574 29.2568C13.0296 29.3517 11.775 30.027 10.7842 31.2158C9.74962 32.4821 9.16409 34.1846 9.16406 36C9.16413 37.8171 9.75066 39.5215 10.7871 40.7881C11.8433 42.0536 13.1988 42.7353 14.623 42.7539H14.7754C16.1799 42.7354 17.5352 42.0529 18.5703 40.7881L18.5732 40.7852C19.5082 39.6598 20.0606 38.2089 20.1875 36.624H15.3984V35.3555H22.7031V43.9814H21.4346V40.3428C21.4286 40.3498 21.4215 40.3553 21.416 40.3613C20.7137 41.4435 19.7562 42.3559 18.6221 42.9883L18.6211 42.9873C17.4515 43.6484 16.1307 44.0005 14.7695 44.0225H14.6064C13.5312 44.0005 12.4979 43.7802 11.5098 43.3633V43.3643C10.5528 42.9637 9.71348 42.3657 8.99219 41.6445C8.26356 40.916 7.68974 40.055 7.29297 39.1074V39.1064C6.87351 38.1123 6.67582 37.0748 6.67578 36C6.6758 34.9248 6.87324 33.887 7.29297 32.8926C7.68975 31.945 8.26353 31.084 8.99219 30.3555C9.62334 29.7244 10.3448 29.1885 11.1562 28.7959L11.5098 28.6357C12.4978 28.2189 13.5313 27.9995 14.6064 27.9775H14.7891ZM57.3828 27.9775C58.3304 27.9776 59.2434 28.1467 60.1191 28.4688L60.4922 28.6162L60.499 28.6191C61.4418 29.0357 62.2796 29.6078 63.0068 30.3555C63.7341 31.0827 64.3074 31.9421 64.7041 32.8877C65.1265 33.8659 65.3242 34.9266 65.3242 36C65.3242 37.0535 65.1263 38.1142 64.7041 39.0918C64.3072 40.0377 63.7353 40.8942 63.0127 41.6387L63.0068 41.6445C62.2808 42.3703 61.4437 42.943 60.499 43.3604L60.4922 43.3633C59.5131 43.7766 58.4856 43.9968 57.4141 44.001L57.3564 44.0127L57.3086 44.0225H54.9189V42.7539H55.374V29.2461H54.9189V27.9775H57.3828ZM28.0078 27.9775C29.0635 27.9776 30.0706 28.3762 30.8428 29.0771L31.0127 29.2383C31.8376 30.0626 32.29 31.1621 32.29 32.3213C32.29 33.5497 31.7806 34.739 30.8457 35.5615L30.8467 35.5625C30.5781 35.8095 30.274 36.0193 29.9482 36.1904L29.9707 36.2568L32.1104 42.7539H33.0996C33.4476 42.7537 33.7456 42.5177 33.834 42.1992L36.3242 30.9561L35.6182 28.6221L35.4229 27.9775H37.9746L38.083 28.3301L42.5225 42.7539H43.3633V29.2461H42.9092V27.9775H45.585L45.7275 28.2363L52.7061 40.915V30.957C52.7058 30.0419 52.0016 29.2932 51.0928 29.2451L51.0439 29.2432L50.5361 29.1162V27.9775H54.4297V29.2461H53.9756V44.002H51.7529L51.6113 43.7432L44.6318 31.0625V41.0225C44.6322 41.933 45.3328 42.6853 46.2461 42.7539H46.8027V44.002H40.3564L40.248 43.6484L38.8477 39.083H35.8154L35.0039 42.7539H35.9141V44.002H29.3262V42.7539H29.5488L27.5605 36.7412C26.7584 36.9482 26.1515 37.6816 26.1514 38.5625V38.5654L26.1328 42.7539H26.585V44.002H23.1875V42.7539H23.6426V29.2461H23.1875V27.9775H28.0078ZM12.0088 43.0244C12.0143 43.0265 12.0199 43.0282 12.0254 43.0303C11.9172 42.99 11.8092 42.9475 11.7021 42.9023L12.0088 43.0244ZM57.8623 42.7148C59.1129 42.5536 60.2799 41.9031 61.1924 40.7881L61.1943 40.7842C62.2488 39.519 62.8359 37.817 62.8359 36C62.8359 34.1639 62.2499 32.4806 61.1924 31.1924V31.1914C60.276 30.0898 59.1079 29.4291 57.8623 29.2793V42.7148ZM9.3457 41.291C9.40945 41.3548 9.47444 41.4171 9.54004 41.4785C9.47429 41.4168 9.40959 41.3539 9.3457 41.29C9.26057 41.2049 9.17727 41.1182 9.09668 41.0293C9.17735 41.1183 9.26046 41.2058 9.3457 41.291ZM63.5654 40.1611C63.2993 40.5616 62.9944 40.9387 62.6533 41.29C62.4864 41.4569 62.3131 41.6151 62.1338 41.7646C62.2216 41.6915 62.3088 41.6174 62.3936 41.54L62.6533 41.291C62.9943 40.9398 63.2993 40.5625 63.5654 40.1621V40.1611ZM18.7441 41.3525V41.3535V41.3525ZM19.8516 39.7324L19.9932 39.4346C20.0067 39.4044 20.0181 39.3732 20.0312 39.3428C19.9743 39.4744 19.9155 39.6049 19.8516 39.7324ZM21.6836 38.9883L21.6348 38.9551H21.6035L21.6836 38.9883ZM21.7227 38.8564C21.7377 38.8536 21.7532 38.8526 21.7686 38.8525C21.8205 38.8526 21.862 38.8679 21.8906 38.8965C21.8622 38.8677 21.8206 38.8516 21.7686 38.8516C21.7531 38.8516 21.7378 38.8536 21.7227 38.8564ZM64.2451 38.8936L64.3662 38.5918C64.3677 38.5879 64.3687 38.5839 64.3701 38.5801C64.3308 38.6853 64.2897 38.7903 64.2451 38.8936ZM36.0996 37.8145H38.457L37.085 33.3799L36.0996 37.8145ZM26.1309 36.0498C26.6581 35.6513 27.3131 35.417 28.0078 35.417C28.4157 35.4169 28.8346 35.2602 29.1807 34.9473C29.5555 34.6043 29.7853 34.1122 29.8018 33.5869V31.0762C29.7854 30.554 29.5573 30.0583 29.1748 29.6904C28.8542 29.405 28.4391 29.2462 28.0078 29.2461H26.1309V36.0498ZM20.4043 33.665H21.8516V33.6641H20.4043V33.665ZM63.5654 31.8203C63.6319 31.9197 63.6962 32.0205 63.7578 32.123L63.5654 31.8193C63.4989 31.72 63.4297 31.6224 63.3584 31.5264L63.5654 31.8203ZM8.87109 31.2324C8.79186 31.3286 8.71473 31.4264 8.64062 31.5264L8.8623 31.2432C8.86524 31.2396 8.86815 31.236 8.87109 31.2324ZM61.5791 30.875C61.7211 31.048 61.8548 31.2277 61.9805 31.4131V31.4121C61.8548 31.2268 61.7211 31.047 61.5791 30.874V30.875ZM62.9023 30.9707C62.983 31.0597 63.0616 31.1505 63.1377 31.2432L62.9023 30.9697C62.8217 30.8808 62.7385 30.7941 62.6533 30.709L62.9023 30.9707ZM9.3457 30.709C9.26726 30.7874 9.1908 30.8676 9.11621 30.9492C9.1907 30.8675 9.26726 30.7874 9.3457 30.709ZM19.5518 30.2598C19.6239 30.3215 19.695 30.3842 19.7646 30.4482H19.7656C19.6957 30.3839 19.6243 30.3208 19.5518 30.2588V30.2598ZM29.5166 29.3252C29.6354 29.4389 29.7426 29.5629 29.8369 29.6953C29.8839 29.7613 29.9274 29.8295 29.9678 29.8994L29.8369 29.6943C29.7428 29.5618 29.6355 29.4379 29.5166 29.3242C29.4672 29.2798 29.4151 29.2388 29.3623 29.1992C29.4151 29.2389 29.4672 29.2807 29.5166 29.3252ZM18.6191 29.582C18.7013 29.6323 18.7828 29.6838 18.8633 29.7373L18.6191 29.5811C18.537 29.5308 18.4539 29.4825 18.3701 29.4355L18.6191 29.582ZM11.0947 29.3877C11.0869 29.3919 11.0791 29.3961 11.0713 29.4004C11.1706 29.3459 11.2718 29.2946 11.374 29.2451L11.0947 29.3877ZM29.1787 29.0742C29.122 29.0399 29.0642 29.0077 29.0049 28.9785C29.0642 29.0077 29.1221 29.0398 29.1787 29.0742ZM29.623 22.7764H32.9072C33.8169 22.7042 34.5134 21.953 34.5137 21.0449V20.4619H35.7822V24.0244H26.6797V22.7764H27.1348V9.26855H26.6797V8H29.623V22.7764ZM45.3506 11.583H44.0811V10.9805C44.0811 10.0684 43.3819 9.32138 42.4775 9.26855H39.1904V15.3779H41.0488C41.5094 15.3465 41.87 14.9621 41.8701 14.5137V13.9111H43.1387V18.1143H41.8701V17.5107C41.8701 17.0618 41.509 16.6774 41.0479 16.6465H39.1904V22.7764H42.4746C43.3846 22.7045 44.0808 21.9532 44.0811 21.0449V20.4619H45.3506V24.0244H36.248V22.7764H36.7021V9.26855H36.248V8H45.3506V11.583ZM44.5801 21.0537C44.5795 21.1978 44.5667 21.339 44.54 21.4756L44.5713 21.2627C44.5779 21.1939 44.5798 21.1242 44.5801 21.0537ZM44.54 10.5498C44.5483 10.5923 44.5552 10.6353 44.5605 10.6787C44.5552 10.635 44.5484 10.5917 44.54 10.5488V10.5498ZM44.4336 10.1846L44.4209 10.1455C44.4163 10.1342 44.41 10.1236 44.4053 10.1123C44.4153 10.1361 44.4244 10.1603 44.4336 10.1846ZM44.3447 9.97949C44.3341 9.95838 44.3228 9.93771 44.3115 9.91699C44.3228 9.93771 44.3341 9.95838 44.3447 9.97949ZM44.2666 9.83887C44.2335 9.78345 44.1979 9.72987 44.1602 9.67773C44.1978 9.72989 44.2335 9.78342 44.2666 9.83887ZM44.1348 9.64258C44.086 9.57786 44.035 9.51497 43.9795 9.45605C44.0349 9.51499 44.086 9.57781 44.1348 9.64258ZM9.08105 30.9893C9.00931 31.069 8.93913 31.1498 8.87109 31.2324C8.93912 31.1498 9.00942 31.069 9.08105 30.9893ZM29.3428 29.1846C29.2927 29.1479 29.2412 29.1134 29.1885 29.0811C29.2411 29.1135 29.2927 29.1478 29.3428 29.1846Z" fill="#DBC7B7"/>
</svg>
