<svg width="24" height="24" viewBox="0 0 24 24" fill="none" xmlns="http://www.w3.org/2000/svg">
<path d="M22.4231 9.11812C22.3293 8.82986 22.1523 8.5758 21.9144 8.38795C21.6765 8.2001 21.3883 8.08686 21.0862 8.06249L15.5549 7.61624L13.4193 2.45155C13.3038 2.17013 13.1072 1.92941 12.8546 1.76C12.6019 1.59058 12.3046 1.50012 12.0004 1.50012C11.6962 1.50012 11.3989 1.59058 11.1462 1.76C10.8936 1.92941 10.697 2.17013 10.5815 2.45155L8.44775 7.6153L2.91369 8.06249C2.61104 8.08809 2.32268 8.20243 2.08473 8.39118C1.84678 8.57994 1.66982 8.83472 1.57603 9.12361C1.48224 9.41249 1.47578 9.72263 1.55747 10.0152C1.63916 10.3077 1.80536 10.5696 2.03525 10.7681L6.254 14.4084L4.96869 19.8516C4.89777 20.1471 4.91604 20.457 5.02117 20.7422C5.1263 21.0273 5.31359 21.2749 5.55938 21.4537C5.80516 21.6325 6.09841 21.7344 6.40209 21.7466C6.70577 21.7588 7.00625 21.6807 7.26557 21.5222L11.9999 18.6084L16.7371 21.5222C16.9964 21.6798 17.2965 21.7571 17.5997 21.7445C17.9028 21.7318 18.1955 21.6298 18.4408 21.4512C18.686 21.2725 18.873 21.0254 18.978 20.7407C19.0831 20.4561 19.1016 20.1467 19.0312 19.8516L17.7412 14.4075L21.9599 10.7672C22.1917 10.569 22.3594 10.3065 22.4419 10.013C22.5243 9.71939 22.5178 9.40796 22.4231 9.11812ZM20.9849 9.63093L16.4193 13.5684C16.3152 13.6582 16.2377 13.7748 16.1954 13.9056C16.1531 14.0364 16.1475 14.1763 16.1793 14.31L17.5743 20.1975C17.5779 20.2056 17.5783 20.2148 17.5753 20.2232C17.5724 20.2315 17.5663 20.2385 17.5584 20.2425C17.5415 20.2556 17.5368 20.2528 17.5228 20.2425L12.3928 17.0878C12.2745 17.0157 12.1385 16.9777 11.9999 16.9781V2.99999C12.0224 2.99999 12.0253 3.00749 12.0328 3.02437L14.3437 8.61187C14.3964 8.73958 14.4835 8.85024 14.5951 8.93164C14.7068 9.01303 14.8388 9.06199 14.9765 9.07312L20.9681 9.55687C20.9831 9.55687 20.9915 9.55687 20.9999 9.58405C21.0084 9.61124 20.9999 9.62155 20.9849 9.63093Z" fill="#D8502A"/>
</svg>
