<svg width="162" height="162" viewBox="0 0 162 162" fill="none" xmlns="http://www.w3.org/2000/svg">
<g clip-path="url(#clip0_1044_1811)">
<g clip-path="url(#clip1_1044_1811)">
<path d="M87.7619 21.589C93.4917 18.2585 100.837 20.2035 104.167 25.9333L140.106 87.7619C143.436 93.4917 141.491 100.836 135.762 104.167L73.933 140.106C68.2032 143.436 60.8584 141.491 57.5279 135.762L21.5891 73.933C18.2586 68.2032 20.2035 60.8584 25.9333 57.5279L87.7619 21.589Z" fill="#F0EEE7"/>
<path d="M122.677 89.109C122.143 87.3835 120.943 86.166 120.074 85.1563C114.244 78.4096 105.052 77.0812 105.052 77.0812C105.052 77.0812 102.806 74.0587 100.781 73.0488C99.4862 72.4132 98.2468 71.8657 96.9557 71.627C96.7576 71.5817 96.5955 71.5447 96.5284 71.3407C95.7618 69.2225 94.0566 68.0593 91.3352 67.7765C90.3159 67.6755 89.2637 67.7179 88.2337 67.7465C87.907 67.7661 87.5804 67.7857 87.2398 67.7833C83.9361 67.7258 81.4398 67.2871 80.1373 66.9327C71.19 57.7378 60.0336 60.9401 54.5747 64.6717C53.7885 65.2088 52.8148 65.9859 52.0622 66.6249C49.5439 65.785 42.6777 66.1391 39.2838 69.6261C38.0431 70.908 37.5302 72.0735 37.6314 73.4547C37.6991 74.319 38.0173 75.1652 38.6516 76.1213C39.8645 77.9454 41.5606 79.3141 43.0496 80.428C45.0117 81.8764 47.1475 83.0627 48.9698 84.0452C49.1376 84.1402 49.2735 84.209 49.3529 84.3592C50.042 85.573 51.0873 86.4723 52.099 87.2695C53.3482 88.2719 54.7185 89.0757 55.8974 89.7225C56.337 89.955 56.7766 90.1876 57.2023 90.3981C57.5101 90.544 57.8138 90.7077 58.1036 90.8494C58.4933 91.0517 58.8912 91.2181 59.271 91.3804C59.6509 91.5427 62.2558 92.6665 62.4278 92.7436C62.5677 92.7945 63.4675 93.1699 63.9095 93.3087C64.5096 93.5026 65.1277 93.7005 65.7237 93.9122C66.1576 94.0869 66.6136 94.2477 67.0917 94.3948L67.3979 94.4648C68.9862 94.9788 70.6326 95.4873 72.2732 95.9379C73.1476 96.1756 74.0662 96.3856 75.1149 96.6065C75.6373 96.726 76.2137 96.8578 76.8621 97.006C77.3443 97.1351 77.8445 97.2684 78.3848 97.3919C80.3121 97.8326 82.6241 98.2481 85.181 98.5875C85.4012 98.619 88.415 98.9497 89.1158 99.0345C89.4482 99.0727 89.7806 99.111 90.1311 99.1534C91.4287 99.2804 92.7248 99.3315 94.1372 99.3715C95.0026 99.3996 95.8762 99.3919 96.6196 99.3732C97.856 99.3541 98.8721 99.3035 99.8562 99.2267C101.015 99.1332 102.172 98.9639 103.411 98.6815C104.749 98.3838 105.785 97.9981 106.647 97.4596C107.045 97.2111 107.335 97.1074 107.675 97.1099C110.138 97.0316 112.275 96.8035 114.216 96.4363C116.158 96.069 118.689 95.4407 120.929 93.9345C122.568 92.819 123.267 90.9227 122.681 89.0911L122.677 89.109ZM100.146 74.1675C102.452 75.5246 103.989 77.4228 104.708 79.8319C105.064 81.0075 105.166 82.2192 105.015 83.5428C104.797 85.4924 104.127 87.2631 103.522 88.7471L103.449 88.9002C103.202 89.485 102.946 90.1056 102.731 90.7165C102.672 90.8917 102.583 90.9469 102.413 90.9457C102.171 90.928 101.924 90.9282 101.638 90.9382C101.485 90.9411 101.458 90.897 101.458 90.897C101.458 90.897 101.43 90.8529 101.503 90.6998C101.889 89.9205 102.29 89.1633 102.623 88.3716C103.906 85.3264 104.204 82.4517 103.501 79.556C103.032 77.5436 101.856 75.9732 100.102 75.025C98.6195 74.2145 97.068 73.954 95.5017 74.2561L95.3232 74.2907L95.4468 74.4133C95.8135 74.799 96.1933 74.9613 96.9965 75.0129C97.369 75.0415 97.7293 75.1238 98.0911 75.282C99.6466 75.9395 100.712 76.7491 101.456 77.8057C102.141 78.7922 102.515 79.9719 102.614 81.4469C102.712 83.0915 102.523 84.746 102.02 86.3663C101.592 87.7398 100.988 89.0542 100.516 90.0404C100.306 90.4638 100.198 90.6845 100.044 90.7812C99.8888 90.8778 99.6326 90.8381 99.1479 90.8027C98.9236 90.7892 98.7033 90.7577 98.6894 90.7356C98.6796 90.6956 98.7787 90.5108 98.8598 90.3219C99.5782 88.9205 100.134 87.6517 100.601 86.438C100.792 85.9346 101.026 85.1583 101.008 84.3242C100.988 83.9989 101.026 83.668 101.045 83.333C101.073 82.9621 101.105 82.5733 101.079 82.1901C101.065 81.9226 100.996 81.6428 100.859 81.3287L100.867 81.2928C100.798 81.1826 100.741 81.0186 100.552 81.0133C100.346 81.0038 100.305 81.1831 100.303 81.2768C100.298 81.2947 100.294 81.3127 100.29 81.3306C100.257 81.474 100.225 81.6174 100.214 81.747C100.123 83.8012 99.7298 85.5221 99.0187 87.0572C98.6337 87.9123 98.2667 88.7715 97.9176 89.6349C97.798 89.9093 97.6964 90.1879 97.5768 90.4624C97.4957 90.6513 97.4474 90.6968 97.3794 90.6624C97.2713 90.6377 97.1592 90.6309 97.0429 90.6421C96.8685 90.6588 96.7744 90.6561 96.6827 90.5597C96.6647 90.5556 96.6549 90.5156 96.7155 90.4163C96.7196 90.3984 96.7278 90.3625 96.7499 90.3487C97.2316 89.4025 97.7903 88.2853 98.227 87.1214C98.7268 85.7643 99.1824 84.4349 99.0936 82.9999C98.9852 81.0699 98.2389 79.692 96.8366 78.8621C95.72 78.1918 94.4346 78.0111 93.0246 78.2923C91.075 78.6954 89.3767 79.7406 87.6641 81.5937C87.3619 81.9208 87.0818 82.234 86.9114 82.6477C86.9073 82.6657 86.9032 82.6836 86.895 82.7194C86.8524 82.8229 86.7836 82.958 86.8892 83.0765C87.0406 83.2432 87.2314 83.1547 87.3419 83.0857L87.378 83.0939C87.6171 82.96 87.8243 82.7999 88.0355 82.6218L88.1846 82.4673C88.9094 81.7842 89.6383 81.0831 90.4867 80.5226C91.7814 79.668 93.0317 79.2559 94.336 79.2712C96.039 79.2833 97.2464 80.2196 97.7749 81.8872C97.9957 82.5791 98.0119 83.3373 97.8512 84.206C97.5978 85.5628 97.0423 86.8316 96.4951 88.0646C96.418 88.2356 96.3451 88.3887 96.2861 88.5639C96.0551 89.0769 95.8036 89.6796 95.516 90.2741C95.4734 90.3775 95.3228 90.4563 95.1484 90.473C94.974 90.4897 94.8299 90.4567 94.7701 90.3865C94.7521 90.3824 94.7423 90.3424 94.7726 90.2927C94.8398 90.0818 94.925 89.8749 94.9881 89.6818C95.1569 89.1922 95.3437 88.7068 95.4986 88.1952C95.6822 87.5581 95.8739 86.8851 95.9716 86.2095C96.0815 85.4801 96.198 84.6391 96.1 83.8244C96.1081 83.7886 96.0844 83.7265 96.0926 83.6907C96.1049 83.6369 96.0812 83.5749 96.0714 83.5349C95.9537 82.6403 95.5667 81.9293 94.9298 81.4819C94.6523 81.2864 94.3404 81.1585 94.0162 81.0844C93.5839 80.9855 93.091 80.986 92.5735 81.0941C91.2397 81.3738 90.1939 82.1345 89.2742 82.9239C88.7812 83.3394 88.3161 83.7989 87.8771 84.2267C87.3857 84.7179 86.8501 85.2368 86.3128 85.6799C85.4055 86.4155 84.4219 87.1527 83.1823 87.4351C82.9636 87.4794 82.8031 87.5182 82.6509 87.5211C82.0777 87.541 81.7699 87.3951 81.5915 87.0148C81.5261 86.8866 81.4385 86.7723 81.3509 86.658C81.319 86.6318 81.3092 86.5918 81.2772 86.5657C81.2772 86.5657 81.3133 86.5739 81.3534 86.5642C81.3534 86.5642 81.3714 86.5683 81.3894 86.5725C82.8624 86.5131 84.2536 85.9824 85.6032 84.9706C85.6957 84.8974 85.8063 84.8284 85.889 84.7152C85.9676 84.62 86.0364 84.4849 85.989 84.3609C85.9415 84.2368 85.7614 84.1956 85.6534 84.1709C85.1048 84.0832 84.6667 84.3415 84.2507 84.5859C84.2065 84.6135 84.1402 84.6549 84.0959 84.6825C83.1133 85.2501 82.1159 85.5502 81.0458 85.5885C80.6651 85.5957 80.4252 85.4843 80.2304 85.1757C80.0954 84.9373 79.9203 84.7086 79.7492 84.462C79.7075 84.3959 79.6477 84.3256 79.606 84.2595C79.6821 84.2581 79.7583 84.2566 79.8524 84.2593C80.2332 84.252 80.6 84.2227 80.957 84.1534C82.2147 83.8751 83.2841 83.1765 84.153 82.5263C84.8409 82.0045 85.4871 81.4166 86.1111 80.8425C86.5902 80.405 87.0955 79.9358 87.6066 79.5245C89.3992 78.067 91.0361 77.2906 92.7883 77.0876C95.1079 76.8069 97.1105 77.4157 98.7459 78.8837C99.1527 79.2596 99.702 79.5927 100.072 79.7151L100.162 79.7357L100.183 79.646C100.28 79.3854 100.133 79.2008 100.017 79.0424L99.9814 79.0341C98.9092 77.5063 97.6036 76.5853 95.9825 76.2146L95.9285 76.2023C93.497 75.6463 91.1306 76.0484 88.7272 77.4417C87.4612 78.1709 86.3884 79.1328 85.3237 80.0589C85.0379 80.3142 84.7521 80.5695 84.4483 80.8207C83.4139 81.6971 82.1487 82.6716 80.5618 83.0633C80.299 83.1353 80.0443 83.1714 79.8339 83.1798C78.9022 83.1931 78.8882 83.1711 78.6526 82.6268C78.6109 82.5607 78.5732 82.4766 78.5356 82.3925C78.4701 82.2644 78.4005 82.1542 78.3212 82.004C78.3114 81.964 78.2794 81.9378 78.2516 81.8938C78.8747 81.9042 79.4879 81.8746 80.0939 81.7114C80.7219 81.5343 81.3483 81.2814 81.9813 80.9168C83.4201 80.0952 84.7017 79.0489 85.9613 78.0165C86.1947 77.8247 86.4281 77.6328 86.6394 77.4548C87.8989 76.4224 89.2886 75.4008 90.9304 74.8519C91.5887 74.6252 92.3592 74.4053 93.187 74.3493C93.187 74.3493 93.223 74.3576 93.241 74.3617C93.3532 74.3685 93.5997 74.3682 93.585 74.1008C93.5899 73.9133 93.4098 73.8721 93.3198 73.8515C93.3018 73.8474 93.2658 73.8392 93.2477 73.835C91.8674 73.4062 90.563 73.8059 89.3642 74.3241C88.0811 74.8795 86.9968 75.7257 85.9527 76.5621C85.6046 76.8409 85.2566 77.1197 84.9265 77.4027C83.8742 78.275 82.7817 79.157 81.5821 79.8447C80.4708 80.4771 79.5816 80.802 78.6735 80.8773C77.7434 80.9664 77.7074 80.9582 77.4071 80.1162C79.4696 79.9653 81.1958 78.9641 82.76 77.9259C83.4978 77.4344 84.2299 76.885 84.9219 76.3453C85.9096 75.5902 86.9414 74.8076 88.0567 74.1571C90.2612 72.8881 92.58 72.362 94.965 72.6243C97.0356 72.8526 98.736 73.3734 100.192 74.2157L100.146 74.1675ZM93.8373 85.514C93.7457 85.0027 93.4953 84.6059 93.0958 84.3636C92.6464 84.0911 92.0356 84.0269 91.3854 84.2178C90.6329 84.4418 90.0335 84.9084 89.3914 85.4784C89.2022 85.6426 89.0131 85.8068 88.8239 85.9711C88.2301 86.4955 87.6102 87.0517 86.9346 87.5197C86.2369 88.0015 85.3787 88.5221 84.4157 88.7546C83.8721 88.8944 83.344 88.7171 82.8463 88.4901C83.7543 88.4147 84.5216 88.0432 85.1063 87.7241C86.5147 86.9521 87.6826 85.8233 88.8021 84.74L88.9733 84.5716C89.7284 83.8389 90.6383 83.0094 91.7666 82.5506C92.2866 82.3489 92.8606 82.1594 93.4992 82.2677C94.4522 82.4102 94.7189 83.1502 94.7761 83.7292C94.8659 84.5797 94.6913 85.4263 94.5027 86.2509L94.4453 86.5019C94.3281 87.0976 94.1666 87.7209 93.9814 88.2821C93.8142 88.8475 93.6429 89.4308 93.5257 90.0265C93.497 90.152 93.4405 90.2334 93.334 90.2845C93.2276 90.3356 93.1015 90.3068 92.9476 90.2339C92.8796 90.1995 92.8837 90.1815 92.9264 90.0781C92.9264 90.0781 92.9346 90.0422 92.9387 90.0243C93.1566 89.3196 93.3459 88.7404 93.509 88.193C93.8327 87.1918 93.9394 86.3108 93.7832 85.5017L93.8373 85.514ZM91.2404 87.5045C90.845 87.2443 90.4144 87.2213 90.0287 87.4161C89.5947 87.6564 89.2204 87.9669 88.8683 88.2637C88.82 88.3092 88.7536 88.3506 88.7053 88.3962C88.5645 88.5149 88.4056 88.6294 88.2926 88.7922C87.7782 89.4669 87.1633 89.4206 86.415 89.2118C87.55 88.6413 88.518 87.8063 89.4377 87.0168C89.7939 86.7022 90.1502 86.3875 90.5203 86.0949C90.983 85.7291 91.4129 85.5067 91.8862 85.4263C92.1228 85.3861 92.307 85.4094 92.4208 85.492C92.5346 85.5746 92.5919 85.7386 92.6106 85.9881C92.6139 86.1397 92.6269 86.3313 92.5859 86.5106L92.4548 87.0842C92.2498 87.9805 92.0367 88.9127 91.7417 89.7884C91.6868 89.9456 91.6524 90.0132 91.5402 90.0064L91.4682 89.9899C91.2537 90.0163 91.0612 90.0289 90.9155 89.9201C90.8836 89.894 90.9221 89.8085 90.9688 89.6871C90.977 89.6512 90.9811 89.6333 91.0073 89.6016L91.072 89.4843C91.222 89.1602 91.3719 88.8361 91.476 88.4638C91.5456 88.159 91.644 87.7288 91.2625 87.4907L91.2404 87.5045ZM90.0332 88.8884C89.984 89.1035 89.943 89.2828 89.9102 89.4262C89.8692 89.6054 89.8365 89.7489 89.7922 89.7765C89.7259 89.8179 89.5139 89.7505 89.1577 89.6503C89.0857 89.6338 89.0317 89.6214 88.9416 89.6008C89.32 89.2724 89.6598 89.0294 90.0455 88.8346C90.0414 88.8526 90.0373 88.8705 90.0332 88.8884ZM75.5772 82.9799C75.5772 82.9799 75.6051 83.024 75.619 83.0461C76.4504 84.632 77.2065 86.0499 78.1895 87.3876C78.2034 87.4096 78.2353 87.4358 78.2492 87.4578C78.2492 87.4578 78.2672 87.4619 78.2812 87.484C77.478 87.4324 76.9148 87.0772 76.5735 86.4145C76.3493 85.9859 76.0186 85.6085 75.7019 85.2531C75.5824 85.1126 75.4629 84.9721 75.3434 84.8316C74.6902 84.0409 74.2181 83.1219 73.7778 82.229C73.6845 82.0567 73.5953 81.8666 73.5201 81.6984C73.3891 81.4422 73.2443 81.1638 73.1175 80.8896C72.7803 80.2089 72.4293 79.5061 72.0299 78.8489C70.8989 77.0813 69.2724 75.8228 67.1602 75.1135C66.8261 74.9994 66.488 74.9032 66.1458 74.825C64.0024 74.3349 61.8253 74.5727 59.6684 75.5509C59.078 75.812 58.6694 76.1901 58.4162 76.717L58.3433 76.8701L58.5177 76.8534C58.9025 76.8282 59.2137 76.7107 59.5027 76.6071C61.2231 75.963 62.6839 75.5424 64.2764 75.6236C67.2189 75.7683 69.5086 77.0275 71.0857 79.331C71.6087 80.1108 71.999 80.9734 72.3754 81.814C72.4744 82.0441 72.5873 82.2963 72.7044 82.5305C73.3344 83.9196 74.1797 85.5276 75.5115 86.8318C74.9851 86.7303 74.5209 86.6053 74.0731 86.4086C73.9331 86.3577 73.8414 86.2613 73.7399 86.1249C72.644 84.5351 71.7168 82.8706 71.0622 81.5892C70.3478 80.2374 69.6325 79.0553 68.3055 78.3935C67.59 78.0412 66.7533 77.8876 65.6832 77.9259C65.607 77.9274 65.5448 77.9509 65.4785 77.9923C65.4785 77.9923 65.408 78.0516 65.3859 78.0654C65.3859 78.0654 65.3818 78.0834 65.3597 78.0972L65.2852 78.1744L65.385 78.235C65.7763 78.5131 66.1963 78.6657 66.6204 78.8004C66.7964 78.8595 66.9904 78.9227 67.1624 78.9998C68.1341 79.3917 68.888 80.0734 69.4821 81.0393C70.0763 82.0051 70.4871 82.7781 70.8078 83.5305C71.1147 84.2609 71.546 84.9442 72.0894 85.6344L72.1172 85.6785C72.1172 85.6785 72.2507 85.841 72.2981 85.965C71.8045 85.7201 71.2821 85.6007 70.7778 85.4854C70.6157 85.4483 70.4536 85.4113 70.2915 85.3742C69.571 85.2095 69.2568 84.7603 68.986 84.0382C68.707 83.3519 68.3878 82.6753 67.995 81.9065C67.2946 80.5768 66.2279 79.9368 64.7688 80.0181C63.6766 80.0702 62.6392 80.38 61.7761 80.6731C60.9393 80.9345 60.0443 81.2014 59.1183 81.2726C58.7514 81.3019 58.4412 81.2499 58.1333 81.104C57.8075 80.9541 57.4776 80.822 57.1338 80.668C57.0617 80.6515 56.9938 80.6171 56.9258 80.5827C58.7436 80.0929 60.4984 79.3812 62.1869 78.711C62.8534 78.4484 63.542 78.172 64.2266 77.9135L64.3289 77.8803L64.2733 77.7922C64.0507 77.4395 63.8141 77.4797 63.6397 77.4964C63.6216 77.4923 63.6036 77.4881 63.5815 77.502C62.2306 77.608 60.9859 78.078 59.9558 78.5215C58.6325 79.0866 57.3904 79.4628 56.1409 79.7053C55.449 79.83 54.8644 79.7341 54.3151 79.401C54.1833 79.3143 54.0294 79.2414 53.8575 79.1643C53.8395 79.1602 53.8215 79.1561 53.8035 79.152C54.1105 79.0524 54.4315 78.9749 54.7345 78.8933C55.6835 78.6387 56.6685 78.3923 57.3401 77.5273L57.3926 77.4638L57.3508 77.3977C57.1896 77.1911 57.025 77.2478 56.9407 77.2851L56.9226 77.2809C56.18 77.545 55.3955 77.7429 54.6291 77.9449C54.3081 78.0224 53.9651 78.1137 53.6441 78.1912C53.5638 78.2106 53.4836 78.23 53.3853 78.2453C53.2871 78.2605 53.1888 78.2758 53.1045 78.3131C52.5788 78.457 52.1244 78.3719 51.6734 78.0236L52.0771 77.833C52.4587 77.6561 52.8583 77.4834 53.2399 77.3066C54.0031 76.9529 54.7384 76.5552 55.5401 76.116C55.7129 76.0234 55.8898 75.913 56.0806 75.8246C57.5996 74.9835 59.1849 74.1011 60.8807 73.5645C62.4701 73.0791 63.9676 72.9122 65.4634 73.0844C68.1047 73.3866 70.3011 74.4735 71.9946 76.3509C72.9948 77.4473 73.8214 78.8058 74.5021 80.4705L74.5397 80.5546C74.6486 80.8247 74.7713 81.1168 75.1511 81.2791L75.2772 81.308L75.3018 81.2004C75.338 80.7937 75.2316 80.4298 75.1171 80.1018C75.0934 80.0398 75.0696 79.9778 75.05 79.8979C74.7032 78.7622 74.3301 77.6583 73.6958 76.7022C72.8529 75.4154 71.8461 74.4307 70.6796 73.7301C67.1079 71.6119 63.3024 71.3454 59.367 72.9732C58.2386 73.432 57.1937 74.023 55.972 74.7245C55.7992 74.8171 55.6223 74.9275 55.4495 75.0201C54.0287 75.8459 52.5457 76.6951 50.9719 77.2784C50.6428 77.3918 50.4585 77.3685 50.2752 77.1757C50.398 77.0529 50.5626 76.9962 50.7092 76.9354C50.7935 76.8981 50.8558 76.8746 50.9401 76.8373C51.9686 76.318 52.9317 75.6705 53.8726 75.0368C54.4114 74.6695 54.9945 74.2747 55.5653 73.9336C58.6263 72.0682 61.7321 71.2504 65.1151 71.458C68.0135 71.6303 70.3213 72.4787 72.2048 74.0223C73.0349 74.7025 73.7396 75.5993 74.3828 76.765C74.8353 77.6041 75.2395 78.4888 75.6118 79.3473C76.0259 80.2719 76.4538 81.2186 76.9481 82.1239C78.0201 84.0667 79.0251 85.8055 80.2331 87.4021C80.3804 87.5867 80.5318 87.7534 80.6833 87.92C80.7152 87.9462 80.743 87.9903 80.7749 88.0165C80.3844 87.9838 80.0889 87.7841 79.8164 87.4011C78.9333 86.124 78.2589 85.1776 77.5902 84.289C77.2857 83.8799 76.9371 83.4983 76.6064 83.1209C76.4828 82.9984 76.3813 82.862 76.2577 82.7394C76.2577 82.7394 76.2258 82.7132 76.2119 82.6912C76.1382 82.5989 76.0089 82.4184 75.8099 82.5427C75.7436 82.5841 75.6911 82.6476 75.6788 82.7014C75.6543 82.8089 75.7279 82.9012 75.7656 82.9853L75.5772 82.9799ZM64.8027 82.0254C64.8027 82.0254 64.6586 81.9924 64.5644 81.9897C63.9414 81.9793 63.0235 82.0147 62.1858 82.4456C61.9066 82.5893 61.638 82.6033 61.3801 82.4878C61.2262 82.4148 61.0682 82.3598 60.9102 82.3049C60.7342 82.2457 60.5582 82.1866 60.3904 82.0917C60.948 81.974 61.4999 81.7983 62.0297 81.6365C62.6397 81.4553 63.2538 81.2562 63.8835 81.155C64.3207 81.0663 64.6834 81.0549 65.0199 81.0753C66.0876 81.1308 66.5344 81.912 66.9288 82.7567C67.1309 83.1991 67.3289 83.6593 67.5089 84.1155C67.5801 84.3015 67.6513 84.4875 67.7265 84.6557C67.4728 84.5222 67.2026 84.4604 66.9365 84.3807C66.6663 84.3189 66.4183 84.2433 66.1604 84.1278C65.9885 84.0508 65.9812 83.917 65.9599 83.7613C65.9183 83.2802 65.78 82.8902 65.5034 82.5251C65.3004 82.2523 65.0368 82.0789 64.7667 82.0171L64.8027 82.0254ZM64.7122 83.6646L63.0601 83.0982C63.4793 83.0055 63.8281 82.972 64.1826 82.9965C64.5371 83.021 64.6656 83.371 64.7122 83.6646ZM78.496 74.4421C78.4729 75.0405 78.6365 75.5683 78.8042 76.0783C78.9286 76.4462 79.0529 76.8142 79.1773 77.1822C79.3016 77.5501 79.426 77.9181 79.5462 78.304C79.5462 78.304 79.5757 78.4239 79.5716 78.4418C79.5716 78.4418 79.5675 78.4597 79.5274 78.4694C79.4651 78.4929 79.4029 78.5164 79.3546 78.562C79.2481 78.6131 79.1998 78.6586 79.1097 78.638C79.1097 78.638 79.0737 78.6298 79.0762 78.536C79.0803 78.5181 79.0885 78.4823 79.0746 78.4602C78.8941 76.9288 78.3066 75.4363 77.2607 73.8767C75.6222 71.4272 73.4612 69.6881 70.8775 68.72C68.4837 67.8332 65.9063 67.5834 63.0012 67.9377C61.0124 68.1809 59.297 68.6375 57.7829 69.2911C57.4677 69.4265 57.1581 69.6198 56.7863 69.8366C56.6537 69.9194 56.322 70.1266 56.4767 70.4449C56.6174 70.7411 56.9106 70.6195 57.0572 70.5587C57.0752 70.5628 57.1014 70.5311 57.1415 70.5214C58.364 70.0653 59.4817 69.7361 60.5388 69.5062C62.8093 69.0256 64.8538 68.8706 66.7762 69.0838C69.8121 69.4007 72.2451 70.4475 74.1933 72.2888C76.2191 74.2045 77.3787 76.2616 77.7596 78.5745C77.7654 78.6324 77.7932 78.6765 77.7989 78.7344C77.8324 78.8364 77.866 78.9384 77.8316 79.006C77.8234 79.0418 77.757 79.0833 77.6768 79.1026C77.0889 79.27 76.9072 79.153 76.7525 78.8347C76.6257 78.5605 76.4947 78.3042 76.3499 78.0258C76.0128 77.3451 75.6797 76.6465 75.2844 75.9714C73.9456 73.7035 72.0883 72.1282 69.7624 71.2757L69.6003 71.2386C69.0625 71.0213 68.4845 70.8137 67.9261 70.686C67.8901 70.6778 67.8541 70.6696 67.818 70.6613C66.5712 70.3951 65.5199 70.2679 64.5202 70.2468C62.05 70.1913 59.7115 70.6375 57.5268 71.5715C57.2738 71.6835 57.1879 71.6449 57.0847 71.4327C56.5708 70.4475 55.6868 69.7549 54.4145 69.3509C54.2524 69.3138 54.1026 69.223 53.9528 69.1321C54.0577 69.0052 54.1723 68.9182 54.3009 68.8533C54.3451 68.8257 54.3672 68.8119 54.4114 68.7843C56.6913 67.2683 59.1135 66.1245 61.6338 65.3804C64.0518 64.6694 66.2871 64.426 68.4338 64.6528C71.1372 64.9314 73.4802 65.9575 75.6388 67.7904C77.131 69.0559 78.1091 70.1661 78.8023 71.362C79.9644 73.3254 80.6769 75.4312 80.9064 77.5775C80.9194 77.7691 80.8531 77.8106 80.6983 77.9072C80.6983 77.9072 80.6541 77.9348 80.632 77.9486C80.4275 77.1851 80.2067 76.4932 79.9514 75.869C79.71 75.2668 79.408 74.7639 79.0135 74.3341C79.0135 74.3341 78.9816 74.3079 78.9857 74.29C78.9259 74.2198 78.8384 74.1054 78.6738 74.1621C78.5092 74.2188 78.5124 74.3704 78.5058 74.4821L78.496 74.4421ZM55.9933 71.7302C56.1267 71.8927 56.1921 72.0209 56.1675 72.1284C56.1471 72.2181 56.0504 72.3092 55.8375 72.4114C55.7089 72.4763 55.6909 72.4722 55.6214 72.362C54.9748 71.4596 54.0309 71.1117 53.0763 70.8935C51.1351 70.4307 49.2863 70.7248 47.5396 71.8156C46.9647 72.1746 46.4635 72.6259 46.0442 73.1336C46.0401 73.1515 46.0139 73.1833 45.9876 73.215C45.9573 73.2647 45.9311 73.2964 45.909 73.3102C45.6709 72.8596 45.7012 72.81 46.0656 72.4595C47.9722 70.6696 50.1102 69.8569 52.3855 70.0187C52.758 70.0473 53.0863 70.1035 53.4105 70.1776C54.4912 70.4247 55.3401 70.9395 55.9712 71.744L55.9933 71.7302ZM47.0143 73.4498C47.8431 72.8093 48.5784 72.4115 49.3309 72.1875C50.5289 71.8389 51.6252 71.7689 52.6338 71.9995C53.2102 72.1313 53.7661 72.3527 54.2974 72.6817C54.3473 72.712 54.4152 72.7464 54.4611 72.7946C54.4971 72.8028 54.511 72.8249 54.5429 72.851C54.6747 72.9378 54.6804 72.9957 54.6944 73.0177C54.6862 73.0535 54.6378 73.0991 54.5674 73.1584C54.497 73.2178 54.4085 73.273 54.3381 73.3324C54.334 73.3503 54.2898 73.3779 54.2677 73.3917C54.0384 73.5656 53.9319 73.6168 53.6888 73.3537C53.2665 72.8798 52.614 72.7495 52.0974 72.688C50.3371 72.5118 48.7698 72.9835 47.4456 74.1331C47.2081 74.3429 47.0287 74.5471 46.8993 74.7816C46.5342 74.4718 46.337 74.2569 46.3337 74.1053C46.3305 73.9536 46.5598 73.7797 46.9963 73.4456L47.0143 73.4498ZM47.9751 74.8012C47.9751 74.8012 48.17 74.6949 48.2585 74.6397C49.4967 73.8664 50.8002 73.6363 52.1248 73.9769C52.341 74.0264 52.5751 74.0799 52.7913 74.1293C52.8633 74.1458 52.9534 74.1664 53.0254 74.1829C53.0254 74.1829 52.955 74.2422 52.9329 74.256C52.5365 74.5804 52.1483 74.8689 51.5966 74.6295C50.475 74.1467 48.8233 75.0706 48.286 75.9286C47.9462 75.7566 47.645 75.4991 47.3921 75.1961C47.5493 75.0057 47.7442 74.8993 47.9792 74.7833L47.9751 74.8012ZM50.8217 75.6973C50.3533 76.0052 49.9152 76.2634 49.3829 76.519C49.1659 76.6391 49.0521 76.5565 48.8287 76.3734C48.8287 76.3734 48.8107 76.3693 48.7967 76.3472C49.492 75.9592 50.0685 75.676 50.8217 75.6973ZM83.6464 73.0544C84.3652 73.1433 85.1963 73.239 85.3444 73.254C85.5688 73.2676 86.1681 73.216 86.3744 73.2255C86.5988 73.239 86.8231 73.2526 87.0352 73.3199C86.8984 73.4207 86.7436 73.5174 86.611 73.6002C86.3456 73.7659 85.2622 74.4425 85.0067 74.6481C85.001 74.5902 84.3663 75.2939 84.3606 75.236C84.345 75.1382 84.2796 75.01 84.228 74.9039C84.1707 74.7399 84.1356 74.5621 84.0963 74.4022C84.0571 74.2424 84.0137 74.1004 83.9745 73.9405C83.9311 73.7986 83.8878 73.6566 83.8403 73.5326C83.783 73.3686 83.7258 73.2046 83.6644 73.0585L83.6464 73.0544ZM83.207 71.9919C83.0425 71.6336 82.8642 71.2533 82.6498 70.8648C83.6249 70.9934 85.3491 71.1613 87.4394 71.0545C88.2672 70.9986 89.0212 71.2653 89.8358 71.4327C90.052 71.4821 90.2861 71.5356 90.5219 71.665C89.9782 71.8048 89.4181 72.0162 88.8015 72.3091C88.6549 72.3699 88.5329 72.3231 88.3847 72.3081C87.119 72.2073 86.0767 72.2897 85.2154 72.2436C84.4122 72.192 83.7556 72.0796 83.1931 71.9699L83.207 71.9919ZM88.3415 69.016C90.2672 68.9659 91.8957 69.0553 93.3193 69.6261C93.9972 69.8942 94.5996 70.4093 95.1365 71.2111C95.1783 71.2772 95.1922 71.2993 95.1881 71.3172C95.1881 71.3172 95.1479 71.3269 95.0538 71.3242C94.3391 71.2174 93.6316 71.2443 92.9021 71.2849C92.7498 71.2879 92.6557 71.2852 92.5419 71.2026C91.2403 70.2636 89.7757 69.8721 88.0579 70.0075C87.172 70.0691 83.4557 69.9927 82.7172 69.8239C82.429 69.758 82.2088 69.7265 82.0205 69.7211C81.7365 69.2224 81.5401 68.8379 81.3674 68.5155C82.304 68.7296 84.5039 69.1383 88.3554 69.0381L88.3415 69.016ZM56.2023 64.9307C60.1911 62.6549 65.08 62.2448 67.045 62.3546C68.3149 62.4375 73.424 62.0589 79.0653 67.725C81.268 69.9452 82.3184 72.9771 83.1028 75.9293C83.1518 76.1292 83.0912 76.2285 82.9504 76.3472C82.8799 76.4065 82.7874 76.4797 82.6809 76.5308C82.5262 76.6275 82.3673 76.742 82.2002 76.8925C82.0165 75.2094 81.5076 73.6217 80.5314 71.7574C79.7376 70.2555 78.7227 68.8917 77.4925 67.7238C75.8456 66.14 74.4261 65.1364 72.8748 64.461C71.0516 63.648 69.0319 63.2805 66.8916 63.357C64.08 63.4686 61.3075 64.1551 58.4234 65.4952C57.0699 66.1099 55.8743 66.7797 54.7745 67.528C54.1292 67.9463 53.6141 68.3756 53.1751 68.8034C53.0342 68.9221 52.9278 68.9732 52.7616 68.9541C52.0788 68.8734 51.3714 68.9003 50.6574 69.0388C50.7278 68.9795 50.8023 68.9022 50.8768 68.8249C51.0218 68.6883 51.2028 68.5599 51.3879 68.4136C52.8309 67.159 54.436 65.9416 56.1982 64.9486L56.2023 64.9307ZM102.388 97.3535C102.152 97.3937 101.897 97.4298 101.66 97.47C101.504 97.4908 101.348 97.5117 101.191 97.5325C99.8959 97.7267 98.6293 97.7955 97.1203 97.8466C95.4591 97.9006 93.8084 97.825 92.5705 97.7683C92.3462 97.7547 92.1218 97.7412 91.8975 97.7276C91.0362 97.6816 90.1528 97.6493 89.2939 97.5096C88.9476 97.4492 88.5931 97.4248 88.2607 97.3865C87.74 97.3429 84.1859 96.8886 84.0958 96.868C79.8999 96.1538 76.4834 95.4293 73.32 94.5928C71.3371 94.0639 69.2822 93.5186 67.2944 92.7623C66.7525 92.5629 66.1884 92.3774 65.6423 92.1959C65.3583 92.1121 65.0783 92.0103 64.7942 91.9265C63.7741 91.5801 62.9022 91.2487 62.1147 90.88C61.567 90.6227 61.0111 90.4013 60.4553 90.1799C60.1253 90.0479 59.7774 89.9117 59.4516 89.7618C59.2076 89.6683 58.9719 89.5389 58.7541 89.4137C58.5322 89.3063 58.3145 89.1811 58.0926 89.0738C56.8851 88.5525 55.7546 87.8601 54.5881 87.1596C54.0249 86.8044 53.4256 86.441 52.8829 85.9963C60.8501 89.3648 69.0975 92.0051 77.409 93.8678C85.6845 95.7222 94.2582 96.8527 102.87 97.2372C102.727 97.2801 102.567 97.3188 102.41 97.3397L102.388 97.3535ZM119.954 92.7305C118.108 94.0061 115.959 94.5335 113.902 94.9118C109.961 95.6518 106.013 95.6736 102.656 95.6038C100.616 95.5713 98.449 95.4341 96.0157 95.2173C94.3455 95.0618 92.7015 94.8745 91.1238 94.6458C89.3799 94.398 87.5059 94.1392 85.6482 93.8088C83.7864 93.4963 81.973 93.1382 80.2357 92.7787C79.7854 92.6757 79.3269 92.6086 78.8725 92.5236C78.0538 92.3741 77.1991 92.2164 76.3968 91.9952C75.5944 91.7741 74.752 91.5626 73.9415 91.3772C73.239 91.2166 72.5006 91.0478 71.7924 90.8293C71.4502 90.751 71.1162 90.6369 70.7559 90.5545C69.8455 90.3087 68.9171 90.0586 68.015 89.7769C67.4329 89.5872 66.8508 89.3975 66.2826 89.2299C65.1324 88.8726 63.9502 88.4891 62.7901 88.0918C60.2538 87.2478 58.0181 86.4159 55.9427 85.5453C52.0459 83.9375 47.5122 81.8822 43.4741 78.9028C42.0948 77.8895 40.5485 76.6117 39.5436 74.8728C38.9756 73.8753 38.8318 73.0124 39.1006 72.1684C39.3611 71.3603 39.9492 70.778 40.4283 70.3405C41.6641 69.2461 43.1512 68.3788 45.3538 67.8639C49.9334 66.8172 51.3923 67.1508 51.5863 67.214C51.5863 67.214 50.9107 67.682 50.6306 67.9952C50.5782 68.0587 50.5258 68.1222 50.4775 68.1677C50.4775 68.1677 50.4775 68.1677 50.4734 68.1856C50.4431 68.2353 50.4169 68.267 50.3726 68.2946C50.2154 68.485 50.0802 68.6616 49.9754 68.7886C49.7862 68.9528 49.5553 69.0509 49.1074 69.2692C48.9387 69.3438 47.387 69.9133 47.1782 69.9976C46.6803 70.1855 46.2504 70.4079 45.8442 70.6923C44.8206 71.4391 44.4206 72.8567 44.9779 73.9839C45.4517 74.9788 46.2154 75.7004 46.8318 76.2375C48.2421 77.4465 49.9236 78.5478 52.1216 79.7106C54.1019 80.7481 56.2967 81.7593 58.828 82.7908C60.2656 83.3836 61.7556 83.9129 63.2095 84.434L63.4535 84.5275C64.8894 85.0444 66.4237 85.5461 67.98 86.034C68.8641 86.3116 69.7885 86.5796 70.6628 86.8172C71.163 86.9505 71.6412 87.0975 72.1373 87.2487C75.7985 88.3122 79.4229 89.122 82.511 89.7904C83.1414 89.9346 83.78 90.0429 84.3965 90.165C85.031 90.2912 85.6696 90.3995 86.3 90.5436C86.7503 90.6466 87.2129 90.6957 87.6534 90.7587C88.0938 90.8217 88.5564 90.8709 88.9887 90.9697C89.6551 91.1221 90.338 91.2028 91.0028 91.2794C91.3712 91.3259 91.7396 91.3724 92.1261 91.423C92.8048 91.5216 93.5056 91.6064 94.1745 91.665C94.4889 91.6992 94.8033 91.7334 95.1177 91.7675C96.2991 91.9056 97.5649 92.0064 98.9649 92.1002C101.549 92.2383 103.691 92.2376 105.677 92.0881C105.852 92.0714 106.026 92.0547 106.214 92.0601C106.791 92.0223 107.405 91.9927 107.962 91.875C109.39 91.5979 110.562 91.2811 111.651 90.6624C112.089 90.4042 112.464 90.0936 112.742 89.7046C113.309 88.9665 113.219 88.116 112.791 87.1693C112.325 86.1385 111.076 84.8907 110.637 84.4886C107.891 81.9932 106.692 82.0964 106.692 82.0964C106.528 81.3232 105.594 78.5255 105.297 77.8351C105.505 77.9204 105.713 78.0056 105.921 78.0909C106.459 78.3082 106.997 78.5255 107.53 78.7607C109.606 79.6314 112.28 80.8654 114.711 82.6663C115.941 83.5887 117.354 84.704 118.565 86.0373L118.749 86.2302C119.639 87.226 120.58 88.2522 120.975 89.5877C121.391 91.0031 121.062 91.9464 119.913 92.7402L119.954 92.7305ZM106.319 84.1426C106.374 84.6457 106.354 85.1503 106.275 85.6605C106.044 87.2489 105.487 88.8569 104.609 90.5424C104.601 90.5782 104.597 90.5962 104.571 90.6279C104.463 90.8486 104.399 90.9658 104.174 90.9523C104.12 90.9399 104.03 90.9193 104.012 90.9152C104.012 90.9152 104.02 90.8793 104.041 90.7897C104.391 90.1717 104.676 89.5015 104.958 88.8491L104.991 88.7057C105.684 87.1665 106.105 85.6593 106.301 84.1385L106.319 84.1426ZM107.269 83.3035C108.422 83.8125 108.589 84.9069 108.531 86.4028C108.481 87.6174 108.102 88.7758 107.201 89.9843C107.192 90.0201 107.152 90.0298 107.126 90.0616C107.078 90.1071 107.025 90.1706 106.991 90.2382C106.75 90.7113 106.36 90.9239 105.786 90.868C107.216 88.1769 107.68 85.5668 107.265 83.3214L107.269 83.3035ZM109.648 85.4132C110.153 85.7739 110.597 86.4035 110.978 86.8112C112.464 88.4338 111.275 89.8218 109.377 90.331C108.976 90.4279 108.649 90.4475 108.256 90.5085C109.398 88.9965 109.855 87.3279 109.648 85.4132Z" fill="#434D37"/>
<path d="M77.2583 71.2349C76.291 69.5802 75.1213 68.313 73.6716 67.359C72.2398 66.4092 70.5296 65.8484 68.3149 65.5872C66.0602 65.3357 63.811 65.5571 61.6476 66.232C60.873 66.4698 60.0321 66.7491 59.3081 67.2627C59.2197 67.3179 59.0125 67.478 59.0935 67.704C59.1884 67.9521 59.4111 67.8898 59.5356 67.8428L59.5536 67.847C59.7583 67.7806 59.9008 67.7377 60.0474 67.6769C61.1995 67.2801 62.1886 67.0159 63.1171 66.8509C64.8538 66.5501 66.4929 66.5099 68.0927 66.7248C69.4002 66.8917 70.4768 67.1567 71.4625 67.5707C72.8821 68.1594 74.1533 69.148 75.5636 70.772C75.6372 70.8643 75.7109 70.9566 75.7846 71.0489C76.1251 71.4663 76.4795 71.9057 76.9977 72.0431C77.0517 72.0554 77.1197 72.0898 77.1737 72.1022C77.2458 72.1186 77.3178 72.1351 77.3702 72.0716C77.4628 71.9985 77.4554 71.8648 77.4399 71.7669C77.399 71.5312 77.3418 71.3672 77.2444 71.2129L77.2583 71.2349Z" fill="#434D37"/>
<path d="M102.011 32.5371L133.113 86.0458C136.305 91.5368 134.441 98.5757 128.95 101.767L74.4881 133.424C68.9972 136.616 61.9584 134.752 58.7666 129.261L27.6638 75.7523C24.4721 70.2613 26.3361 63.2225 31.827 60.0307L86.289 28.3738C91.78 25.1821 98.8188 27.046 102.011 32.5371Z" stroke="#434D37"/>
</g>
</g>
<defs>
<clipPath id="clip0_1044_1811">
<rect width="135" height="135" fill="white" transform="translate(30.0913) rotate(12.8793)"/>
</clipPath>
<clipPath id="clip1_1044_1811">
<path d="M87.7619 21.589C93.4917 18.2585 100.837 20.2035 104.167 25.9333L140.106 87.7619C143.436 93.4917 141.491 100.836 135.762 104.167L73.933 140.106C68.2032 143.436 60.8584 141.491 57.5279 135.762L21.5891 73.933C18.2586 68.2032 20.2035 60.8584 25.9333 57.5279L87.7619 21.589Z" fill="white"/>
</clipPath>
</defs>
</svg>
