<svg width="221" height="221" viewBox="0 0 221 221" fill="none" xmlns="http://www.w3.org/2000/svg">
<path d="M149.543 49.6662C150.435 50.239 151.015 51.1542 151.435 52.1692C151.854 53.1841 152.136 54.3568 152.396 55.4985C152.659 56.657 152.899 57.7823 153.236 58.7691C153.574 59.7583 153.988 60.5406 154.555 61.0444C155.142 61.5658 155.983 61.8965 157.011 62.1248C158.038 62.3528 159.186 62.4663 160.366 62.5938C161.528 62.7196 162.721 62.8592 163.768 63.1493C164.815 63.4391 165.781 63.8957 166.44 64.7C167.107 65.5151 167.372 66.5604 167.454 67.6516C167.536 68.7431 167.44 69.9445 167.333 71.1104C167.225 72.2933 167.106 73.4393 167.122 74.4853C167.138 75.5336 167.291 76.4114 167.677 77.0739L167.677 77.0733C168.068 77.7447 168.761 78.3164 169.667 78.8503C170.571 79.3832 171.628 79.8459 172.71 80.3335C173.777 80.8141 174.867 81.3191 175.775 81.923C176.681 82.5265 177.46 83.2645 177.838 84.2381C178.218 85.2153 178.144 86.2886 177.884 87.349C177.624 88.4097 177.16 89.5207 176.699 90.5962C176.23 91.6871 175.764 92.7414 175.458 93.743C175.15 94.7469 175.025 95.633 175.189 96.3874C175.354 97.1419 175.837 97.8955 176.534 98.6805C177.229 99.4638 178.092 100.229 178.972 101.026C179.839 101.812 180.723 102.629 181.401 103.485C182.078 104.341 182.592 105.286 182.653 106.333C182.714 107.376 182.313 108.371 181.739 109.298C181.166 110.225 180.383 111.138 179.614 112.019C178.833 112.913 178.064 113.773 177.464 114.633C176.863 115.495 176.471 116.303 176.394 117.075C176.319 117.839 176.545 118.7 176.966 119.66C177.387 120.618 177.972 121.611 178.563 122.641C179.145 123.657 179.732 124.71 180.112 125.736C180.491 126.763 180.685 127.824 180.417 128.842C180.153 129.848 179.464 130.665 178.633 131.364C177.802 132.064 176.775 132.687 175.77 133.285C174.751 133.891 173.754 134.473 172.915 135.107C172.075 135.743 171.447 136.394 171.131 137.112C170.825 137.806 170.775 138.689 170.879 139.729C170.983 140.767 171.233 141.89 171.475 143.053C171.714 144.199 171.946 145.383 171.986 146.481C172.027 147.578 171.881 148.651 171.308 149.543C170.735 150.435 169.821 151.015 168.806 151.434C167.791 151.854 166.618 152.136 165.476 152.396C164.317 152.66 163.192 152.9 162.205 153.237C161.216 153.574 160.434 153.989 159.93 154.555C159.409 155.142 159.078 155.983 158.85 157.011C158.622 158.038 158.508 159.187 158.381 160.366C158.255 161.528 158.115 162.721 157.825 163.768C157.535 164.815 157.079 165.781 156.274 166.44C155.47 167.098 154.43 167.357 153.343 167.438C152.254 167.518 151.052 167.423 149.884 167.319C148.699 167.213 147.547 167.097 146.497 167.117C145.445 167.136 144.563 167.291 143.901 167.678C143.229 168.069 142.658 168.761 142.124 169.667C141.591 170.571 141.129 171.628 140.641 172.71C140.16 173.777 139.655 174.868 139.051 175.775C138.448 176.681 137.71 177.46 136.736 177.838C135.759 178.218 134.686 178.145 133.625 177.884C132.565 177.624 131.454 177.161 130.379 176.699C129.288 176.231 128.233 175.765 127.231 175.458C126.227 175.151 125.341 175.025 124.587 175.19C123.832 175.354 123.079 175.837 122.294 176.534C121.511 177.229 120.746 178.092 119.949 178.971C119.163 179.839 118.346 180.723 117.489 181.401C116.633 182.079 115.688 182.592 114.641 182.653C113.598 182.714 112.603 182.313 111.677 181.74C110.75 181.166 109.837 180.384 108.956 179.614C108.063 178.833 107.202 178.064 106.341 177.464C105.479 176.863 104.672 176.471 103.899 176.395C103.136 176.319 102.274 176.545 101.314 176.966C100.356 177.387 99.3636 177.972 98.3331 178.563C97.3173 179.145 96.2647 179.732 95.2379 180.112C94.2115 180.491 93.1508 180.685 92.132 180.418C91.113 180.15 90.2882 179.461 89.585 178.628C88.8819 177.794 88.2606 176.768 87.6661 175.764C87.063 174.745 86.4877 173.749 85.858 172.912C85.2274 172.073 84.5806 171.448 83.8629 171.131C83.1454 170.815 82.2495 170.761 81.208 170.863C80.1676 170.966 79.0476 171.216 77.8906 171.46C76.7503 171.702 75.5741 171.937 74.4831 171.981C73.3914 172.025 72.3234 171.881 71.4311 171.308C70.5391 170.736 69.9596 169.821 69.5401 168.806C69.1205 167.791 68.8382 166.618 68.5784 165.476C68.3148 164.318 68.0748 163.192 67.7378 162.205C67.4 161.216 66.9858 160.434 66.4193 159.93L66.4198 159.929C65.8332 159.408 64.9915 159.078 63.9633 158.85C62.9367 158.622 61.7878 158.508 60.6086 158.381C59.4462 158.255 58.2535 158.115 57.2062 157.825C56.1596 157.535 55.1932 157.079 54.5346 156.275C53.8673 155.459 53.6027 154.414 53.5204 153.323C53.4381 152.231 53.534 151.03 53.6409 149.864C53.7493 148.681 53.8686 147.535 53.8525 146.489C53.8363 145.441 53.683 144.563 53.2968 143.901L53.2974 143.9C52.9057 143.229 52.2127 142.658 51.3075 142.124C50.4036 141.591 49.3461 141.129 48.2641 140.641C47.1976 140.16 46.1067 139.655 45.1996 139.052C44.2929 138.448 43.5146 137.71 43.136 136.736C42.7559 135.759 42.8298 134.686 43.0899 133.626C43.3502 132.565 43.814 131.454 44.2757 130.378C44.7439 129.287 45.2098 128.233 45.5165 127.232C45.8238 126.228 45.9492 125.342 45.7848 124.587C45.6203 123.833 45.1377 123.079 44.4405 122.294C43.7449 121.511 42.8826 120.746 42.0029 119.949C41.1356 119.163 40.2515 118.346 39.5736 117.489C38.8959 116.633 38.3821 115.688 38.3211 114.641C38.2602 113.595 38.6606 112.598 39.2342 111.671C39.8081 110.743 40.5908 109.83 41.3608 108.95C42.142 108.057 42.9106 107.198 43.5107 106.339C44.1119 105.479 44.5031 104.672 44.5798 103.899C44.6563 103.126 44.4304 102.259 44.0096 101.299C43.5894 100.34 43.0042 99.3474 42.4133 98.3194C41.8309 97.3062 41.2428 96.2577 40.8631 95.2337C40.4834 94.2098 40.2891 93.1511 40.5568 92.1322C40.821 91.1268 41.5099 90.3095 42.341 89.6104C43.1726 88.9109 44.199 88.2877 45.2038 87.6897C46.2231 87.0831 47.2212 86.5024 48.0599 85.868C48.9002 85.2323 49.527 84.5807 49.8434 83.8623C50.149 83.1682 50.1994 82.2852 50.0951 81.2455C49.991 80.2079 49.7411 79.0847 49.4987 77.9216C49.2598 76.7753 49.0286 75.5911 48.9877 74.4936C48.9469 73.3962 49.0932 72.3233 49.666 71.4312C50.2388 70.5392 51.1536 69.9598 52.1685 69.5402C53.1835 69.1207 54.3565 68.8384 55.4983 68.5786C56.6568 68.315 57.7821 68.0749 58.769 67.7379C59.7582 67.4001 60.5405 66.986 61.0443 66.4194C61.5657 65.8328 61.8972 64.9923 62.1255 63.964C62.3535 62.9373 62.4662 61.7881 62.5937 60.6088C62.7194 59.4463 62.8591 58.2537 63.1491 57.2064C63.439 56.1598 63.8956 55.1933 64.6999 54.5348C65.5149 53.8675 66.5602 53.6028 67.6514 53.5205C68.7429 53.4383 69.9443 53.5342 71.1103 53.641C72.2932 53.7494 73.4391 53.8688 74.4851 53.8526C75.5335 53.8364 76.4112 53.6832 77.0737 53.297C77.7449 52.9053 78.3164 52.213 78.8502 51.3077C79.3831 50.4038 79.8465 49.3468 80.3341 48.2648C80.8148 47.1983 81.3189 46.1069 81.9228 45.1997C82.5264 44.2931 83.2643 43.5147 84.2379 43.1362C85.2115 42.7577 86.2828 42.8334 87.3418 43.0937C88.4015 43.3542 89.5129 43.8162 90.5893 44.2773C91.6813 44.7451 92.7379 45.2116 93.741 45.5178C94.746 45.8245 95.6328 45.9493 96.3873 45.7849C97.1418 45.6205 97.8953 45.1378 98.6803 44.4407C99.4635 43.7451 100.228 42.8827 101.026 42.003C101.811 41.1358 102.629 40.2517 103.485 39.5737C104.341 38.896 105.286 38.3822 106.333 38.3213L106.528 38.3155C107.5 38.3117 108.429 38.6974 109.298 39.235C110.224 39.8088 111.138 40.591 112.019 41.3608C112.912 42.1417 113.773 42.9106 114.633 43.5107C115.495 44.1117 116.302 44.5033 117.075 44.5799C117.838 44.6554 118.7 44.4296 119.66 44.0081C120.618 43.5876 121.611 43.0023 122.641 42.4115C123.657 41.8292 124.709 41.2421 125.736 40.8628C126.763 40.4836 127.823 40.2893 128.842 40.557C129.848 40.8212 130.665 41.51 131.364 42.3411C132.063 43.1728 132.687 44.1992 133.285 45.2039C133.891 46.2231 134.473 47.2206 135.107 48.0593C135.743 48.8996 136.394 49.5272 137.112 49.8436C137.83 50.1595 138.725 50.2135 139.766 50.1112C140.807 50.0089 141.927 49.7587 143.084 49.514C144.224 49.2729 145.4 49.0374 146.491 48.9934C147.583 48.9494 148.651 49.0931 149.543 49.6662Z" fill="#8A2F22" stroke="#F0EEE7"/>
<path d="M145.456 138.769C145.553 138.465 145.61 138.147 145.707 137.842L148.009 130.631C148.009 130.631 148.068 130.448 148.08 130.34C148.093 130.299 148.112 130.238 148.125 130.198C148.202 129.887 148.207 129.306 147.41 129.052C147.165 128.974 146.94 128.902 146.695 128.823C146.531 128.771 146.368 128.719 146.204 128.667C146.163 128.654 146.143 128.647 146.143 128.647C146.143 128.647 146.156 128.607 146.169 128.566L146.253 128.302C146.484 126.943 146.769 125.557 146.816 124.139C146.843 123.633 146.876 123.106 146.909 122.58C146.982 121.573 147.069 120.527 147.006 119.455C146.971 118.929 146.95 118.429 146.936 117.91C146.912 117.209 146.901 116.466 146.816 115.745C146.525 112.989 146.054 110.443 145.306 107.989C144.536 105.393 143.566 103.001 142.353 100.734C141.321 98.815 140.149 96.9857 138.822 95.2863C136.811 92.6969 134.438 90.3948 131.792 88.4533C127.391 85.1679 122.544 82.9265 117.386 81.7276C115.189 81.205 112.973 80.8782 110.862 80.719C107.448 80.4795 103.945 80.7268 100.471 81.4528C97.3811 82.1005 94.2985 83.2204 91.0269 84.8619C89.4922 85.6478 87.9531 86.589 86.3361 87.7739C84.3367 89.2396 82.3951 90.9476 80.5985 92.8362C79.2028 94.3156 77.8769 95.9292 76.7015 97.6356C75.0344 100.036 73.8241 102.134 72.858 104.243C72.5996 104.817 72.1639 105.006 71.5507 104.81C70.4675 104.464 70.1175 104.644 69.7533 105.714C68.6878 108.91 67.6158 112.127 66.5911 115.336C66.4938 115.641 66.4309 115.979 66.369 116.385C66.2896 116.986 66.6011 117.421 67.1928 117.543C67.5533 117.613 67.9137 117.684 68.2611 117.795C69.3035 118.127 70.3662 118.467 71.4021 118.82L72.4035 119.139C76.5534 120.532 80.8045 121.889 84.9191 123.18C89.3337 124.589 93.9118 126.051 98.3747 127.521C98.7222 127.632 99.0696 127.743 99.3966 127.847C100.296 128.134 101.195 128.421 102.06 128.675C103.395 129.079 104.791 129.502 106.127 129.973C108.035 130.627 110.004 131.233 111.911 131.82L113.485 132.322C119.834 134.305 126.626 136.451 133.418 138.664C134.604 139.043 135.796 139.401 136.953 139.725C139.03 140.344 141.196 140.968 143.256 141.782C143.672 141.96 144.228 141.981 144.604 141.228C144.999 140.414 145.224 139.568 145.449 138.722L145.456 138.769ZM133.451 136.727C133.419 136.829 133.38 136.951 133.368 137.059C133.355 137.099 133.348 137.12 133.342 137.14C133.342 137.14 133.281 137.12 133.26 137.114C131.072 136.348 128.872 135.623 126.664 134.918C125.438 134.527 124.232 134.142 123.026 133.757C121.453 133.255 119.879 132.752 118.305 132.25C118.06 132.171 118.012 132.111 118.018 132.091C118.018 132.091 117.997 132.017 118.061 131.814C118.473 130.736 118.835 129.531 119.207 128.083C119.207 128.083 119.228 128.09 119.248 128.096C119.289 128.11 119.33 128.123 119.371 128.136C121.394 128.782 123.397 129.421 125.421 130.067L128.731 131.124C130.632 131.731 132.512 132.331 134.393 132.932C134.577 132.99 134.605 133.044 134.605 133.044C134.605 133.044 134.633 133.098 134.554 133.274C134.24 134.114 133.914 134.995 133.622 135.909C133.538 136.173 133.474 136.444 133.41 136.714L133.451 136.727ZM114.589 120.118L114.621 120.016C114.662 120.029 114.805 120.075 114.846 120.088C116.788 120.708 118.729 121.328 120.65 121.941L124.268 123.096C126.067 123.67 127.865 124.244 129.664 124.819C129.929 124.903 129.937 124.951 129.937 124.951C129.937 124.951 129.958 125.025 129.833 125.276C129.316 126.543 128.907 127.823 128.62 129.074C128.562 129.257 128.538 129.473 128.525 129.514C128.457 129.514 128.212 129.436 128.13 129.41L125.085 128.438C121.222 127.205 117.359 125.971 113.517 124.745C113.21 124.647 113.21 124.647 113.308 124.342C113.444 123.915 113.58 123.489 113.716 123.062C114.021 122.108 114.373 121.146 114.562 120.131L114.589 120.118ZM116.88 130.295C116.757 130.681 116.633 131.067 116.51 131.453C116.458 131.615 116.431 131.629 116.431 131.629C116.431 131.629 116.384 131.636 116.241 131.591C113.788 130.808 111.336 130.025 108.883 129.242C106.431 128.459 103.978 127.676 101.526 126.893C101.362 126.84 101.348 126.814 101.348 126.814C101.348 126.814 101.341 126.766 101.386 126.624C101.509 126.238 101.632 125.852 101.756 125.466C102.022 124.634 102.335 123.793 102.491 122.881C102.511 122.82 102.517 122.8 102.523 122.779C102.523 122.779 102.585 122.799 102.707 122.838C104.71 123.477 106.693 124.11 108.696 124.75L111.68 125.703C113.662 126.335 115.645 126.968 117.627 127.601C117.791 127.654 117.832 127.667 117.811 127.66C117.811 127.66 117.805 127.68 117.779 127.762C117.384 128.576 117.132 129.435 116.886 130.275L116.88 130.295ZM82.8896 120.719C82.8377 120.881 82.8043 120.916 82.8043 120.916C82.8043 120.916 82.757 120.923 82.6139 120.877C77.8314 119.35 73.0564 117.871 68.2609 116.384C68.0157 116.306 68.0082 116.259 67.9878 116.252C67.9878 116.252 67.9599 116.199 68.0591 116.029C68.3743 115.324 68.5734 114.559 68.766 113.815C68.9281 113.307 69.0494 112.786 69.2319 112.285C69.2773 112.143 69.3108 112.108 69.3108 112.108C69.3108 112.108 69.3377 112.095 69.4807 112.14C71.2997 112.721 73.0983 113.295 74.9786 113.896L76.8793 114.502C78.6454 115.178 80.5526 115.765 82.4125 116.359L83.9453 116.848C84.0475 116.881 84.0884 116.894 84.1088 116.9C84.1088 116.9 84.0829 116.981 84.044 117.103C83.639 118.16 83.3157 119.243 82.9989 120.306L82.8757 120.692L82.8896 120.719ZM97.6133 114.81C97.6587 114.668 97.6716 114.627 97.6716 114.627C97.6716 114.627 97.7255 114.6 97.889 114.652C99.7693 115.252 101.67 115.859 103.571 116.466L107.331 117.666C109.212 118.267 111.092 118.867 112.972 119.467C113.074 119.5 113.115 119.513 113.115 119.513C113.115 119.513 113.102 119.554 113.07 119.655C112.549 121.145 112.022 122.656 111.607 123.956C111.581 124.037 111.568 124.078 111.568 124.078C111.568 124.078 111.507 124.058 111.445 124.038C109.074 123.282 106.704 122.525 104.333 121.768C101.696 120.926 99.0394 120.078 96.4029 119.236C96.3211 119.21 96.2803 119.197 96.2803 119.197C96.2803 119.197 96.2932 119.156 96.3127 119.095L96.5332 118.405C96.9093 117.226 97.292 116.028 97.5928 114.803L97.6133 114.81ZM95.4488 116.581C95.18 117.211 94.8842 117.856 94.7315 118.546C94.6991 118.647 94.6861 118.688 94.6861 118.688C94.6861 118.688 94.6387 118.695 94.5161 118.656C92.0022 117.853 89.5088 117.057 86.9949 116.255C84.7059 115.524 82.4168 114.793 80.1278 114.062C80.0051 114.023 79.9643 114.01 79.9643 114.01C79.9643 114.01 79.9707 113.99 79.9967 113.909L80.2756 113.035C80.6258 111.938 81.0159 110.787 81.2703 109.637C81.3222 109.474 81.3352 109.434 81.3352 109.434C81.3352 109.434 81.389 109.406 81.573 109.465C83.392 110.046 85.211 110.626 87.0299 111.207L88.5832 111.703L90.7227 112.409C92.5008 112.976 94.2585 113.537 96.0366 114.105C96.3023 114.19 96.3506 114.25 96.3506 114.25C96.3506 114.25 96.3516 114.318 96.2319 114.481C96.1586 114.569 96.1262 114.671 96.1068 114.732C95.967 115.381 95.7047 115.991 95.4154 116.615L95.4488 116.581ZM109.287 95.0341C111.899 95.1069 114.544 95.6382 117.183 96.6148C120.04 97.6836 122.613 99.2885 124.847 101.39C126.758 103.164 128.369 105.312 129.625 107.728C130.078 108.566 130.458 109.493 130.839 110.555C131.765 113.156 132.251 115.796 132.36 118.629C132.407 119.964 132.318 121.301 132.242 122.598L132.203 122.719C132.201 123.077 132.193 123.455 132.192 123.813C132.2 123.927 132.187 123.968 132.181 123.988C132.181 123.988 132.113 123.989 131.97 123.943C130.09 123.343 128.216 122.722 126.356 122.129L105.039 115.323C98.9486 113.378 92.8581 111.434 86.7815 109.516C86.5772 109.451 86.5223 109.411 86.5019 109.405C86.5019 109.405 86.5214 109.344 86.6271 109.154C86.9258 108.712 87.2106 108.243 87.4888 107.795C87.9192 107.082 88.3765 106.355 88.8617 105.681C90.5901 103.301 92.5473 101.262 94.7212 99.673C96.2778 98.5359 97.7771 97.6492 99.3201 96.9779C102.555 95.5932 105.916 94.9426 109.294 95.0138L109.287 95.0341ZM144.636 128.077C143.757 127.796 142.878 127.515 141.999 127.235C141.529 127.085 141.039 126.928 140.569 126.778L137.83 125.904C136.44 125.46 135.051 125.016 133.661 124.573C133.436 124.501 133.436 124.501 133.461 124.352C133.761 123.06 133.979 121.742 134.109 120.418C134.129 120.425 134.15 120.431 134.191 120.444C137.409 120.733 140.68 120.927 143.822 121.102L145.126 121.182C145.126 121.182 145.207 121.208 145.234 121.194C145.234 121.194 145.221 121.235 145.229 121.282L145.212 121.971C145.159 123.968 145.088 126.027 144.785 128.035C144.759 128.116 144.746 128.156 144.739 128.177C144.719 128.17 144.678 128.157 144.596 128.131L144.636 128.077ZM143.397 119.332C140.364 119.237 137.243 119.136 134.152 119.156C134.122 118.967 134.119 118.765 134.136 118.569C134.221 116.962 133.988 115.365 133.714 113.756C133.699 113.662 133.691 113.614 133.691 113.614C133.691 113.614 133.745 113.587 133.84 113.572C136.411 113.207 138.983 112.842 141.534 112.47C142.433 112.332 143.327 112.214 144.213 112.049C144.26 112.042 144.287 112.028 144.307 112.035C144.307 112.035 144.315 112.082 144.343 112.135C144.725 114.183 145.16 116.56 145.161 118.955C145.169 119.07 145.178 119.184 145.22 119.265C145.227 119.312 145.241 119.339 145.249 119.386L143.397 119.332ZM143.646 110.368C139.567 111.081 136.45 111.675 133.502 112.301C133.408 112.315 133.387 112.309 133.38 112.261C133.014 110.444 132.312 108.764 131.575 107.052C132.55 106.468 133.601 105.997 134.625 105.541C135.103 105.313 135.595 105.112 136.053 104.878C136.638 104.595 137.231 104.291 137.823 103.988C138.146 103.822 138.476 103.637 138.799 103.471C139.176 103.278 139.553 103.085 139.929 102.892C140.246 102.747 140.549 102.575 140.892 102.416C141.534 103.651 142.116 104.933 142.596 106.25C143.111 107.668 143.516 108.872 143.824 110.022C143.874 110.218 143.861 110.258 143.861 110.258C143.861 110.258 143.848 110.299 143.632 110.342L143.646 110.368ZM140.024 100.975L139.674 101.154C138.489 101.761 137.277 102.381 136.086 103.008C135.359 103.38 134.646 103.78 133.933 104.179L130.906 105.831L130.878 105.777C130.76 105.583 130.622 105.382 130.503 105.188C129.502 103.458 128.272 101.879 126.862 100.511C126.71 100.35 126.703 100.303 126.703 100.303C126.703 100.303 126.716 100.263 126.849 100.126C128.806 98.5126 130.728 96.8655 132.562 95.2127L132.816 94.9805C133.291 94.5502 133.773 94.0997 134.269 93.6759C134.389 93.5801 134.41 93.5867 134.41 93.5867C134.41 93.5867 134.471 93.6062 134.533 93.6933C136.13 95.3223 137.622 97.1414 139.056 99.2782C139.257 99.5662 139.431 99.8679 139.605 100.17C139.737 100.391 139.869 100.612 140.022 100.84C140.07 100.9 140.077 100.947 140.077 100.947C140.077 100.947 140.064 100.988 139.99 101.009L140.024 100.975ZM133.151 92.3791C132.556 92.9051 131.98 93.4377 131.384 93.9637C130.909 94.394 130.427 94.8446 129.952 95.2748C128.346 96.7093 126.981 98.0196 125.806 99.2335C125.732 99.322 125.705 99.3358 125.651 99.2959C124.243 98.0629 122.694 96.9867 120.918 96.0614C121.11 95.7422 121.302 95.4229 121.467 95.1175C122.003 94.2142 122.499 93.3654 123.05 92.5565C123.548 91.8425 124.012 91.0953 124.449 90.3618C124.787 89.7981 125.124 89.2344 125.476 88.6975C125.609 88.4936 125.768 88.2759 125.901 88.0721C126.027 87.8885 126.147 87.7253 126.286 87.5011C126.286 87.5011 126.306 87.5076 126.388 87.5337C129.02 89.0233 131.22 90.5985 133.097 92.3392C133.097 92.3392 133.117 92.3457 133.137 92.3522L133.151 92.3791ZM119.654 95.4341C119.368 95.3428 119.115 95.2173 118.829 95.126C118.045 94.8308 117.247 94.5089 116.43 94.2479L116.389 94.2348C115.632 93.9934 114.836 93.8064 114.088 93.6121L113.359 93.4244L113.278 93.3983C113.278 93.3983 113.291 93.3577 113.283 93.3105C113.594 90.4327 113.891 87.528 114.16 84.6371C114.183 84.3535 114.206 84.0699 114.202 83.8L114.217 83.4017C114.217 83.4017 114.243 83.3205 114.222 83.314C114.222 83.314 114.263 83.327 114.331 83.3263C115.575 83.5219 116.779 83.772 117.963 84.083C120.489 84.7775 122.725 85.6033 124.768 86.6809L119.695 95.4472L119.654 95.4341ZM111.884 93.1773C110.084 92.9607 108.571 92.9029 107.121 92.9997L107.006 93.0077C107.006 93.0077 106.871 93.0092 106.823 93.0164C106.085 93.0717 106.085 93.0717 105.993 92.3709C105.663 90.1614 105.17 87.967 104.698 85.8467C104.524 85.0524 104.35 84.2581 104.175 83.4638C104.103 83.1272 104.142 83.0728 104.142 83.0728C104.155 83.0322 104.291 83.0307 104.507 82.9878C107.046 82.724 109.698 82.7424 112.401 83.0234C112.442 83.0364 112.462 83.043 112.462 83.043C112.456 83.0633 112.471 83.1576 112.472 83.2251C112.47 84.0752 112.422 84.9327 112.359 85.7633C112.315 86.4656 112.244 87.1816 112.241 87.8968C112.23 88.9901 112.144 90.0369 112.058 91.1511C112.007 91.8062 111.949 92.4816 111.911 93.1635L111.884 93.1773ZM104.738 93.2685C102.533 93.6164 100.359 94.2878 98.0687 95.3249L97.6212 94.3986C97.2082 93.5057 96.809 92.6396 96.383 91.7873C95.9569 90.935 95.5309 90.0827 95.0779 89.2442C94.8686 88.8416 94.6528 88.4593 94.464 88.0633C94.2268 87.607 94.01 87.1573 93.7728 86.7011L93.4863 86.1172C93.4863 86.1172 93.4509 86.0163 93.4305 86.0098C93.4305 86.0098 93.4435 85.9692 93.5382 85.9546C95.8231 85.0054 98.5343 83.9907 101.395 83.494C102.322 83.3422 102.302 83.3357 102.539 84.2845L102.785 85.348C103.133 86.8691 103.481 88.3903 103.855 89.8976C104.064 90.7253 104.273 91.553 104.522 92.3937L104.765 93.2547L104.738 93.2685ZM93.6667 98.038C93.2304 98.3464 92.822 98.7085 92.4136 99.0705C92.3199 99.1525 92.293 99.1663 92.293 99.1663C92.293 99.1663 92.2521 99.1533 92.1694 99.0597C89.8129 96.4943 87.3488 93.9841 85.2425 91.8343C85.091 91.674 84.919 91.5072 84.9051 91.4803C84.9245 91.4194 85.1324 91.2619 85.2596 91.1459C87.4241 89.3747 89.5665 87.9546 91.8959 86.7957L96.8572 95.9453C95.6067 96.6877 94.5856 97.3465 93.6731 98.0177L93.6667 98.038ZM91.1856 99.9543L91.2683 100.048C91.2683 100.048 91.2554 100.089 91.1885 100.157C90.0925 101.262 88.837 102.584 87.8695 104.133C87.7767 104.283 87.7294 104.29 87.7229 104.31C87.7229 104.31 87.6551 104.311 87.4702 104.185C84.7631 102.224 81.915 100.352 79.183 98.5398L78.5325 98.1083C79.7507 96.5498 81.0831 94.9159 82.6628 93.4953C82.944 93.2493 83.2113 92.9765 83.4312 92.7109C83.4711 92.6565 83.498 92.6427 83.5045 92.6224C83.5045 92.6224 83.5453 92.6355 83.5937 92.6957C84.8113 93.8902 86.0559 95.071 87.28 96.2452L88.4009 97.3194C89.3155 98.1933 90.2506 99.0738 91.1652 99.9478L91.1856 99.9543ZM86.1788 104.914C86.7035 105.246 86.8184 105.686 86.5235 106.233C86.1211 107 85.6657 107.862 85.347 108.79C85.2626 109.054 85.1754 109.115 84.8893 109.024L84.8688 109.018C83.5608 108.6 82.2528 108.182 80.9447 107.765L78.063 106.845C76.6936 106.407 75.3447 105.977 73.9958 105.546L73.8732 105.507C73.8797 105.487 73.8926 105.446 73.9186 105.365C74.2098 104.876 74.4806 104.38 74.7514 103.885C75.115 103.24 75.4786 102.595 75.8626 101.956C76.1538 101.467 76.4859 100.991 76.8116 100.536C77.024 100.223 77.2569 99.917 77.4693 99.6043C77.4823 99.5637 77.4888 99.5433 77.5157 99.5296C77.5157 99.5296 77.577 99.5491 77.6114 99.5825C80.2597 101.234 82.9145 102.865 85.5628 104.516L86.1993 104.921L86.1788 104.914ZM79.923 108.849L80.0252 108.881C80.0252 108.881 80.0122 108.922 79.9798 109.023C79.458 110.446 78.9363 111.869 78.4414 113.278C78.396 113.42 78.3626 113.454 78.3626 113.454C78.3626 113.454 78.3088 113.482 78.1926 113.422C78.1518 113.409 73.4436 111.861 72.3967 111.684L71.6739 111.408C71.4491 111.336 71.2243 111.264 71.0199 111.199C70.652 111.082 70.2637 110.958 69.8549 110.827L69.7527 110.795C69.7527 110.795 69.7657 110.754 69.7916 110.673C70.2715 109.17 70.7171 107.633 71.1561 106.117C71.195 105.995 71.208 105.954 71.208 105.954C71.208 105.954 71.2553 105.947 71.3715 106.007C73.3829 106.761 75.4471 107.42 77.4769 108.045C78.2945 108.306 79.1324 108.574 79.9499 108.835L79.923 108.849ZM84.3511 121.432C84.3511 121.432 84.3641 121.391 84.3836 121.33C84.9556 120.103 85.2889 118.777 85.5704 117.613C85.6093 117.491 85.6222 117.45 85.6222 117.45C85.6222 117.45 85.6696 117.443 85.8331 117.495C87.7747 118.115 89.7163 118.735 91.6784 119.362L95.439 120.562C97.2579 121.143 99.0769 121.724 100.896 122.304C101.039 122.35 101.059 122.357 101.059 122.357C101.059 122.357 101.04 122.418 101.001 122.539C100.531 123.8 100.096 125.093 99.7325 126.231C99.7066 126.312 99.7001 126.332 99.7001 126.332C99.7001 126.332 99.6592 126.319 99.5774 126.293C94.5497 124.688 89.5015 123.076 84.4738 121.471C84.3716 121.438 84.3307 121.425 84.3307 121.425L84.3511 121.432ZM130.242 130.062C130.058 130.003 130.03 129.949 130.03 129.949C130.03 129.949 130.002 129.896 130.067 129.693C130.627 128.081 130.988 126.808 131.282 125.604C131.34 125.421 131.353 125.38 131.353 125.38C131.353 125.38 131.407 125.353 131.612 125.418C135.658 126.71 139.698 127.955 143.757 129.206C144.616 129.48 145.446 129.701 146.461 129.98C146.563 130.012 146.624 130.032 146.624 130.032C146.624 130.032 146.632 130.079 146.572 130.195C146.052 131.685 145.545 133.202 145.044 134.698C145.018 134.779 145.012 134.8 145.012 134.8C144.971 134.787 144.848 134.748 144.808 134.735C144.194 134.539 143.581 134.343 142.968 134.147C141.129 133.56 139.391 133.005 137.741 132.389L135.759 131.756C135.125 131.554 134.512 131.358 133.899 131.162C132.673 130.771 131.447 130.379 130.241 129.994L130.242 130.062ZM134.889 137.656C134.766 137.617 134.746 137.611 134.725 137.604C134.725 137.604 134.732 137.584 134.764 137.482C134.874 137.137 134.978 136.812 135.088 136.466C135.387 135.532 135.692 134.577 135.915 133.597C135.954 133.475 135.96 133.454 135.96 133.454C135.96 133.454 136.007 133.447 136.11 133.48C138.91 134.374 141.73 135.274 144.537 136.148L144.598 136.167C144.598 136.167 144.585 136.208 144.565 136.269C144.144 137.589 143.722 138.91 143.301 140.23C143.275 140.311 143.268 140.331 143.268 140.331C143.268 140.331 143.227 140.318 143.105 140.279C142.083 139.953 141.061 139.627 140.019 139.294L137.975 138.641C136.953 138.315 135.911 137.982 134.889 137.656Z" fill="#F0EEE7"/>
</svg>
