<svg width="153" height="153" viewBox="0 0 153 153" fill="none" xmlns="http://www.w3.org/2000/svg">
<g clip-path="url(#clip0_25_2009)">
<path d="M61.5779 18.4057C65.7444 13.2518 73.3001 12.4514 78.4541 16.6179L134.069 61.5778C139.223 65.7443 140.023 73.3 135.857 78.4539L90.8966 134.069C86.7301 139.222 79.1744 140.023 74.0205 135.856L18.4059 90.8965C13.252 86.73 12.4515 79.1743 16.618 74.0204L61.5779 18.4057Z" fill="#434D37"/>
<path d="M78.7928 23.5568L126.924 62.4667C131.863 66.4597 132.63 73.7006 128.637 78.6397L89.034 127.628C85.0411 132.567 77.8002 133.334 72.861 129.341L24.7301 90.4314C19.791 86.4386 19.0239 79.1976 23.0167 74.2585L62.6198 25.2701L63.0032 24.8191C67.0628 20.2875 74.0079 19.6887 78.7928 23.5568Z" stroke="white"/>
<path d="M58.325 98.4285C63.465 103.082 68.0552 101.836 73.1726 97.0626C73.4829 96.733 73.811 96.3978 74.1158 96.0503C74.1889 95.9693 74.2675 95.9061 74.3639 95.8375C74.8328 95.3224 75.3211 94.7427 75.7984 94.1272C75.7984 94.1272 75.7984 94.1272 75.7805 94.1326C75.8964 93.9994 75.9998 93.8895 76.0977 93.7617C76.2509 93.5584 76.3971 93.3963 76.5323 93.1984C76.3792 93.4017 76.233 93.5638 76.0977 93.7617C77.5735 92.0583 79.0368 90.3783 80.441 88.6968C82.8644 85.8036 85.0308 82.7737 86.9059 79.5588C88.7312 76.4374 90.2567 73.2315 91.195 69.8331C91.7813 67.7165 92.1543 65.6064 91.9301 63.4634C91.8058 62.288 91.4434 61.1658 90.9969 60.0888C90.9586 59.9635 90.9079 59.8616 90.9701 59.7448C91.2102 59.3778 91.3912 59.0094 91.4608 58.5967C91.5026 58.3491 91.7363 58.4734 91.9083 58.46C93.0713 58.3591 94.1219 58.0185 94.7404 56.9685C95.2044 56.1809 95.1373 55.3207 94.5207 54.648C93.9276 53.9877 93.1768 53.7082 92.2087 54.0627C92.1729 54.0737 92.1192 54.0901 92.0064 54.105C92.2625 53.3418 92.2033 52.6357 91.9184 51.9595C91.5336 51.0203 90.3796 50.0617 89.0217 50.6135C88.3097 50.9094 87.8518 51.4602 87.5341 52.0857C87.2909 52.571 87.1716 53.0771 87.0756 53.5957C87.0408 53.8021 86.9677 53.8831 86.731 53.8771C85.9027 53.8562 85.1111 54.0198 84.5552 54.6985C84.427 54.8551 84.2509 54.7914 84.0913 54.7815C82.553 54.7427 81.0281 54.8759 79.5518 55.4247C77.6873 56.1118 76.0271 57.1475 74.4932 58.3402C71.9628 60.3071 69.9257 62.6713 67.8653 65.023C66.6336 66.4365 65.413 67.8859 64.2102 69.3297C62.6529 71.2146 60.7714 72.8071 58.8323 74.3389C58.1073 74.9127 57.3178 75.467 56.7549 76.187C55.8306 77.3892 55.7783 78.7555 55.6833 80.174C55.6102 81.6642 55.0592 83.3199 54.1856 84.624C52.7531 86.7252 52.6452 88.4216 53.3616 90.7665C54.2639 93.7199 57.523 97.5972 58.325 98.4285ZM90.4153 53.5734C90.0932 52.9673 89.3777 52.9315 88.9018 53.4879C88.7308 53.6967 88.5831 53.918 88.4175 54.1447C88.2947 54.3192 88.1655 54.2804 88.0432 54.2003C87.9208 54.1203 87.6787 54.0964 87.8139 53.8985C88.1536 53.3447 88.2291 52.6953 88.61 52.1484C89.1261 51.4036 89.9013 51.1863 90.4631 51.6801C90.8629 52.0276 91.1179 52.4781 91.1636 53.0121C91.2094 53.5461 91.1726 54.0662 90.917 54.5748C90.8479 54.7329 90.7236 54.9666 90.8623 55.1004C91.0189 55.2286 91.2571 55.1755 91.4719 55.1098C91.7404 55.0278 92.0088 54.9458 92.2773 54.8637C92.8611 54.7245 93.4537 54.9349 93.7679 55.3868C94.111 55.8691 94.107 56.4966 93.6879 56.9182C93.1225 57.5019 92.3832 57.7082 91.5782 57.6998C91.5245 57.7162 91.4668 57.6555 91.4753 57.5551C91.7796 57.4621 92.0948 57.4049 92.3882 57.2762C92.7531 57.1255 93.0549 56.8963 93.1121 56.507C93.1569 56.1411 92.9316 55.9163 92.6403 55.7314C92.0755 55.356 91.4823 55.4002 90.916 55.7885C90.6748 55.96 90.5013 56.0326 90.2706 55.79C90.0454 55.5652 90.0787 55.4181 90.2621 55.1859C90.654 54.6748 90.6853 54.1368 90.4029 53.5968L90.4153 53.5734ZM90.5077 59.0641C89.2881 57.1861 87.6617 55.7064 85.3075 54.9187C85.6724 54.7681 85.9713 54.6572 86.3014 54.7129C88.2629 55.1117 89.7182 56.0957 90.5818 57.7694C90.7737 58.1413 90.6996 58.7315 90.5201 59.0407L90.5077 59.0641ZM76.2002 92.0474C76.4483 91.13 76.5215 90.3444 76.4941 89.5504C76.4295 88.1219 76.3828 86.688 76.7448 85.2466C76.9611 84.4173 76.81 83.6023 76.5226 82.7899C76.3243 82.2047 76.0543 81.6413 76.0762 81.0084C76.0847 79.4989 75.4458 78.3046 74.256 77.3569C73.0896 76.4216 71.8019 75.6017 70.4893 74.8285C68.9842 73.9379 67.3365 73.5411 65.4436 73.9433C64.2653 74.1859 63.0908 74.5056 61.8811 74.5816C61.2288 74.6244 60.575 74.7263 59.7849 74.8307C60.0688 74.6069 60.2384 74.4573 60.4258 74.3022C61.3631 73.5266 62.2949 72.733 63.169 71.8789C64.7531 70.3381 66.0583 68.5889 67.4679 66.9253C69.701 64.3056 71.8584 61.6307 74.5503 59.36C76.6372 57.6069 78.9104 56.2078 81.7062 55.6863C84.1923 55.2399 86.2979 55.7904 88.0411 57.3322C89.4834 58.5942 90.2909 60.148 90.6408 61.9981C90.9501 63.5867 90.9635 65.1678 90.6919 66.7772C89.9957 70.904 88.2997 74.7688 86.2158 78.5171C84.6595 81.302 82.8282 83.9555 80.8333 86.522C79.3834 88.3741 77.8346 90.1585 76.2002 92.0474ZM54.2475 88.7526C54.0581 87.1078 54.5481 85.7462 55.4674 84.2715C56.2376 83.0772 56.708 81.7984 56.6777 80.4182C56.6688 80.0687 56.726 79.6794 56.812 79.3204C56.9662 78.6079 57.1148 77.8775 57.5867 77.2441C58.3524 76.2273 59.502 75.9544 60.7022 75.7834C62.1337 75.6004 63.5761 75.4533 64.9941 75.0983C66.3227 74.7707 67.6368 74.7802 68.8713 75.3619C70.4743 76.1247 71.9008 77.0784 73.2775 78.1255C74.3231 78.9216 74.8233 79.9821 74.7725 81.2893C74.7566 81.6855 74.7819 82.0888 74.9684 82.4428C75.5004 83.4153 75.5809 84.4475 75.3462 85.5369C75.1324 86.5025 75.0781 87.478 75.196 88.4401C75.4326 90.5597 75.0611 92.6107 73.7708 94.4727C72.7261 95.9856 71.316 97.1993 69.9348 98.4432C69.0746 99.2149 68.0374 99.7275 66.6467 100.172C65.8342 100.459 64.7692 100.432 63.7032 100.21C62.2603 99.9073 61.1252 99.1386 60.0578 98.271C58.8913 97.3357 57.882 96.2741 57.3729 94.864C57.1512 94.2664 56.9474 93.6633 56.3965 93.2053C55.0749 92.0826 54.4614 90.587 54.2666 88.9243L54.2475 88.7526Z" fill="#F0EEE7"/>
<path d="M75.7306 73.6875C75.9807 73.3527 75.9221 73.196 75.6197 72.9894C75.0314 72.5716 74.4073 72.2209 73.7474 71.9371C72.3472 71.3336 70.8796 71.0161 69.3299 71.0652C68.1688 71.1064 67.1011 71.5058 65.9794 71.7664C65.5145 71.8903 65.0357 71.9604 64.5075 71.9097C64.6342 71.6461 64.8147 71.5214 64.9906 71.3788C66.364 70.3809 67.9386 70.0188 69.5759 69.9655C72.0947 69.888 74.2923 70.7578 76.2719 72.2219C76.5577 72.433 76.6646 72.3662 76.8504 72.1252C77.486 71.3622 78.1309 70.635 78.7665 69.872C79.0394 69.5568 79.0097 69.2838 78.6774 69.0532C78.6774 69.0532 78.6348 69.0262 78.5923 68.9993C76.2905 67.5253 73.7479 67.0346 71.0055 67.3441C70.3347 67.4271 69.6519 67.5324 68.9749 67.3872C68.8779 67.3556 68.7357 67.3552 68.7243 67.2434C68.7103 67.1896 68.8079 67.0871 68.8862 67.047C69.1451 66.8823 69.3874 66.722 69.6982 66.62C71.1498 66.1949 72.6263 66.0696 74.1111 66.2484C76.1028 66.4646 77.8744 67.199 79.4452 68.389C79.7358 68.618 79.8898 68.5961 80.1327 68.3016C80.7636 67.5207 81.4205 66.7711 82.0774 66.0216C82.3129 65.7674 82.2709 65.6062 82.0063 65.4086C81.3496 64.9325 80.6451 64.5457 79.8763 64.2527C78.4097 63.6668 76.8585 63.5057 75.3119 63.3624C74.914 63.3344 74.5425 63.2036 74.1758 63.0907C74.0575 63.0456 73.8847 62.9959 73.8972 62.8393C73.9097 62.6828 74.0684 62.6788 74.1893 62.6658C74.5711 62.564 74.9437 62.4265 75.3488 62.4142C78.0975 62.3329 80.611 62.9845 82.7483 64.713C82.9278 64.8567 83.0699 64.8571 83.2152 64.6652C83.8296 63.8887 84.4439 63.1122 85.0676 62.3715C85.2295 62.1752 85.1968 62.0499 85.022 61.9241C84.6464 61.6412 84.2874 61.3538 83.9045 61.1112C82.8364 60.4191 81.5939 60.08 80.3654 59.7945C79.8565 59.6812 79.4404 59.4473 79.0197 59.1956C78.9393 59.1596 78.8495 59.0877 78.9092 58.9761C78.9331 58.9314 79.028 58.887 79.0991 58.8872C79.5162 58.8526 79.9359 58.76 80.3598 58.8194C82.3063 59.0667 84.0925 59.7206 85.5014 61.107C85.8106 61.4076 85.9579 61.2917 86.1556 61.0284C86.4581 60.6222 86.7347 60.1847 87.1176 59.8146C87.2032 59.7343 87.2961 59.6138 87.419 59.6768C87.5467 59.7577 87.5508 59.9098 87.5124 60.0349C87.474 60.16 87.419 60.2896 87.3593 60.4012C87.104 60.8523 86.8441 61.2854 86.5675 61.7229C86.4673 61.8837 86.4123 62.0132 86.542 62.1702C87.4052 63.1657 87.9716 64.317 88.4312 65.535C88.6656 66.162 88.7626 66.8064 88.8051 67.4461C88.8092 67.5982 88.7988 67.8308 88.6115 67.8616C88.3791 67.9235 88.3848 67.673 88.3475 67.5298C88.2261 67.0642 88.0762 66.6254 87.9051 66.1731C87.528 65.0672 86.9657 64.068 86.2421 63.131C85.9428 62.732 85.9096 62.7408 85.6117 63.1649C85.1043 63.8746 84.6227 64.6157 84.0727 65.2984C83.8465 65.5885 83.9005 65.7273 84.0867 65.965C85.3623 67.5209 86.3079 69.2414 86.5178 71.2728C86.593 72.0379 86.5758 72.7893 86.2317 73.5129C86.1409 73.7095 85.9837 73.9237 85.7518 73.8514C85.5578 73.7882 85.6512 73.5335 85.6803 73.3726C85.8448 72.5053 85.7795 71.6418 85.5601 70.8002C85.1634 69.2782 84.4154 67.9072 83.4039 66.6831C83.1917 66.4141 83.0869 66.5569 82.937 66.7309C82.2894 67.5162 81.6585 68.2972 80.9897 69.069C80.7707 69.3189 80.7702 69.453 80.9943 69.6997C82.7305 71.5925 83.7523 73.8097 83.9767 76.3734C84.04 77.1609 84.07 77.9572 83.7897 78.7212C83.7228 78.8731 83.6579 79.1011 83.44 79.0825C83.1843 79.0549 83.2777 78.8002 83.2901 78.6437C83.3365 77.1185 83.167 75.6509 82.6348 74.2224C82.1073 72.8118 81.3541 71.5571 80.3374 70.4493C80.1346 70.216 80.0137 70.2291 79.8067 70.4566C79.0974 71.2776 78.3834 72.0806 77.6435 72.8522C77.4365 73.0797 77.4479 73.1916 77.6461 73.4069C79.1063 74.9902 79.9591 76.8312 80.2515 78.9746C80.4983 80.6707 80.4182 82.3389 79.9947 83.9837C79.8935 84.4128 79.7497 84.815 79.4498 85.163C79.3689 85.2611 79.2594 85.3861 79.0986 85.314C78.9378 85.242 79.0426 85.0991 79.0691 84.9963C79.6259 83.1819 79.7304 81.3349 79.4582 79.4733C79.1466 77.3924 78.3198 75.5828 76.8735 74.0532C76.68 73.8558 76.5638 73.8868 76.3926 74.0473C75.9599 74.4307 75.5271 74.8141 75.0898 75.1796C74.9709 75.2687 74.8755 75.4473 74.6223 75.3616C74.9233 74.7452 75.3306 74.1962 75.7426 73.6652L75.7306 73.6875Z" fill="#F0EEE7"/>
<path d="M69.3844 93.2162C69.4167 92.5529 69.1684 91.9963 68.6571 91.6045C67.7653 90.9283 66.9692 90.1808 66.1912 89.3645C65.6746 88.8267 65.0189 88.7952 64.3147 88.9893C63.1928 89.2899 62.8851 90.2692 63.3639 91.3877C63.4348 91.5558 63.5236 91.7184 63.6245 91.8562C63.862 92.1209 63.8789 92.3687 63.7941 92.7319C63.6549 93.3014 63.9094 93.8139 64.2595 94.255C65.049 95.1732 66.1328 95.5166 67.3134 95.4721C68.494 95.4276 69.2964 94.4657 69.3665 93.2217L69.3844 93.2162ZM68.2922 93.5499C68.1294 94.0423 67.7167 94.4214 67.2933 94.4453C66.387 94.4904 65.1847 93.9513 64.9839 93.4224C64.925 93.2296 64.8006 93.0146 64.8727 92.8661C65.0953 92.3133 64.7806 91.9878 64.4898 91.6129C64.3534 91.4227 64.2528 91.2216 64.1757 91.0975C63.9338 90.4337 64.2214 90.0296 64.8771 90.0611C65.4136 90.087 65.8838 90.2806 66.1922 90.7133C66.7082 91.441 67.2782 92.089 68.0156 92.5804C68.3843 92.8261 68.4307 93.1703 68.316 93.5637L68.2922 93.5499Z" fill="#F0EEE7"/>
<path d="M68.3803 86.3466C68.324 85.4573 68.5178 84.6182 69.3544 84.0885C70.0417 83.6467 70.9589 83.8934 71.2305 84.5904C71.3427 84.8934 71.3594 85.2045 71.3107 85.4934C71.256 85.7631 71.3211 85.9119 71.5887 86.083C72.2192 86.4806 72.4364 87.3839 72.0465 88.0301C71.5247 88.8851 71.0526 89.198 70.2009 88.9734C69.242 88.7183 68.8871 87.9414 68.5085 87.1506C68.3902 86.8916 68.3973 86.5943 68.3923 86.3218L68.3803 86.3466ZM70.1151 87.9878C70.4065 88.1728 70.6864 88.2559 70.9736 87.9784C71.225 87.7119 71.2928 87.101 71.061 86.9188C70.6211 86.5684 70.4199 86.1661 70.5829 85.6104C70.6432 85.4233 70.5426 85.2222 70.4896 85.0487C70.3536 84.7318 70.0796 84.668 69.8283 84.9345C69.2657 85.528 69.1738 86.1885 69.4752 86.9185C69.5689 87.3536 69.7285 87.7475 70.1389 88.0016L70.1151 87.9878Z" fill="#F0EEE7"/>
<path d="M58.1389 80.0044C58.5098 79.6803 58.8688 79.3177 59.3226 79.1369C60.0868 78.8191 60.9986 78.9199 61.4255 79.5484C61.7931 80.1106 61.5757 80.8727 60.9 81.4164C60.5054 81.7267 60.099 81.9984 59.7281 82.3225C59.0402 82.9543 57.9143 82.7291 57.7274 81.669C57.4734 81.0299 57.6185 80.4796 58.1389 80.0044ZM58.5518 81.2274C58.5449 81.4614 58.5977 81.6982 58.8239 81.7977C59.056 81.9166 59.182 81.6883 59.3196 81.562C59.6605 81.2681 59.9835 80.9797 60.3006 80.672C60.4801 80.4907 60.773 80.2958 60.613 80.0285C60.4709 79.7557 60.1309 79.7963 59.8444 79.8839C59.7728 79.9058 59.7191 79.9222 59.6475 79.944C58.9313 80.1629 58.5541 80.5943 58.528 81.2136L58.5518 81.2274Z" fill="#F0EEE7"/>
<path d="M69.2626 82.2308C68.5902 81.8881 68.2466 81.2764 67.9568 80.6482C67.6729 80.0393 68.0385 79.506 68.7185 79.4247C69.136 79.3815 69.5355 79.3437 69.9528 79.3638C70.7218 79.3818 71.4168 80.0548 71.4795 80.8367C71.5368 81.4727 71.0753 82.1407 70.4128 82.3431C70.0306 82.502 69.6374 82.4324 69.2447 82.2362L69.2626 82.2308ZM69.9156 81.3567C70.2252 81.4729 70.4224 81.3494 70.5546 81.0771C70.6808 80.7856 70.4426 80.7108 70.2582 80.6196C69.8892 80.4372 69.4955 80.4943 69.0481 80.5677C69.2552 80.9893 69.5405 81.2183 69.9156 81.3567Z" fill="#F0EEE7"/>
<path d="M60.3657 90.9423C60.3244 90.8074 60.2832 90.6724 60.2361 90.5182C59.9946 89.7277 59.562 89.0166 59.201 88.2837C59.0531 87.9917 58.8153 87.7902 58.4516 87.8171C58.0699 87.8494 57.7474 88.0111 57.585 88.3769C57.1945 89.213 57.2868 90.028 57.755 90.7914C58.0632 91.2874 58.4371 91.7424 58.9606 92.0462C59.3413 92.2671 59.7348 92.2734 60.0696 92.0235C60.4043 91.7737 60.4774 91.3719 60.3537 90.9671L60.3657 90.9423ZM59.5185 91.1168C59.5479 91.2132 59.6071 91.3427 59.4756 91.4251C59.3741 91.4772 59.3029 91.3724 59.2256 91.3117C58.7978 90.9365 58.4118 90.5064 58.2709 89.917C58.1411 89.5562 58.1067 89.1872 58.2273 88.8131C58.2575 88.7196 58.2878 88.5627 58.4309 88.5823C58.5501 88.588 58.5496 88.7146 58.5791 88.811C58.7143 89.3178 58.8913 89.8329 59.1518 90.3013C59.2939 90.5741 59.4181 90.8524 59.4885 91.1471L59.5185 91.1168Z" fill="#F0EEE7"/>
<path d="M65.023 83.4765C64.7638 82.6282 64.0493 82.4038 63.5345 82.9616C62.7625 83.7666 62.4906 84.7351 62.7788 85.8064C62.967 86.4867 63.753 86.7525 64.1542 86.2715C64.8549 85.4251 64.9243 84.3709 65.0289 83.4958L65.023 83.4765Z" fill="#F0EEE7"/>
<path d="M62.8453 77.9133C63.0104 78.3898 63.4086 78.7319 63.9983 78.8679C64.5642 78.9901 65.1756 78.1077 64.9633 77.4769C64.8101 76.9757 64.2451 76.6002 63.7205 76.6129C62.9991 76.6226 62.6096 77.1421 62.8274 77.9187L62.8453 77.9133Z" fill="#F0EEE7"/>
<path d="M62.1037 97.6593C61.6382 97.8015 61.097 97.4399 60.9203 96.8614C60.7671 96.3602 60.9954 95.8899 61.4431 95.7531C62.0518 95.5671 62.7603 95.8355 62.8956 96.3423C63.031 96.7857 62.5872 97.5116 62.0858 97.6647L62.1037 97.6593Z" fill="#F0EEE7"/>
<path d="M73.911 84.1449C73.7988 83.7778 73.4118 83.537 73.0176 83.6575C72.7847 83.7286 72.5873 83.8523 72.658 84.1475C72.7701 84.5146 73.2758 84.9515 73.5087 84.8803C73.8134 84.7872 73.9875 84.4595 73.8872 84.131L73.911 84.1449Z" fill="#F0EEE7"/>
</g>
<defs>
<clipPath id="clip0_25_2009">
<path d="M61.5779 18.4057C65.7444 13.2518 73.3001 12.4514 78.4541 16.6179L134.069 61.5778C139.223 65.7443 140.023 73.3 135.857 78.4539L90.8966 134.069C86.7301 139.222 79.1744 140.023 74.0205 135.856L18.4059 90.8965C13.252 86.73 12.4515 79.1743 16.618 74.0204L61.5779 18.4057Z" fill="white"/>
</clipPath>
</defs>
</svg>
