<svg width="137" height="126" viewBox="0 0 137 126" fill="none" xmlns="http://www.w3.org/2000/svg">
<g clip-path="url(#clip0_1044_2879)">
<path d="M15.2086 22.5001C14.1141 23.3318 13.0888 24.205 12.1296 25.1139C-13.7559 49.6413 25.6014 76.5579 61.2086 78.5001C73.7086 94.5001 74.2086 87.0001 81.7086 86.0001C88.5695 85.0853 85.8067 98.3971 91.7933 116.749C92.9301 120.234 94.9792 124.01 98.5947 124.613C107.155 126.042 106.574 104.492 104.709 91.0002L115.209 95.5001C119.209 103.167 126.109 120.6 131.709 109C137.309 97.4 136.722 77.5278 131.709 67.5001C129.209 62.5001 115.033 49.8469 99.7086 36.5002C84.2086 23.0001 94.2086 18.5002 86.7086 10.5002C69.3647 -7.99975 40.2085 3.50018 15.2086 22.5001Z" fill="#8A2F22" stroke="white"/>
<path d="M100.233 48.59C95.2846 46.8406 87.2111 46.9894 85.2201 51.5881C84.2078 53.926 84.699 56.3847 86.426 58.178C89.711 61.5893 94.4871 62.8012 99.2156 63.1111C103.092 63.3651 107.874 61.6384 108.752 57.6771L110.664 59.2462C111.718 60.1113 112.289 61.423 112.445 62.6891C111.701 62.5805 111.204 62.5157 110.567 62.7784L113.317 64.4999C116.253 66.8115 118.991 69.328 121.403 72.1352C122.665 73.6044 123.258 75.4134 123.288 77.254L120.475 77.4291L118.663 77.3275C118.695 78.2574 119.366 78.31 119.987 78.2819L122.262 78.1786C123.038 78.1436 123.772 78.3572 124.212 79.0402C125.878 81.632 126.652 84.8577 125.654 87.8628C125.054 89.6701 122.726 91.8101 123.952 93.6348C124.281 92.2181 124.6 90.8819 125.522 89.8312L125.372 91.9887L125.154 94.1672C125.075 94.95 124.473 95.8169 123.644 95.9482C123.061 96.041 122.529 95.3335 122.417 94.7836C121.911 92.2969 123.121 89.5703 122.76 87.08C122.08 82.3815 118.285 77.5079 113.07 79.0174C112.055 79.3116 111.113 79.2451 110.326 78.4711L108.47 76.648C106.939 75.1437 104.516 74.6867 102.578 75.7322C101.59 76.2645 100.99 77.2855 100.293 78.1681C100.406 76.9335 101.131 75.6481 102.254 75.0544C104.58 73.8251 107.682 74.403 108.986 72.559C107.912 73.0055 107.011 73.2927 105.955 73.4906L103.036 74.0387C101.098 74.403 99.9779 75.9108 99.6012 77.8634L98.7016 82.5286C97.9604 86.3743 98.103 90.2042 98.6576 94.0744C98.9269 95.9587 99.1575 98.526 98.0467 99.5715C97.6788 99.9182 96.6612 99.589 96.3919 99.1967C94.8708 96.9744 96.0732 92.451 96.5961 89.516L97.4658 84.6231C97.9006 82.1714 97.8636 76.6848 96.1313 75.487C95.3831 74.9686 94.6578 75.8075 94.341 76.6218C94.1121 75.3294 94.1579 74.0475 94.1385 72.5117C93.1526 74.2997 93.5558 76.2785 93.6332 78.1313L93.797 82.012C93.8181 82.5286 93.9466 83.2221 94.3638 83.5583C94.7318 83.5373 94.9483 82.8614 94.9553 82.4428L95.0222 77.8284C95.8972 77.7408 96.4658 78.436 96.5644 79.2591C96.8971 82.0243 96.6824 84.7614 96.1348 87.5301C95.3955 91.2584 93.0629 100.023 96.7721 100.843C97.633 101.034 98.6523 100.715 99.0994 99.8954C99.8054 98.6048 99.9145 97.111 99.7526 95.6452L99.2332 90.9257C98.8107 87.0818 99.2491 83.3622 100.37 79.6391L104.356 80.935L112.474 84.2291L121.938 88.2393L121.279 93.437C121.084 94.9763 121.894 96.9306 123.578 96.9096C126.05 96.8781 126.057 94.0254 126.351 91.4476L126.603 89.2463C126.779 87.7105 127.295 86.2009 127.205 84.6231C127.059 82.0418 126.043 79.6829 124.571 77.606C124.476 75.0527 123.538 72.7989 121.818 70.8655C119.368 68.1109 116.591 65.7817 113.732 63.3178C113.299 58.8539 109.419 57.4757 109.044 56.3882C107.286 51.3027 104.141 50.7195 102.221 49.0699L98.5396 45.9089C98.0925 43.9563 97.3214 42.1876 95.6542 40.9372L92.1509 38.3139C90.4838 37.0653 88.9452 35.8412 87.6002 34.2563L84.868 31.0341L82.9438 28.7435C81.5706 27.1096 80.0091 25.7875 77.9635 24.8208C79.2909 21.7001 78.5286 18.0698 75.7717 15.9264C71.654 12.7216 63.6581 14.2189 58.507 15.4097C51.9159 16.9351 45.6275 18.9472 39.5522 21.9348C33.7339 24.798 27.6181 28.2934 22.754 32.5191C20.7172 34.2896 19.2278 36.3543 18.5307 39.0179C17.7015 42.1876 18.5518 45.4869 20.6344 48.0507C22.3526 50.1644 24.5655 51.5881 27.1182 52.6389C33.4435 55.2447 39.7688 57.46 46.2824 59.5982C49.7452 60.7347 53.0162 61.9396 56.2853 63.4491L57.6197 65.6417C58.1443 66.5033 59.0158 66.934 59.8731 66.9008C60.8924 66.8605 61.7462 66.4577 62.3377 65.5804L64.1123 66.2108L69.6858 68.715C70.4217 70.1335 70.7439 71.7359 71.0414 73.3067L71.9885 78.3064C72.1417 79.119 72.8353 79.9036 73.5888 80.2205C74.3387 80.5375 75.4408 80.1347 75.6626 79.3817L76.2682 77.3258C76.9424 77.2872 77.798 76.9125 78.1466 76.2575L80.1236 72.5449C80.7098 72.5782 81.3453 72.7358 81.9368 72.9547L87.4453 74.9914L90.901 76.4817L91.313 79.0297C91.871 82.4726 92.2214 85.9505 93.0329 89.3444C93.0805 89.5458 93.4502 89.9818 93.5945 90.1394L93.3938 87.08L92.1738 78.5324C91.857 76.3153 91.4292 74.2646 90.6475 72.1807C89.8659 70.0967 88.4206 66.8622 86.1795 66.9778C88.8237 68.4191 89.8254 72.2648 90.5525 75.2733L88.1371 74.1403L80.8506 71.4207C81.6728 70.2386 82.9667 69.9251 84.2096 70.3489C86.0492 70.9758 87.7181 71.841 89.38 72.8724C89.38 72.4486 89.1283 71.6851 88.7304 71.4697C87.2023 70.6396 85.7235 69.9461 84.1057 69.4085C80.6816 68.2702 79.4335 72.0336 77.8966 74.9861C77.5691 75.6166 76.953 76.0999 76.2048 76.7093L76.3104 70.4557C76.3351 69.0443 75.9425 67.2913 74.9901 66.9305C74.77 66.8465 74.2894 67.1372 74.1187 67.3403C73.0272 68.6327 72.867 70.2018 72.8388 71.8567C72.8212 72.8146 72.7895 73.6289 73.3493 74.4082C73.5923 73.4503 73.6205 72.7358 73.7138 71.848L73.8704 70.3542C74.1204 70.3016 74.638 70.3769 74.8545 70.4995C75.0711 70.6221 75.1591 71.1965 75.1626 71.4872L75.2207 76.233C75.2348 77.3293 75.1644 78.5831 74.4109 79.4167C72.5343 79.154 72.2438 75.086 71.8266 72.5082C71.1717 68.4716 68.45 62.7697 64.2936 63.2092C62.2779 63.4211 61.3853 65.6977 60.021 65.9884C58.5457 66.3036 57.0845 63.0866 56.2695 61.2303C54.0953 56.2831 50.7188 57.4284 48.2929 55.5091C45.867 53.5898 44.8811 50.9735 42.4711 49.7774C41.2563 49.175 40.105 49.2468 39.0206 50.1644L38.0682 49.259L34.3677 45.993L36.982 43.5185L43.552 37.1231C46.2666 34.4805 52.2257 31.1987 55.8346 29.7627C60.873 27.7558 66.0857 26.5685 71.4287 25.6859C74.8686 25.1167 78.4617 25.6999 80.8541 28.1814L83.1005 30.5105C79.0198 28.3355 72.8476 27.4966 68.9465 29.9939C67.0117 31.232 66.5611 33.435 67.818 35.4454C70.295 39.4102 77.1079 41.1929 81.9843 41.0966C84.7782 41.0406 88.2516 39.9303 89.0807 37.2317L94.4166 41.2945C95.3391 41.9967 96.2581 42.8531 96.6876 43.895L97.2809 45.331C95.5222 44.571 93.7882 44.0894 91.9291 44.4414C91.8394 44.4975 91.5013 44.7601 91.5894 44.8179L92.0453 45.1174C95.2247 44.9738 98.1277 46.3923 100.238 48.5883L100.233 48.59ZM35.394 43.5378C35.9574 40.7183 35.4152 38.4312 33.4928 36.6187C29.8504 33.1846 25.7098 32.661 21.3457 35.6766C22.0639 34.7537 22.8596 33.7835 23.8032 33.0708L28.6181 29.4352C32.4277 26.8504 36.3623 24.7245 40.5222 22.7298C45.5096 20.3377 50.5128 18.5269 55.8786 17.1925C61.3554 15.83 70.4939 13.5044 74.9514 16.7529C77.4811 18.597 77.9265 21.8034 77.1044 24.7823C74.8369 24.3935 72.7596 24.4075 70.5449 24.7945C66.3973 25.5195 62.3888 26.4617 58.3838 27.7261C53.9421 29.127 48.5024 32.0305 44.7244 34.801C42.4904 36.4384 40.7405 38.4768 38.7477 40.3646L35.3976 43.5378H35.394ZM72.3353 37.2001C75.4249 38.7377 78.7786 39.4294 82.2238 39.4242C84.1902 39.4207 85.7728 38.6484 87.5086 37.7658C86.4841 39.3471 84.6039 39.9355 82.817 40.1544C78.2575 40.7096 70.9692 38.9899 68.5891 34.8377C67.7476 33.3702 68.0081 31.7504 69.3742 30.7767C70.5995 29.9028 72.0448 29.5876 73.58 29.3652C76.0446 29.0079 78.4687 29.514 80.8172 30.3249C81.9755 30.7241 83.1198 31.0901 83.9103 31.9798C82.4843 31.7188 81.4914 31.1865 80.1905 31.3248L81.9086 32.027C84.0212 32.7118 85.8397 33.7607 87.2886 35.4454C87.7217 35.948 87.6829 36.652 87.0897 37.0688C83.2501 39.7744 76.7312 38.517 72.5924 36.4419C70.9868 35.6381 69.9482 34.4893 68.7757 33.0357C68.23 34.4752 70.7861 36.4278 72.3371 37.2001H72.3353ZM50.93 57.6754C53.3436 58.2007 55.0213 59.7033 55.604 62.0306L48.1696 59.1236L40.6965 56.5809L32.4435 53.5968C30.0212 52.7212 27.6991 51.8053 25.444 50.5969C20.9161 48.1698 18.154 42.8321 20.1679 38.3472C20.7136 37.1301 21.8896 36.4033 22.9547 35.7046C24.5814 34.6346 26.3717 34.3386 28.3294 34.8097C30.1796 35.2563 32.014 36.258 33.2463 37.7255C34.8606 39.6466 35.2162 42.2559 33.9927 44.4011C33.1776 45.8301 30.9876 46.5639 31.7323 46.8336C32.6301 47.1593 33.6512 45.8196 37.6457 50.4779C38.415 51.3745 39.4959 51.4428 40.3409 50.7283C41.7 49.5795 43.971 51.9752 45.2526 53.6581C46.5782 55.5984 48.4619 57.1377 50.93 57.6736V57.6754ZM86.1601 52.5671C86.0633 51.2974 87.3344 50.1311 88.447 49.59C96.0732 45.8792 107.768 51.5006 107.352 56.3882C107.254 57.551 106.256 58.4389 105.245 58.9643C97.9833 62.7469 86.565 57.875 86.1601 52.5671ZM106.46 59.712C104.87 61.1655 103.039 61.873 100.95 62.0289C97.6506 62.2741 94.4466 61.6699 91.3658 60.4003C89.1881 59.5036 85.7869 57.0449 85.8697 54.6703C86.5686 55.7298 87.2217 56.6404 88.2551 57.4144C91.7742 60.05 96.1014 61.3669 100.51 61.1148C102.858 60.9817 105.057 60.3512 106.893 58.6771C106.963 58.959 106.807 59.3933 106.458 59.7103L106.46 59.712ZM64.9943 65.4735L62.9328 64.8133C64.7865 63.204 67.6965 64.6452 68.6472 67.0987L64.9943 65.4735ZM121.647 86.9837L105.053 80.0559L101.737 78.6339C101.594 78.5726 101.272 78.2259 101.367 78.1068L101.719 77.6708C103.221 75.811 105.777 75.3854 107.558 77.0526L109.636 78.9947C110.565 79.8633 111.815 80.2678 113.116 79.9036C115.324 79.2836 117.385 79.7547 119.007 81.4201C120.42 82.8719 121.478 84.8122 121.646 86.982L121.647 86.9837Z" fill="white"/>
<path d="M48.3052 49.4043C51.1184 56.1185 65.5999 59.5106 70.4834 52.8717C71.9533 50.8736 71.7966 48.2485 70.1911 46.2959C65.8481 41.0125 56.3452 38.1492 50.5058 42.1087C48.0957 43.7426 47.1592 46.6689 48.3052 49.4043ZM52.4722 50.2642C51.004 49.2292 50.2329 47.9806 49.6625 46.4167C49.321 46.0875 49.1696 45.4903 49.3509 45.014C50.0164 43.2733 51.4687 42.1753 53.2081 41.6639C61.7462 39.1527 71.1646 45.767 70.4922 49.8088C70.1964 51.5846 68.6014 52.8577 66.7618 53.278C61.8853 54.3935 56.6216 53.1869 52.4722 50.2624V50.2642ZM68.2634 53.6913C67.4096 54.4863 66.4343 54.8856 65.3164 55.1343C60.0104 56.3164 54.3259 54.749 50.5815 50.8298C49.5534 49.7545 48.814 48.4516 48.9583 46.9929C50.2769 50.8928 55.1604 53.1362 59.2358 54.0941C62.3078 54.8156 65.2583 54.6334 68.2617 53.693L68.2634 53.6913Z" fill="white"/>
<path d="M98.133 108.249C97.5502 107.212 97.839 105.69 97.5784 105.792L97.1559 105.956C97.0468 106.725 97.0556 107.822 97.3971 108.65C97.4957 108.888 98.1559 109.054 98.39 108.986C99.9744 108.527 99.9955 104.391 98.7456 102.678C98.302 104.461 99.2913 106.492 98.133 108.249Z" fill="white"/>
<path d="M78.2364 70.8445C77.8297 71.8795 77.0481 72.8181 77.4142 73.9652C78.9124 71.2753 79.9 67.7554 82.7431 66.6924C80.8964 66.1845 79.0497 68.7693 78.2364 70.8445Z" fill="white"/>
<path d="M48.652 53.6651C48.6626 52.898 48.1538 52.2326 47.7348 51.5146L46.2472 48.97C45.7279 48.0804 45.2121 47.2328 44.2614 46.6287L46.7718 51.0838C47.2665 51.9629 47.851 52.7474 48.6538 53.6668L48.652 53.6651Z" fill="white"/>
<path d="M98.0978 72.4678C99.0942 69.7184 101.302 68.2036 104.236 68.5398C103.476 67.6677 102.365 67.9549 101.386 68.2562C99.5818 68.8113 97.964 70.4137 98.0978 72.4696V72.4678Z" fill="white"/>
<path d="M75.9812 62.9359L78.2276 61.6488C79.4264 60.9623 80.5672 61.4509 81.9351 62.0621C80.6816 60.2881 78.1659 60.4982 76.7206 61.8799C76.3773 62.2074 75.9988 62.3072 75.9812 62.9342V62.9359Z" fill="white"/>
<path d="M75.7295 53.5704C76.9688 53.1011 78.1677 53.0888 79.6447 53.0626C78.085 51.504 75.1908 53.2552 75.1749 53.2132L75.3175 53.5792C75.351 53.6632 75.6256 53.609 75.7295 53.5687V53.5704Z" fill="white"/>
<path d="M108.807 66.9813C109.787 67.4751 110.664 68.053 111.69 68.3262C110.956 66.8272 109.328 66.0952 107.8 66.4752L108.807 66.9813Z" fill="white"/>
<path d="M73.8141 64.4667L76.3861 60.5125C75.0412 61.2742 73.7314 62.6454 73.8141 64.4667Z" fill="white"/>
<path d="M74.3792 56.7594L76.7329 56.4214C77.1185 56.3654 77.3966 56.3146 77.6853 55.8523C76.2752 55.5843 74.4496 55.7034 74.3792 56.7594Z" fill="white"/>
<path d="M60.0122 36.1318C60.0051 35.9601 59.6742 35.6712 59.5034 35.6484L58.2289 35.4821C57.6532 35.4068 57.1585 35.3087 56.9701 35.9987C57.9912 36.3279 58.9823 36.461 60.0122 36.1318Z" fill="white"/>
<path d="M84.3574 46.1435C84.53 46.1803 85.088 45.8528 85.0335 45.6882C84.8046 45.0034 83.8223 44.7233 83.6269 44.8581L82.8417 45.3957C83.4614 45.8143 83.7501 46.0104 84.3592 46.1435H84.3574Z" fill="white"/>
<path d="M59.4753 64.5349C59.4242 64.1339 59.3256 63.7591 59.2077 63.3983L58.4982 61.2461C57.9085 62.521 58.4172 63.8344 59.4753 64.5331V64.5349Z" fill="white"/>
<path d="M112.581 77.2399L115.343 76.3188C115.445 76.2855 115.862 76.212 115.783 76.1559C114.838 75.4852 113.072 76.1892 112.579 77.2399H112.581Z" fill="white"/>
<path d="M100.793 71.03C101.886 70.2105 102.914 70.0178 104.312 69.8182C103.244 69.0354 100.837 69.6641 100.793 71.03Z" fill="white"/>
<path d="M115.076 70.9146C115.114 71.116 115.662 71.4837 115.708 71.3086C115.995 70.2071 114.878 69.0425 113.757 69.1511C113.764 70.0109 114.831 69.6572 115.076 70.9146Z" fill="white"/>
<path d="M57.9401 33.8272L59.9805 33.6538C59.1073 32.5821 57.9525 33.0514 57.0775 33.4489L57.9401 33.8272Z" fill="white"/>
<path d="M97.508 96.0462C97.8619 95.4368 97.8953 94.7731 97.6471 94.0971L97.2404 92.9851L97.1383 93.9343C97.0626 94.6365 97.0644 95.2407 97.508 96.0462Z" fill="white"/>
<path d="M124.79 85.1852C125.302 84.2501 125.288 83.1818 124.334 82.6582C124.35 83.5846 124.536 84.4059 124.79 85.1852Z" fill="white"/>
<path d="M49.284 38.8778C48.971 38.8778 48.7172 38.6253 48.7172 38.3139C48.7172 38.0025 48.971 37.75 49.284 37.75C49.5971 37.75 49.8509 38.0025 49.8509 38.3139C49.8509 38.6253 49.5971 38.8778 49.284 38.8778Z" fill="white"/>
<path d="M108.124 69.461L109.217 69.792C109.19 69.2141 108.572 68.7973 108.234 68.7518C108.132 68.7378 107.872 68.9094 107.831 68.9987C107.78 69.1195 107.997 69.4225 108.122 69.461H108.124Z" fill="white"/>
<path d="M82.2449 46.9876C82.1551 46.7021 81.4703 46.4535 81.1253 46.541C81.0232 46.8037 81.2063 47.3571 81.4246 47.5042C81.7291 47.7091 82.384 47.4219 82.2449 46.9876Z" fill="white"/>
<path d="M73.7314 45.2871L74.6222 45.9071C74.8052 46.0349 75.3017 45.8353 75.5693 45.5848C74.9461 45.1523 74.2754 45.1103 73.7314 45.2871Z" fill="white"/>
<path d="M46.0765 39.6115L46.425 39.2245C46.506 39.1352 45.6839 38.6483 45.5501 38.8375L45.191 39.3453C45.1117 39.4574 45.3617 39.8462 45.5008 39.8392C45.6399 39.8321 45.9832 39.7148 46.0765 39.6115Z" fill="white"/>
<path d="M81.4175 55.8541C81.7009 56.1221 82.3717 56.3515 82.4738 56.1238C82.6815 55.6597 81.8541 55.1992 81.502 55.3025C81.3805 55.3375 81.3119 55.7543 81.4175 55.8541Z" fill="white"/>
<path d="M46.9849 31.344C45.6945 31.351 42.5309 33.456 41.7317 34.8622L46.9849 31.344Z" fill="white"/>
<path d="M60.014 25.2937L64.2162 24.362C63.3711 23.6668 62.6159 24.0766 61.8642 24.3743C61.2322 24.6247 60.6055 24.5967 60.014 25.2954V25.2937Z" fill="white"/>
<path d="M37.4925 39.9267C38.8446 39.1597 40.9694 36.8445 39.9096 36.7307L37.4925 39.9267Z" fill="white"/>
<path d="M57.2835 23.7123C58.0546 23.7613 58.794 23.6352 59.5228 23.271C58.852 22.7246 57.6813 22.6195 57.2835 23.7123Z" fill="white"/>
<path d="M71.8917 22.6545C72.4251 23.4321 73.3934 23.0923 73.9409 22.5039L71.8917 22.6545Z" fill="white"/>
<path d="M23.9195 47.3747L22.7945 45.1857C22.4372 44.4887 22.4002 43.5693 21.8316 42.8933C21.3334 44.5657 21.9795 46.6462 23.9195 47.3747Z" fill="white"/>
<path d="M31.3239 44.8669C32.4629 44.6498 32.9048 43.6393 33.1143 42.5903C32.2658 43.1455 31.6848 43.8389 31.3239 44.8669Z" fill="white"/>
<path d="M26.0918 36.9322L27.627 35.8867L26.4457 35.9305C26.2221 35.9393 25.9985 36.3473 26.0918 36.9339V36.9322Z" fill="white"/>
<path d="M42.3619 53.8648C42.2369 53.9716 42.45 54.5232 42.5767 54.4707L43.1559 54.229C43.3249 54.159 43.7104 53.8035 43.6876 53.6459C43.4429 53.4059 42.6154 53.6494 42.3619 53.8665V53.8648Z" fill="white"/>
<path d="M105.145 57.3935C105.673 57.5651 106.162 57.0747 106.308 56.5143C106.643 55.2342 105.993 53.9943 104.983 53.18C104.041 52.42 103.273 51.3658 101.874 51.2222C103.934 52.7965 107.3 55.0643 105.145 57.3935Z" fill="white"/>
<path d="M92.5435 50.0611C94.172 50.0558 95.6032 50.1416 97.1559 50.6109C97.5274 50.723 98.0062 50.7738 98.4006 50.6932C97.038 49.7406 95.5257 49.7021 93.9272 49.632C93.4185 49.6092 92.9044 49.7196 92.5435 50.0611Z" fill="white"/>
<path d="M101.819 56.0363C101.944 56.1221 102.142 56.2499 102.143 56.2744C102.147 56.3007 102.259 56.0468 102.351 55.8489C101.321 54.9873 100.24 53.9313 98.7509 53.9348L101.819 56.0363Z" fill="white"/>
<path d="M92.2443 51.8822C92.3693 52.1817 92.8939 52.5932 93.1773 52.6598C93.5593 52.7491 94.0223 52.5897 94.4378 52.2202C93.9537 51.6458 93.0365 51.2308 92.2443 51.8805V51.8822Z" fill="white"/>
<path d="M93.3815 57.5947C93.9343 58.2059 94.7723 58.67 95.7969 58.2549C95.0557 57.8749 94.3163 57.621 93.3815 57.5947Z" fill="white"/>
<path d="M99.5132 58.3775C100.08 59.0185 100.964 58.8153 101.569 58.0903L99.5132 58.3775Z" fill="white"/>
<path d="M89.1635 55.4144C89.5807 55.9083 89.9451 56.0887 90.6581 56.1219C90.5437 55.7857 90.3888 55.453 90.2127 55.3409C89.9715 55.1885 89.461 55.2271 89.1652 55.4144H89.1635Z" fill="white"/>
<path d="M83.6902 37.293C85.2183 37.3017 86.9083 36.7886 86.8256 35.5015C85.7183 36.3158 84.9595 36.7501 83.6902 37.293Z" fill="white"/>
<path d="M70.5731 32.8519C70.9217 33.4245 71.5942 33.6277 72.3706 33.4876C72.1611 33.041 71.8195 32.6347 71.3865 32.3178C71.2034 32.1847 70.5978 32.5822 70.5749 32.8536L70.5731 32.8519Z" fill="white"/>
<path d="M79.0462 36.9671C79.7292 37.8112 80.7503 37.925 81.5724 37.4995C80.7415 36.8673 79.9123 36.8691 79.0462 36.9671Z" fill="white"/>
<path d="M78.6096 34.0567C78.7381 33.9288 78.4723 33.3859 78.2909 33.3509L76.8016 33.0637C77.0551 33.9954 77.9969 34.0619 78.6096 34.0567Z" fill="white"/>
<path d="M73.0835 30.9569C73.675 31.4105 74.5183 31.4052 75.1433 30.9289C74.5201 30.386 73.7578 30.5279 73.0835 30.9569Z" fill="white"/>
<path d="M68.5557 48.5095C69.0151 49.9945 68.5363 51.1503 67.2917 51.9856C67.9818 52.0942 68.8373 51.4183 69.075 50.8123C69.8355 48.865 68.8849 47.0455 67.3709 45.8003C66.047 44.7111 64.4873 43.7794 62.7215 43.7532C64.2144 44.5797 65.6139 45.0176 66.797 46.0228C67.5522 46.6637 68.2599 47.5568 68.5557 48.5112V48.5095Z" fill="white"/>
<path d="M62.5877 46.3571C62.8183 46.6846 63.2197 47.0593 63.6123 47.2117C64.0542 47.3816 64.5471 47.2432 64.9591 46.8684C64.3834 46.1242 63.5982 45.6899 62.5877 46.3571Z" fill="white"/>
<path d="M61.799 51.364L63.3394 51.3763C63.5155 51.3763 63.857 50.942 63.8024 50.7738L61.4716 50.6863L61.4029 51.1048C61.3871 51.2064 61.6829 51.3622 61.799 51.364Z" fill="white"/>
<path d="M54.6393 44.902C55.3787 45.4904 56.3293 45.2102 57.0617 44.7864C56.3223 44.2978 55.3893 44.2558 54.6393 44.902Z" fill="white"/>
<path d="M54.3347 48.4921C54.3189 48.5744 55.8487 49.7739 56.3857 49.0104L54.428 47.9912L54.333 48.4938L54.3347 48.4921Z" fill="white"/>
<path d="M50.5815 45.5954C50.9441 46.5095 51.0198 46.9649 51.9476 47.2853L51.0709 45.4658L50.5815 45.5954Z" fill="white"/>
</g>
<defs>
<clipPath id="clip0_1044_2879">
<rect width="136.209" height="126" fill="white" transform="matrix(-1 0 0 1 136.209 0)"/>
</clipPath>
</defs>
</svg>
