<svg width="44" height="50" viewBox="0 0 44 50" fill="none" xmlns="http://www.w3.org/2000/svg">
<path d="M21.7592 13.6098L22.1443 12.2954L23.1851 14.0177C23.3492 14.2371 23.4642 14.4696 23.566 14.653L23.5791 14.7021C23.6055 14.8004 23.6678 14.8364 23.6809 14.8855L23.7468 15.1312C23.7275 15.4523 24.1109 15.5076 24.7339 15.8673C25.1701 16.1191 25.9809 17.3764 26.5715 18.0081L25.185 19.2801L24.2618 18.6059L24.8761 20.7216C24.8761 20.7216 27.1791 18.1138 31.3399 17.5256L30.0045 16.8459L30.2222 15.3394C30.2152 14.9199 31.8293 13.8291 32.6383 13.507C33.0314 13.4017 33.6702 13.2306 34.1352 13.0006C34.3317 12.948 34.466 12.8593 34.5511 12.7839C34.6002 12.7707 34.6362 12.7084 34.6853 12.6952C34.8783 12.4329 35.3013 12.6355 35.4882 12.7434C35.5171 12.2617 35.2188 12.131 34.9467 12.0985C34.6124 12.0301 34.2553 12.0732 34.1834 12.1978C34.1834 12.1978 34.1474 12.2601 34.0491 12.2864C33.535 12.5295 31.7696 13.2132 30.8001 13.5256C29.6076 13.7925 29.086 15.5016 28.6184 16.3115L28.3323 15.4402C28.3323 15.4402 28.8876 13.9749 28.4278 13.0448C27.9056 12.0788 27.7951 12.8457 25.2696 10.8892C25.2908 12.1475 26.2218 12.4773 27.0186 12.8958C27.5793 13.2195 27.8259 13.9434 27.5645 14.5401L26.9828 15.9072L25.8214 14.4225C25.7784 14.0654 24.7122 13.0345 24.1611 12.5502L23.1862 11.0736L22.2867 9.682L23.3738 9.02207L21.8926 8.99763C21.5837 8.23779 20.2269 5.33619 20.0127 4.34031C19.8714 4.00953 19.5134 3.26285 19.709 2.42049C19.9046 1.57812 20.5986 1.02352 20.9653 0.819918C20.8925 0.15482 19.7421 -0.0109182 19.1753 0.0356351C18.619 0.711316 17.3592 2.10218 16.6125 2.46024C15.6824 2.9201 13.5724 5.85534 13.3926 6.16684C13.2847 6.35375 13.4224 6.47483 13.547 6.54677C13.3505 6.59943 13.3945 7.74625 13.3989 8.74566C13.4156 9.0045 13.3877 10.2759 13.3912 10.4856L12.9123 12.8258C12.6798 12.9408 12.6403 12.7934 12.4437 12.846C12.1849 12.8627 11.9822 13.2857 11.2979 13.6797C10.9311 13.8833 10.6986 13.9983 10.4398 14.015C9.36841 14.144 7.69495 12.2226 7.39214 11.0925C6.83331 12.3481 8.63395 13.7615 8.77172 13.8826C8.87352 14.066 8.97532 14.2494 9.16223 14.3573C9.43777 14.5994 10.4645 15.4829 11.0734 15.0038L11.5744 14.7116L11.5621 15.4521C11.5621 15.4521 13.0064 14.7492 14.1496 14.4955C16.4362 13.9881 18.0323 14.2451 18.0323 14.2451L18.234 13.0324C18.9306 11.8978 19.3237 11.7925 20.3581 10.936L20.846 10.5947L20.9478 10.778L20.4583 12.4891L18.9314 14.436C18.9314 14.436 20.4706 14.8346 21.1416 15.3342C21.1416 15.3342 21.5746 14.2966 21.7605 13.6148L21.7592 13.6098ZM18.9467 9.99238C17.5481 10.4725 16.3267 11.221 15.6099 11.8871C15.5248 11.9625 15.4397 12.038 15.4037 12.1003L14.9782 12.4776L15.0852 11.501C15.143 10.5376 14.4873 7.50082 14.9164 7.33319C15.4437 7.13923 15.4331 6.5101 15.3541 6.21529C15.576 5.47119 16.2787 3.96631 17.494 3.58803C17.4352 3.76177 17.5274 4.10572 18.0582 4.12147L18.7033 6.52912L19.9548 9.03763L20.1979 9.5518L18.9467 9.99238Z" fill="#6C7C59"/>
<path d="M23.8961 26.975C22.9987 30.1123 20.8424 32.6599 19.8454 33.912C19.2875 34.6409 18.8522 35.3948 18.4459 36.2568C18.1187 36.9818 17.8166 37.5842 17.4962 37.9018C17.2298 38.2049 16.9305 38.1692 16.555 37.6325L16.5405 37.5785C16.219 37.0273 16.0095 36.6779 15.6523 36.426C15.3492 36.1596 15.021 36.0158 14.6783 35.818C13.0517 35.153 6.47971 31.8156 5.76375 23.9543L5.73478 23.8462C5.71641 23.5614 5.69805 23.2766 5.71925 22.9233C5.84365 21.4416 6.5192 19.6384 7.33183 17.9143C8.00066 16.5184 9.01219 15.3204 10.3018 14.5113C11.4746 13.7857 13.6314 13.2078 15.8682 13.1878C17.9258 13.1695 19.9541 13.9064 21.4201 15.356C25.7063 19.5898 23.8961 26.975 23.8961 26.975Z" fill="#E55934"/>
<path d="M24.0645 29.4175C24.1034 29.4517 24.1544 29.5119 24.1992 29.564C24.2498 29.6227 24.3203 29.705 24.3994 29.7974C24.5614 29.9865 24.782 30.2408 25.0576 30.5356C25.6092 31.1257 26.3794 31.8784 27.3301 32.6011C29.2362 34.0501 31.8377 35.3541 34.8496 35.022L34.8535 35.021C35.1908 34.9883 35.5354 34.9548 35.8262 34.936L36.2529 34.9087L36.1445 35.3228C35.3093 38.5239 33.9953 41.2989 32.6191 42.8647L32.6182 42.8657C31.3658 44.2789 30.4591 45.1264 29.8271 45.6177C29.5118 45.8628 29.2582 46.0245 29.0586 46.1226C28.9799 46.1612 28.9049 46.1896 28.8359 46.2114C28.7041 46.9274 28.4847 47.8655 28.1689 48.563C27.9987 48.9389 27.7771 49.3014 27.4834 49.4946C27.327 49.5974 27.1413 49.6578 26.9365 49.6353C26.7357 49.613 26.5518 49.5156 26.3867 49.3706L24.3389 47.5698C21.889 47.3556 16.8937 45.9026 15.2559 40.895L15.2061 40.7417L15.3037 40.6128C15.6932 40.0982 16.2367 39.3859 16.5811 38.7896L16.7148 38.5581L16.9639 38.6577C17.2301 38.7646 17.4185 38.7551 17.5703 38.6938C17.7336 38.6279 17.9001 38.4839 18.0801 38.2358C18.2593 37.9889 18.4329 37.6666 18.623 37.2808C18.8054 36.9107 19.0169 36.4508 19.2402 36.0054L19.2451 35.9976L19.249 35.9897C19.3569 35.8029 19.4822 35.6285 19.5967 35.4692C19.7143 35.3056 19.8212 35.1562 19.9111 35.0005L19.9229 34.9829C20.4017 34.2728 21.09 33.4023 21.7529 32.4868C22.426 31.5572 23.0945 30.552 23.5801 29.5181L23.7549 29.146L24.0645 29.4175Z" fill="#E55934" stroke="#E55934" stroke-width="0.617993"/>
<path d="M5.21268 22.9431V22.946C5.21236 22.9494 5.21138 22.9551 5.21073 22.9626C5.2094 22.978 5.20697 23.0021 5.20487 23.0339C5.20068 23.0976 5.19578 23.1934 5.19315 23.3181C5.18791 23.5677 5.19224 23.9328 5.23026 24.3875C5.30637 25.2974 5.51806 26.5646 6.06132 27.9841C7.14487 30.8155 9.55569 34.2775 14.8963 36.7302H14.8953C15.2569 36.8855 15.5665 37.1911 15.8006 37.4949C16.0397 37.8052 16.2257 38.1467 16.3289 38.4109L16.3787 38.5378L16.3182 38.6599C16.033 39.2397 15.8003 39.361 15.5848 39.6052C15.3778 39.8865 15.1685 40.1725 14.9959 40.3923L14.9939 40.3953L14.993 40.3943C14.3375 41.2111 13.6684 41.8828 12.9568 42.2644C11.7694 42.9627 10.9196 43.3424 10.3367 43.5291C10.0461 43.6221 9.81249 43.6702 9.63163 43.6833C9.5953 43.686 9.55976 43.6865 9.52518 43.6863C9.31187 44.212 8.99616 44.8527 8.64237 45.2908C8.44478 45.5354 8.18897 45.7791 7.88651 45.8416C7.72098 45.8757 7.54967 45.8536 7.3914 45.7625C7.24018 45.6753 7.11951 45.5366 7.02225 45.3699L5.77909 43.238C3.66518 42.0742 -0.186799 38.4466 0.377724 32.6433L0.3787 32.6277L0.382607 32.6111C0.392007 32.565 0.398635 32.504 0.407997 32.4255C0.415726 32.3607 0.426734 32.2813 0.440224 32.2097C0.895692 28.8392 2.83942 24.9128 4.66776 22.7126L5.32108 21.9265L5.21268 22.9431Z" fill="#E55934" stroke="#E55934" stroke-width="0.617993"/>
<path d="M30.7412 16.5039C31.7833 16.1681 32.8867 15.8672 34.0508 15.9736H34.0518C35.9915 16.1623 38.7785 17.2845 41.3105 20.5127L41.4688 20.7275C41.8229 21.25 42.0652 21.913 42.2314 22.6309C42.4223 23.455 42.5184 24.3765 42.5605 25.292C42.6439 27.104 42.5144 28.931 42.459 29.9863C42.5222 30.4689 42.6301 30.9746 42.7354 31.4648C42.8406 31.9551 42.9447 32.4387 42.9854 32.8398C43.0058 33.0411 43.0126 33.2361 42.9902 33.4102C42.9682 33.5817 42.915 33.7626 42.791 33.9053C42.5124 34.2259 42.0712 34.1745 41.6338 34.002L41.6309 34C40.8555 33.683 40.5329 33.588 39.8906 33.6123C39.1993 33.6385 38.1887 33.8013 36.0283 34.0381L36.0244 34.0391C35.8595 34.0551 35.6942 34.0709 35.5293 34.0869C35.3646 34.1029 35.1999 34.1188 35.0352 34.1348H35.0322C32.2264 34.3879 29.6595 33.0892 27.7656 31.6973C25.8661 30.3012 24.6002 28.7794 24.3848 28.5176L24.2529 28.3574L24.3564 28.1768L24.3594 28.1719C24.3619 28.1673 24.3657 28.1596 24.3711 28.1494C24.3822 28.1286 24.3995 28.0965 24.4209 28.0527C24.4638 27.965 24.5247 27.8313 24.5957 27.6543C24.7378 27.3004 24.9182 26.7721 25.0654 26.084C25.3597 24.7079 25.5222 22.69 24.9795 20.1475L24.9512 20.0146L25.0322 19.9053H25.0332V19.9043L25.0352 19.9023C25.0364 19.9007 25.0381 19.898 25.04 19.8955C25.0439 19.8905 25.049 19.8834 25.0557 19.875C25.0694 19.8577 25.0892 19.8334 25.1152 19.8027C25.1675 19.7411 25.2453 19.6537 25.3506 19.5459C25.5615 19.3301 25.8837 19.032 26.335 18.6934C27.2382 18.0157 28.6583 17.1766 30.7412 16.5039Z" fill="#E55934" stroke="#E55934" stroke-width="0.601692"/>
</svg>
